Playfair Display-Regular Italic.ufo
<glyph name="exclam" format="1">
  <advance width="263"/>
  <unicode hex="0021"/>
  <outline>
    <contour>
      <point x="112" y="196" type="line"/>
      <point x="167" y="409"/>
      <point x="258" y="614"/>
      <point x="288" y="720" type="curve" smooth="yes"/>
      <point x="299" y="752"/>
      <point x="287" y="782"/>
      <point x="246" y="782" type="curve" smooth="yes"/>
      <point x="225" y="782"/>
      <point x="208" y="768"/>
      <point x="201" y="743" type="curve" smooth="yes"/>
      <point x="170" y="628"/>
      <point x="149" y="411"/>
      <point x="94" y="199" type="curve"/>
    </contour>
    <component base="period" xOffset="8"/>
  </outline>
</glyph>
<glyph name="numbersign" format="1">
  <advance width="639"/>
  <unicode hex="0023"/>
  <outline>
    <contour>
      <point x="132" y="454" type="line"/>
      <point x="124" y="434" type="line"/>
      <point x="625" y="434" type="line"/>
      <point x="633" y="454" type="line"/>
    </contour>
    <contour>
      <point x="46" y="267" type="line"/>
      <point x="37" y="247" type="line"/>
      <point x="537" y="247" type="line"/>
      <point x="547" y="267" type="line"/>
    </contour>
    <contour>
      <point x="559" y="602" type="line"/>
      <point x="535" y="602" type="line"/>
      <point x="303" y="101" type="line"/>
      <point x="327" y="101" type="line"/>
    </contour>
    <contour>
      <point x="372" y="602" type="line"/>
      <point x="348" y="602" type="line"/>
      <point x="116" y="101" type="line"/>
      <point x="140" y="101" type="line"/>
    </contour>
  </outline>
</glyph>
<glyph name="dollar" format="1">
  <advance width="551"/>
  <unicode hex="0024"/>
  <outline>
    <contour>
      <point x="357" y="840" type="line"/>
      <point x="87" y="-132" type="line"/>
      <point x="109" y="-132" type="line"/>
      <point x="379" y="840" type="line"/>
    </contour>
    <contour>
      <point x="461" y="840" type="line"/>
      <point x="191" y="-132" type="line"/>
      <point x="213" y="-132" type="line"/>
      <point x="483" y="840" type="line"/>
    </contour>
    <contour>
      <point x="419" y="703"/>
      <point x="469" y="680"/>
      <point x="498" y="651" type="curve"/>
      <point x="480" y="623"/>
      <point x="459" y="589"/>
      <point x="459" y="545" type="curve" smooth="yes"/>
      <point x="459" y="512"/>
      <point x="474" y="480"/>
      <point x="510" y="480" type="curve" smooth="yes"/>
      <point x="548" y="480"/>
      <point x="570" y="518"/>
      <point x="570" y="559" type="curve" smooth="yes"/>
      <point x="570" y="605"/>
      <point x="540" y="647"/>
      <point x="518" y="664" type="curve" smooth="yes"/>
      <point x="489" y="687"/>
      <point x="447" y="722"/>
      <point x="355" y="722" type="curve" smooth="yes"/>
      <point x="246" y="722"/>
      <point x="135" y="656"/>
      <point x="135" y="527" type="curve" smooth="yes"/>
      <point x="135" y="342"/>
      <point x="366" y="299"/>
      <point x="366" y="131" type="curve" smooth="yes"/>
      <point x="366" y="44"/>
      <point x="306" y="6"/>
      <point x="219" y="6" type="curve" smooth="yes"/>
      <point x="154" y="6"/>
      <point x="103" y="27"/>
      <point x="73" y="57" type="curve"/>
      <point x="91" y="85"/>
      <point x="112" y="119"/>
      <point x="112" y="163" type="curve" smooth="yes"/>
      <point x="112" y="196"/>
      <point x="97" y="228"/>
      <point x="61" y="228" type="curve" smooth="yes"/>
      <point x="23" y="228"/>
      <point x="1" y="190"/>
      <point x="1" y="149" type="curve" smooth="yes"/>
      <point x="1" y="103"/>
      <point x="26" y="65"/>
      <point x="53" y="44" type="curve" smooth="yes"/>
      <point x="82" y="21"/>
      <point x="124" y="-14"/>
      <point x="216" y="-14" type="curve" smooth="yes"/>
      <point x="332" y="-14"/>
      <point x="469" y="44"/>
      <point x="469" y="182" type="curve" smooth="yes"/>
      <point x="469" y="348"/>
      <point x="216" y="425"/>
      <point x="216" y="576" type="curve" smooth="yes"/>
      <point x="216" y="663"/>
      <point x="276" y="703"/>
      <point x="356" y="703" type="curve" smooth="yes"/>
    </contour>
  </outline>
</glyph>
<glyph name="percent" format="1">
  <advance width="766"/>
  <unicode hex="0025"/>
  <outline>
    <contour>
      <point x="344" y="743"/>
      <point x="363" y="721"/>
      <point x="363" y="677" type="curve" smooth="yes"/>
      <point x="363" y="605"/>
      <point x="317" y="448"/>
      <point x="231" y="448" type="curve" smooth="yes"/>
      <point x="197" y="448"/>
      <point x="179" y="471"/>
      <point x="179" y="515" type="curve" smooth="yes"/>
      <point x="179" y="586"/>
      <point x="225" y="743"/>
      <point x="311" y="743" type="curve" smooth="yes"/>
    </contour>
    <contour>
      <point x="112" y="467"/>
      <point x="154" y="430"/>
      <point x="224" y="430" type="curve" smooth="yes"/>
      <point x="343" y="430"/>
      <point x="430" y="552"/>
      <point x="430" y="657" type="curve" smooth="yes"/>
      <point x="430" y="723"/>
      <point x="389" y="761"/>
      <point x="319" y="761" type="curve" smooth="yes"/>
      <point x="200" y="761"/>
      <point x="112" y="639"/>
      <point x="112" y="534" type="curve" smooth="yes"/>
    </contour>
    <contour>
      <point x="608" y="299"/>
      <point x="627" y="277"/>
      <point x="627" y="233" type="curve" smooth="yes"/>
      <point x="627" y="161"/>
      <point x="581" y="4"/>
      <point x="495" y="4" type="curve" smooth="yes"/>
      <point x="461" y="4"/>
      <point x="443" y="27"/>
      <point x="443" y="71" type="curve" smooth="yes"/>
      <point x="443" y="142"/>
      <point x="489" y="299"/>
      <point x="575" y="299" type="curve" smooth="yes"/>
    </contour>
    <contour>
      <point x="376" y="23"/>
      <point x="418" y="-14"/>
      <point x="488" y="-14" type="curve" smooth="yes"/>
      <point x="607" y="-14"/>
      <point x="694" y="108"/>
      <point x="694" y="213" type="curve" smooth="yes"/>
      <point x="694" y="279"/>
      <point x="653" y="317"/>
      <point x="583" y="317" type="curve" smooth="yes"/>
      <point x="464" y="317"/>
      <point x="376" y="195"/>
      <point x="376" y="90" type="curve" smooth="yes"/>
    </contour>
    <component base="fraction" xOffset="362"/>
  </outline>
</glyph>
<glyph name="ampersand" format="1">
  <advance width="817"/>
  <unicode hex="0026"/>
  <outline>
    <contour>
      <point x="527" y="223" type="line"/>
      <point x="518" y="209"/>
      <point x="486" y="164"/>
      <point x="425" y="164" type="curve" smooth="yes"/>
      <point x="380" y="164"/>
      <point x="340" y="188"/>
      <point x="340" y="231" type="curve" smooth="yes"/>
      <point x="340" y="286"/>
      <point x="404" y="314"/>
      <point x="445" y="330" type="curve" smooth="yes"/>
      <point x="525" y="362"/>
      <point x="673" y="411"/>
      <point x="746" y="447" type="curve" smooth="yes"/>
      <point x="832" y="490"/>
      <point x="868" y="541"/>
      <point x="868" y="608" type="curve" smooth="yes"/>
      <point x="868" y="688"/>
      <point x="816" y="722"/>
      <point x="743" y="722" type="curve" smooth="yes"/>
      <point x="718" y="722"/>
      <point x="693" y="718"/>
      <point x="670" y="708" type="curve" smooth="yes"/>
      <point x="643" y="696"/>
      <point x="620" y="674"/>
      <point x="620" y="645" type="curve" smooth="yes"/>
      <point x="620" y="618"/>
      <point x="639" y="603"/>
      <point x="665" y="603" type="curve" smooth="yes"/>
      <point x="699" y="603"/>
      <point x="731" y="629"/>
      <point x="731" y="660" type="curve" smooth="yes"/>
      <point x="731" y="675"/>
      <point x="724" y="690"/>
      <point x="710" y="698" type="curve"/>
      <point x="714" y="704"/>
      <point x="726" y="707"/>
      <point x="742" y="707" type="curve" smooth="yes"/>
      <point x="798" y="707"/>
      <point x="841" y="670"/>
      <point x="841" y="621" type="curve" smooth="yes"/>
      <point x="841" y="571"/>
      <point x="797" y="538"/>
      <point x="738" y="510" type="curve" smooth="yes"/>
      <point x="663" y="474"/>
      <point x="527" y="429"/>
      <point x="479" y="411" type="curve" smooth="yes"/>
      <point x="377" y="373"/>
      <point x="313" y="328"/>
      <point x="313" y="246" type="curve" smooth="yes"/>
      <point x="313" y="171"/>
      <point x="367" y="148"/>
      <point x="421" y="148" type="curve" smooth="yes"/>
      <point x="489" y="148"/>
      <point x="522" y="184"/>
      <point x="540" y="214" type="curve"/>
    </contour>
    <contour>
      <point x="419" y="540" type="line"/>
      <point x="459" y="540"/>
      <point x="504" y="564"/>
      <point x="504" y="615" type="curve" smooth="yes"/>
      <point x="504" y="667"/>
      <point x="456" y="702"/>
      <point x="381" y="702" type="curve" smooth="yes"/>
      <point x="291" y="702"/>
      <point x="183" y="652"/>
      <point x="183" y="560" type="curve" smooth="yes"/>
      <point x="183" y="516"/>
      <point x="207" y="473"/>
      <point x="253" y="448" type="curve"/>
      <point x="131" y="414"/>
      <point x="38" y="317"/>
      <point x="38" y="197" type="curve" smooth="yes"/>
      <point x="38" y="65"/>
      <point x="150" y="-14"/>
      <point x="326" y="-14" type="curve" smooth="yes"/>
      <point x="538" y="-14"/>
      <point x="659" y="102"/>
      <point x="659" y="233" type="curve" smooth="yes"/>
      <point x="659" y="300"/>
      <point x="628" y="352"/>
      <point x="574" y="392" type="curve"/>
      <point x="560" y="385" type="line"/>
      <point x="616" y="351"/>
      <point x="639" y="295"/>
      <point x="639" y="246" type="curve" smooth="yes"/>
      <point x="639" y="133"/>
      <point x="519" y="60"/>
      <point x="364" y="60" type="curve" smooth="yes"/>
      <point x="219" y="60"/>
      <point x="113" y="123"/>
      <point x="113" y="243" type="curve" smooth="yes"/>
      <point x="113" y="334"/>
      <point x="175" y="413"/>
      <point x="266" y="440" type="curve"/>
      <point x="280" y="433"/>
      <point x="310" y="418"/>
      <point x="335" y="418" type="curve" smooth="yes"/>
      <point x="350" y="418"/>
      <point x="366" y="424"/>
      <point x="366" y="439" type="curve" smooth="yes"/>
      <point x="366" y="453"/>
      <point x="353" y="460"/>
      <point x="330" y="460" type="curve" smooth="yes"/>
      <point x="318" y="460"/>
      <point x="291" y="458"/>
      <point x="267" y="454" type="curve"/>
      <point x="251" y="481"/>
      <point x="245" y="510"/>
      <point x="245" y="537" type="curve" smooth="yes"/>
      <point x="245" y="623"/>
      <point x="304" y="686"/>
      <point x="386" y="686" type="curve" smooth="yes"/>
      <point x="441" y="686"/>
      <point x="483" y="658"/>
      <point x="483" y="613" type="curve" smooth="yes"/>
      <point x="483" y="578"/>
      <point x="457" y="558"/>
      <point x="421" y="558" type="curve"/>
    </contour>
  </outline>
</glyph>
<glyph name="quotesingle" format="1">
  <advance width="187"/>
  <unicode hex="0027"/>
  <outline>
    <contour>
      <point x="233" y="716"/>
      <point x="224" y="730"/>
      <point x="202" y="730" type="curve" smooth="yes"/>
      <point x="185" y="730"/>
      <point x="167" y="718"/>
      <point x="160" y="688" type="curve" smooth="yes"/>
      <point x="150" y="646"/>
      <point x="153" y="616"/>
      <point x="140" y="518" type="curve"/>
      <point x="154" y="518" type="line"/>
      <point x="194" y="612"/>
      <point x="233" y="652"/>
      <point x="233" y="697" type="curve" smooth="yes"/>
    </contour>
  </outline>
</glyph>
<glyph name="parenright" format="1">
  <advance width="361"/>
  <unicode hex="0029"/>
  <outline>
    <contour>
      <point x="145" y="793" type="line"/>
      <point x="221" y="686"/>
      <point x="255" y="556"/>
      <point x="255" y="412" type="curve" smooth="yes"/>
      <point x="255" y="160"/>
      <point x="109" y="-21"/>
      <point x="-111" y="-169" type="curve" smooth="yes"/>
      <point x="-101" y="-182" type="line"/>
      <point x="145" y="-44"/>
      <point x="332" y="178"/>
      <point x="332" y="401" type="curve" smooth="yes"/>
      <point x="332" y="577"/>
      <point x="265" y="691"/>
      <point x="163" y="806" type="curve"/>
    </contour>
  </outline>
</glyph>
<glyph name="asterisk" format="1">
  <advance width="495"/>
  <unicode hex="002A"/>
  <outline>
    <contour>
      <point x="304" y="518" type="line"/>
      <point x="299" y="589"/>
      <point x="293" y="637"/>
      <point x="299" y="675" type="curve" smooth="yes"/>
      <point x="308" y="715"/>
      <point x="330" y="729"/>
      <point x="348" y="729" type="curve" smooth="yes"/>
      <point x="366" y="729"/>
      <point x="381" y="715"/>
      <point x="372" y="675" type="curve" smooth="yes"/>
      <point x="366" y="637"/>
      <point x="340" y="593"/>
      <point x="307" y="518" type="curve"/>
    </contour>
    <contour>
      <point x="302" y="516" type="line"/>
      <point x="238" y="537"/>
      <point x="187" y="546"/>
      <point x="160" y="564" type="curve" smooth="yes"/>
      <point x="129" y="584"/>
      <point x="132" y="608"/>
      <point x="145" y="624" type="curve" smooth="yes"/>
      <point x="156" y="639"/>
      <point x="180" y="648"/>
      <point x="209" y="628" type="curve" smooth="yes"/>
      <point x="239" y="609"/>
      <point x="260" y="572"/>
      <point x="306" y="519" type="curve"/>
    </contour>
    <contour>
      <point x="304" y="516" type="line"/>
      <point x="242" y="466"/>
      <point x="200" y="426"/>
      <point x="165" y="407" type="curve"/>
      <point x="124" y="387"/>
      <point x="105" y="397"/>
      <point x="99" y="413" type="curve" smooth="yes"/>
      <point x="93" y="428"/>
      <point x="102" y="450"/>
      <point x="140" y="471" type="curve" smooth="yes"/>
      <point x="179" y="490"/>
      <point x="226" y="497"/>
      <point x="305" y="519" type="curve"/>
    </contour>
    <contour>
      <point x="308" y="518" type="line"/>
      <point x="310" y="447"/>
      <point x="316" y="398"/>
      <point x="311" y="361" type="curve" smooth="yes"/>
      <point x="301" y="321"/>
      <point x="279" y="307"/>
      <point x="260" y="307" type="curve" smooth="yes"/>
      <point x="243" y="307"/>
      <point x="228" y="320"/>
      <point x="237" y="361" type="curve" smooth="yes"/>
      <point x="243" y="399"/>
      <point x="269" y="443"/>
      <point x="305" y="518" type="curve"/>
    </contour>
    <contour>
      <point x="453" y="397"/>
      <point x="429" y="388"/>
      <point x="400" y="408" type="curve" smooth="yes"/>
      <point x="370" y="427"/>
      <point x="349" y="464"/>
      <point x="302" y="517" type="curve"/>
      <point x="307" y="520" type="line"/>
      <point x="371" y="499"/>
      <point x="422" y="490"/>
      <point x="449" y="472" type="curve" smooth="yes"/>
      <point x="480" y="452"/>
      <point x="477" y="428"/>
      <point x="464" y="412" type="curve" smooth="yes"/>
    </contour>
    <contour>
      <point x="516" y="608"/>
      <point x="507" y="585"/>
      <point x="469" y="565" type="curve" smooth="yes"/>
      <point x="430" y="546"/>
      <point x="383" y="539"/>
      <point x="303" y="517" type="curve"/>
      <point x="305" y="520" type="line"/>
      <point x="367" y="570"/>
      <point x="409" y="610"/>
      <point x="444" y="629" type="curve" smooth="yes"/>
      <point x="485" y="649"/>
      <point x="504" y="639"/>
      <point x="510" y="623" type="curve" smooth="yes"/>
    </contour>
  </outline>
</glyph>
<glyph name="plus" format="1">
  <advance width="585"/>
  <unicode hex="002B"/>
  <outline>
    <contour>
      <point x="54" y="340" type="line"/>
      <point x="287" y="340" type="line"/>
      <point x="220" y="105" type="line"/>
      <point x="256" y="105" type="line"/>
      <point x="323" y="340" type="line"/>
      <point x="555" y="340" type="line"/>
      <point x="564" y="370" type="line"/>
      <point x="332" y="370" type="line"/>
      <point x="399" y="606" type="line"/>
      <point x="363" y="606" type="line"/>
      <point x="296" y="370" type="line"/>
      <point x="63" y="370" type="line"/>
    </contour>
  </outline>
</glyph>
<glyph name="comma" format="1">
  <advance width="252"/>
  <unicode hex="002C"/>
  <outline>
    <contour>
      <point x="129" y="85"/>
      <point x="116" y="114"/>
      <point x="85" y="114" type="curve" smooth="yes"/>
      <point x="39" y="114"/>
      <point x="-7" y="64"/>
      <point x="-7" y="21" type="curve" smooth="yes"/>
      <point x="-7" y="0"/>
      <point x="7" y="-14"/>
      <point x="31" y="-14" type="curve" smooth="yes"/>
      <point x="49" y="-14"/>
      <point x="67" y="-3"/>
      <point x="83" y="11" type="curve"/>
      <point x="79" y="-34"/>
      <point x="40" y="-82"/>
      <point x="-23" y="-120" type="curve"/>
      <point x="-18" y="-134" type="line"/>
      <point x="74" y="-89"/>
      <point x="129" y="-14"/>
      <point x="129" y="55" type="curve" smooth="yes"/>
    </contour>
  </outline>
</glyph>
<glyph name="hyphen" format="1">
  <advance width="504"/>
  <unicode hex="002D"/>
  <outline>
    <contour>
      <point x="68" y="283" type="line"/>
      <point x="53" y="225" type="line"/>
      <point x="414" y="225" type="line"/>
      <point x="429" y="283" type="line"/>
    </contour>
  </outline>
</glyph>
<glyph name="period" format="1">
  <advance width="244"/>
  <unicode hex="002E"/>
  <outline>
    <contour>
      <point x="-1" y="37" type="curve" smooth="yes"/>
      <point x="-1" y="8"/>
      <point x="19" y="-14"/>
      <point x="49" y="-14" type="curve" smooth="yes"/>
      <point x="88" y="-14"/>
      <point x="124" y="22"/>
      <point x="124" y="62" type="curve" smooth="yes"/>
      <point x="124" y="91"/>
      <point x="104" y="114"/>
      <point x="73" y="114" type="curve" smooth="yes"/>
      <point x="35" y="114"/>
      <point x="-1" y="77"/>
    </contour>
  </outline>
</glyph>
<glyph name="slash" format="1">
  <advance width="468"/>
  <unicode hex="002F"/>
  <outline>
    <contour>
      <point x="-40" y="-14" type="line"/>
      <point x="-7" y="-14" type="line"/>
      <point x="541" y="722" type="line"/>
      <point x="508" y="722" type="line"/>
    </contour>
  </outline>
</glyph>
<glyph name="one" format="1">
  <advance width="342"/>
  <unicode hex="0031"/>
  <outline>
    <contour>
      <point x="294" y="526" type="line"/>
      <point x="240" y="482"/>
      <point x="178" y="431"/>
      <point x="53" y="393" type="curve"/>
      <point x="50" y="372" type="line"/>
      <point x="119" y="393"/>
      <point x="163" y="412"/>
      <point x="200" y="433" type="curve"/>
      <point x="72" y="0" type="line"/>
      <point x="159" y="0" type="line"/>
      <point x="314" y="526" type="line"/>
    </contour>
  </outline>
</glyph>
<glyph name="two" format="1">
  <advance width="503"/>
  <unicode hex="0032"/>
  <outline>
    <contour>
      <point x="179" y="528"/>
      <point x="76" y="432"/>
      <point x="76" y="344" type="curve" smooth="yes"/>
      <point x="76" y="288"/>
      <point x="118" y="276"/>
      <point x="151" y="276" type="curve" smooth="yes"/>
      <point x="184" y="276"/>
      <point x="225" y="289"/>
      <point x="262" y="324" type="curve"/>
      <point x="250" y="338" type="line"/>
      <point x="219" y="311"/>
      <point x="195" y="297"/>
      <point x="158" y="297" type="curve" smooth="yes"/>
      <point x="116" y="297"/>
      <point x="100" y="313"/>
      <point x="100" y="345" type="curve" smooth="yes"/>
      <point x="100" y="425"/>
      <point x="198" y="506"/>
      <point x="271" y="506" type="curve" smooth="yes"/>
      <point x="322" y="506"/>
      <point x="348" y="471"/>
      <point x="348" y="418" type="curve" smooth="yes"/>
      <point x="348" y="250"/>
      <point x="84" y="99"/>
      <point x="-16" y="21" type="curve"/>
      <point x="-21" y="0" type="line"/>
      <point x="20" y="17"/>
      <point x="49" y="26"/>
      <point x="99" y="24" type="curve" smooth="yes"/>
      <point x="171" y="21"/>
      <point x="220" y="-6"/>
      <point x="283" y="-6" type="curve" smooth="yes"/>
      <point x="372" y="-6"/>
      <point x="408" y="46"/>
      <point x="408" y="98" type="curve" smooth="yes"/>
      <point x="408" y="137"/>
      <point x="387" y="161"/>
      <point x="353" y="177" type="curve"/>
      <point x="340" y="164" type="line"/>
      <point x="368" y="151"/>
      <point x="384" y="133"/>
      <point x="384" y="107" type="curve" smooth="yes"/>
      <point x="384" y="75"/>
      <point x="360" y="59"/>
      <point x="315" y="59" type="curve" smooth="yes"/>
      <point x="256" y="59"/>
      <point x="159" y="87"/>
      <point x="103" y="87" type="curve"/>
      <point x="185" y="155"/>
      <point x="439" y="293"/>
      <point x="439" y="429" type="curve" smooth="yes"/>
      <point x="439" y="493"/>
      <point x="385" y="528"/>
      <point x="304" y="528" type="curve" smooth="yes"/>
    </contour>
  </outline>
</glyph>
<glyph name="four" format="1">
  <advance width="515"/>
  <unicode hex="0034"/>
  <outline>
    <contour>
      <point x="-45" y="55" type="line"/>
      <point x="-51" y="34" type="line"/>
      <point x="418" y="34" type="line"/>
      <point x="434" y="91" type="line"/>
      <point x="3" y="91" type="line"/>
      <point x="-28" y="45" type="line"/>
      <point x="391" y="503" type="line"/>
      <point x="391" y="529" type="line"/>
    </contour>
    <contour>
      <point x="391" y="529" type="line"/>
      <point x="300" y="418" type="line"/>
      <point x="151" y="-141" type="line"/>
      <point x="238" y="-141" type="line"/>
      <point x="417" y="529" type="line"/>
    </contour>
  </outline>
</glyph>
<glyph name="five" format="1">
  <advance width="459"/>
  <unicode hex="0035"/>
  <outline>
    <contour>
      <point x="407" y="504"/>
      <point x="377" y="493"/>
      <point x="344" y="493" type="curve" smooth="yes"/>
      <point x="275" y="493"/>
      <point x="255" y="521"/>
      <point x="201" y="518" type="curve"/>
      <point x="51" y="209" type="line"/>
      <point x="61" y="204" type="line"/>
      <point x="113" y="228"/>
      <point x="148" y="231"/>
      <point x="172" y="231" type="curve" smooth="yes"/>
      <point x="246" y="231"/>
      <point x="277" y="196"/>
      <point x="277" y="145" type="curve" smooth="yes"/>
      <point x="277" y="-34"/>
      <point x="77" y="-129"/>
      <point x="-76" y="-130" type="curve"/>
      <point x="-81" y="-148" type="line"/>
      <point x="91" y="-142"/>
      <point x="372" y="-50"/>
      <point x="372" y="147" type="curve" smooth="yes"/>
      <point x="372" y="212"/>
      <point x="326" y="261"/>
      <point x="219" y="261" type="curve" smooth="yes"/>
      <point x="161" y="261"/>
      <point x="119" y="248"/>
      <point x="79" y="227" type="curve"/>
      <point x="191" y="456" type="line"/>
      <point x="223" y="461"/>
      <point x="264" y="421"/>
      <point x="302" y="421" type="curve" smooth="yes"/>
      <point x="363" y="421"/>
      <point x="408" y="464"/>
      <point x="439" y="531" type="curve"/>
      <point x="427" y="538" type="line"/>
    </contour>
  </outline>
</glyph>
<glyph name="seven" format="1">
  <advance width="487"/>
  <unicode hex="0037"/>
  <outline>
    <contour>
      <point x="91" y="520"/>
      <point x="49" y="456"/>
      <point x="49" y="399" type="curve" smooth="yes"/>
      <point x="49" y="317"/>
      <point x="112" y="276"/>
      <point x="206" y="258" type="curve"/>
      <point x="212" y="273" type="line"/>
      <point x="117" y="296"/>
      <point x="73" y="332"/>
      <point x="73" y="388" type="curve" smooth="yes"/>
      <point x="73" y="433"/>
      <point x="109" y="455"/>
      <point x="159" y="455" type="curve" smooth="yes"/>
      <point x="218" y="455"/>
      <point x="255" y="426"/>
      <point x="333" y="426" type="curve" smooth="yes"/>
      <point x="392" y="426"/>
      <point x="457" y="444"/>
      <point x="507" y="490" type="curve"/>
      <point x="507" y="490"/>
      <point x="491" y="483"/>
      <point x="491" y="483" type="curve"/>
      <point x="390" y="353"/>
      <point x="114" y="93"/>
      <point x="82" y="-92" type="curve" smooth="yes"/>
      <point x="76" y="-125"/>
      <point x="80" y="-148"/>
      <point x="111" y="-148" type="curve" smooth="yes"/>
      <point x="143" y="-148"/>
      <point x="165" y="-124"/>
      <point x="173" y="-97" type="curve"/>
      <point x="178" y="-76"/>
      <point x="181" y="-50"/>
      <point x="190" y="-18" type="curve"/>
      <point x="253" y="219"/>
      <point x="435" y="372"/>
      <point x="541" y="514" type="curve"/>
      <point x="515" y="514" type="line"/>
      <point x="487" y="476"/>
      <point x="453" y="468"/>
      <point x="409" y="470" type="curve" smooth="yes"/>
      <point x="330" y="475"/>
      <point x="276" y="520"/>
      <point x="190" y="520" type="curve" smooth="yes"/>
    </contour>
  </outline>
</glyph>
<glyph name="nine" format="1">
  <advance width="513"/>
  <unicode hex="0039"/>
  <outline>
    <contour>
      <point x="163" y="528"/>
      <point x="29" y="383"/>
      <point x="29" y="226" type="curve" smooth="yes"/>
      <point x="29" y="129"/>
      <point x="80" y="76"/>
      <point x="155" y="76" type="curve" smooth="yes"/>
      <point x="214" y="76"/>
      <point x="286" y="108"/>
      <point x="322" y="221" type="curve"/>
      <point x="306" y="227" type="line"/>
      <point x="273" y="134"/>
      <point x="227" y="105"/>
      <point x="188" y="105" type="curve" smooth="yes"/>
      <point x="148" y="105"/>
      <point x="123" y="135"/>
      <point x="123" y="206" type="curve" smooth="yes"/>
      <point x="123" y="323"/>
      <point x="190" y="508"/>
      <point x="303" y="508" type="curve" smooth="yes"/>
      <point x="347" y="508"/>
      <point x="375" y="480"/>
      <point x="375" y="377" type="curve" smooth="yes"/>
      <point x="375" y="104"/>
      <point x="166" y="-125"/>
      <point x="-18" y="-168" type="curve"/>
      <point x="-12" y="-188" type="line"/>
      <point x="164" y="-156"/>
      <point x="466" y="55"/>
      <point x="466" y="349" type="curve" smooth="yes"/>
      <point x="466" y="467"/>
      <point x="420" y="528"/>
      <point x="319" y="528" type="curve" smooth="yes"/>
    </contour>
  </outline>
</glyph>
<glyph name="less" format="1">
  <advance width="602"/>
  <unicode hex="003C"/>
  <outline>
    <contour>
      <point x="51" y="355" type="line"/>
      <point x="441" y="145" type="line"/>
      <point x="457" y="177" type="line"/>
      <point x="126" y="351" type="line"/>
      <point x="613" y="553" type="line"/>
      <point x="603" y="582" type="line"/>
    </contour>
  </outline>
</glyph>
<glyph name="equal" format="1">
  <advance width="663"/>
  <unicode hex="003D"/>
  <outline>
    <contour>
      <point x="571" y="270" type="line"/>
      <point x="580" y="300" type="line"/>
      <point x="79" y="300" type="line"/>
      <point x="70" y="270" type="line"/>
    </contour>
    <contour>
      <point x="611" y="410" type="line"/>
      <point x="620" y="440" type="line"/>
      <point x="119" y="440" type="line"/>
      <point x="110" y="410" type="line"/>
    </contour>
  </outline>
</glyph>
<glyph name="greater" format="1">
  <advance width="602"/>
  <unicode hex="003E"/>
  <outline>
    <contour>
      <point x="62" y="155" type="line"/>
      <point x="587" y="372" type="line"/>
      <point x="158" y="603" type="line"/>
      <point x="142" y="574" type="line"/>
      <point x="512" y="376" type="line"/>
      <point x="52" y="184" type="line"/>
    </contour>
  </outline>
</glyph>
<glyph name="question" format="1">
  <advance width="438"/>
  <unicode hex="003F"/>
  <outline>
    <contour>
      <point x="374" y="765"/>
      <point x="402" y="725"/>
      <point x="402" y="671" type="curve" smooth="yes"/>
      <point x="402" y="608"/>
      <point x="364" y="570"/>
      <point x="272" y="500" type="curve" smooth="yes"/>
      <point x="171" y="424"/>
      <point x="86" y="371"/>
      <point x="86" y="285" type="curve" smooth="yes"/>
      <point x="86" y="221"/>
      <point x="133" y="188"/>
      <point x="201" y="188" type="curve" smooth="yes"/>
      <point x="274" y="188"/>
      <point x="369" y="227"/>
      <point x="369" y="290" type="curve" smooth="yes"/>
      <point x="369" y="316"/>
      <point x="353" y="325"/>
      <point x="335" y="325" type="curve" smooth="yes"/>
      <point x="308" y="325"/>
      <point x="290" y="304"/>
      <point x="290" y="284" type="curve" smooth="yes"/>
      <point x="289" y="266"/>
      <point x="304" y="250"/>
      <point x="316" y="249" type="curve"/>
      <point x="302" y="221"/>
      <point x="257" y="205"/>
      <point x="220" y="205" type="curve" smooth="yes"/>
      <point x="168" y="205"/>
      <point x="149" y="237"/>
      <point x="149" y="274" type="curve" smooth="yes"/>
      <point x="149" y="338"/>
      <point x="205" y="365"/>
      <point x="310" y="446" type="curve" smooth="yes"/>
      <point x="435" y="543"/>
      <point x="475" y="602"/>
      <point x="475" y="664" type="curve" smooth="yes"/>
      <point x="475" y="741"/>
      <point x="414" y="782"/>
      <point x="327" y="782" type="curve" smooth="yes"/>
      <point x="235" y="782"/>
      <point x="139" y="736"/>
      <point x="139" y="669" type="curve" smooth="yes"/>
      <point x="139" y="644"/>
      <point x="152" y="627"/>
      <point x="179" y="627" type="curve" smooth="yes"/>
      <point x="207" y="627"/>
      <point x="230" y="645"/>
      <point x="232" y="672" type="curve" smooth="yes"/>
      <point x="234" y="695"/>
      <point x="219" y="713"/>
      <point x="207" y="716" type="curve"/>
      <point x="218" y="750"/>
      <point x="273" y="765"/>
      <point x="311" y="765" type="curve" smooth="yes"/>
    </contour>
    <component base="period" xOffset="108"/>
  </outline>
</glyph>
<glyph name="at" format="1">
  <advance width="848"/>
  <unicode hex="0040"/>
  <outline>
    <contour>
      <point x="538" y="51"/>
      <point x="531" y="66"/>
      <point x="544" y="111" type="curve" smooth="yes"/>
      <point x="650" y="478" type="line"/>
      <point x="624" y="467"/>
      <point x="591" y="464"/>
      <point x="560" y="464" type="curve"/>
      <point x="477" y="166" type="line" smooth="yes"/>
      <point x="469" y="136"/>
      <point x="426" y="26"/>
      <point x="534" y="26" type="curve" smooth="yes"/>
      <point x="651" y="26"/>
      <point x="824" y="168"/>
      <point x="824" y="393" type="curve" smooth="yes"/>
      <point x="824" y="588"/>
      <point x="686" y="668"/>
      <point x="512" y="668" type="curve" smooth="yes"/>
      <point x="243" y="668"/>
      <point x="29" y="412"/>
      <point x="29" y="143" type="curve" smooth="yes"/>
      <point x="29" y="-69"/>
      <point x="162" y="-161"/>
      <point x="348" y="-161" type="curve" smooth="yes"/>
      <point x="437" y="-161"/>
      <point x="512" y="-137"/>
      <point x="562" y="-102" type="curve"/>
      <point x="555" y="-89" type="line"/>
      <point x="490" y="-128"/>
      <point x="421" y="-143"/>
      <point x="349" y="-143" type="curve" smooth="yes"/>
      <point x="177" y="-143"/>
      <point x="49" y="-61"/>
      <point x="49" y="145" type="curve" smooth="yes"/>
      <point x="49" y="416"/>
      <point x="268" y="650"/>
      <point x="513" y="650" type="curve" smooth="yes"/>
      <point x="670" y="650"/>
      <point x="804" y="579"/>
      <point x="804" y="394" type="curve" smooth="yes"/>
      <point x="804" y="173"/>
      <point x="634" y="51"/>
      <point x="567" y="51" type="curve" smooth="yes"/>
    </contour>
    <contour>
      <point x="508" y="274" type="line"/>
      <point x="455" y="131"/>
      <point x="409" y="56"/>
      <point x="357" y="56" type="curve" smooth="yes"/>
      <point x="323" y="56"/>
      <point x="305" y="87"/>
      <point x="305" y="153" type="curve" smooth="yes"/>
      <point x="305" y="293"/>
      <point x="387" y="455"/>
      <point x="484" y="455" type="curve" smooth="yes"/>
      <point x="518" y="455"/>
      <point x="538" y="435"/>
      <point x="538" y="383" type="curve"/>
      <point x="546" y="387" type="line"/>
      <point x="550" y="454"/>
      <point x="525" y="478"/>
      <point x="480" y="478" type="curve" smooth="yes"/>
      <point x="356" y="478"/>
      <point x="220" y="299"/>
      <point x="220" y="147" type="curve" smooth="yes"/>
      <point x="220" y="79"/>
      <point x="247" y="26"/>
      <point x="323" y="26" type="curve" smooth="yes"/>
      <point x="414" y="26"/>
      <point x="462" y="102"/>
      <point x="516" y="258" type="curve"/>
    </contour>
  </outline>
</glyph>
<glyph name="A" format="1">
  <advance width="629"/>
  <unicode hex="0041"/>
  <outline>
    <contour>
      <point x="390" y="600" type="line"/>
      <point x="383" y="598" type="line"/>
      <point x="410" y="104" type="line" smooth="yes"/>
      <point x="413" y="36"/>
      <point x="388" y="23"/>
      <point x="324" y="20" type="curve"/>
      <point x="320" y="0" type="line"/>
      <point x="346" y="2"/>
      <point x="392" y="3"/>
      <point x="440" y="3" type="curve" smooth="yes"/>
      <point x="478" y="3"/>
      <point x="522" y="2"/>
      <point x="549" y="0" type="curve"/>
      <point x="553" y="20" type="line"/>
      <point x="533" y="21"/>
      <point x="508" y="36"/>
      <point x="504" y="84" type="curve" smooth="yes"/>
      <point x="464" y="713" type="line"/>
      <point x="459" y="713"/>
      <point x="454" y="713"/>
      <point x="449" y="713" type="curve"/>
      <point x="18" y="107" type="line" smooth="yes"/>
      <point x="-23" y="49"/>
      <point x="-55" y="26"/>
      <point x="-82" y="20" type="curve"/>
      <point x="-87" y="0" type="line"/>
      <point x="-66" y="2"/>
      <point x="-46" y="3"/>
      <point x="-12" y="3" type="curve" smooth="yes"/>
      <point x="23" y="3"/>
      <point x="65" y="2"/>
      <point x="102" y="0" type="curve"/>
      <point x="107" y="20" type="line"/>
      <point x="24" y="22"/>
      <point x="6" y="57"/>
      <point x="80" y="162" type="curve" smooth="yes"/>
    </contour>
    <contour>
      <point x="142" y="268" type="line"/>
      <point x="444" y="268" type="line"/>
      <point x="452" y="288" type="line"/>
      <point x="160" y="288" type="line"/>
    </contour>
    <contour>
      <point x="538" y="0" type="move" name="ogonek"/>
    </contour>
    <contour>
      <point x="455" y="708" type="move" name="top"/>
    </contour>
  </outline>
</glyph>
<glyph name="B" format="1">
  <advance width="632"/>
  <unicode hex="0042"/>
  <outline>
    <contour>
      <point x="362" y="707"/>
      <point x="317" y="705"/>
      <point x="271" y="705" type="curve" smooth="yes"/>
      <point x="227" y="705"/>
      <point x="179" y="706"/>
      <point x="152" y="708" type="curve"/>
      <point x="147" y="688" type="line"/>
      <point x="225" y="687"/>
      <point x="220" y="661"/>
      <point x="206" y="602" type="curve" smooth="yes"/>
      <point x="74" y="106" type="line" smooth="yes"/>
      <point x="55" y="33"/>
      <point x="39" y="23"/>
      <point x="-29" y="20" type="curve"/>
      <point x="-33" y="0" type="line"/>
      <point x="-5" y="2"/>
      <point x="42" y="3"/>
      <point x="89" y="3" type="curve" smooth="yes"/>
      <point x="158" y="3"/>
      <point x="210" y="0"/>
      <point x="261" y="0" type="curve" smooth="yes"/>
      <point x="405" y="0"/>
      <point x="559" y="68"/>
      <point x="559" y="211" type="curve" smooth="yes"/>
      <point x="559" y="289"/>
      <point x="517" y="354"/>
      <point x="395" y="374" type="curve"/>
      <point x="497" y="406"/>
      <point x="600" y="476"/>
      <point x="600" y="579" type="curve" smooth="yes"/>
      <point x="600" y="656"/>
      <point x="539" y="707"/>
      <point x="412" y="707" type="curve" smooth="yes"/>
    </contour>
    <contour>
      <point x="316" y="359" type="line" smooth="yes"/>
      <point x="416" y="359"/>
      <point x="459" y="310"/>
      <point x="459" y="226" type="curve" smooth="yes"/>
      <point x="459" y="97"/>
      <point x="393" y="23"/>
      <point x="218" y="23" type="curve" smooth="yes"/>
      <point x="150" y="23"/>
      <point x="151" y="45"/>
      <point x="167" y="106" type="curve" smooth="yes"/>
      <point x="302" y="617" type="line" smooth="yes"/>
      <point x="317" y="675"/>
      <point x="334" y="688"/>
      <point x="393" y="688" type="curve" smooth="yes"/>
      <point x="469" y="688"/>
      <point x="501" y="650"/>
      <point x="501" y="572" type="curve" smooth="yes"/>
      <point x="501" y="469"/>
      <point x="425" y="376"/>
      <point x="304" y="376" type="curve" smooth="yes"/>
      <point x="226" y="376" type="line"/>
      <point x="226" y="376"/>
      <point x="222" y="359"/>
      <point x="222" y="359" type="curve"/>
    </contour>
    <contour>
      <point x="403" y="708" type="move" name="top"/>
    </contour>
  </outline>
</glyph>
<glyph name="C" format="1">
  <advance width="670"/>
  <unicode hex="0043"/>
  <outline>
    <contour>
      <point x="691" y="708" type="line"/>
      <point x="669" y="649"/>
      <point x="654" y="638"/>
      <point x="636" y="657" type="curve" smooth="yes"/>
      <point x="605" y="690"/>
      <point x="573" y="722"/>
      <point x="487" y="722" type="curve" smooth="yes"/>
      <point x="235" y="722"/>
      <point x="51" y="448"/>
      <point x="51" y="221" type="curve" smooth="yes"/>
      <point x="51" y="66"/>
      <point x="137" y="-14"/>
      <point x="284" y="-14" type="curve" smooth="yes"/>
      <point x="372" y="-14"/>
      <point x="418" y="15"/>
      <point x="473" y="51" type="curve" smooth="yes"/>
      <point x="495" y="65"/>
      <point x="506" y="64"/>
      <point x="506" y="34" type="curve" smooth="yes"/>
      <point x="506" y="25"/>
      <point x="505" y="14"/>
      <point x="503" y="0" type="curve"/>
      <point x="525" y="0" type="line"/>
      <point x="534" y="51"/>
      <point x="551" y="119"/>
      <point x="584" y="240" type="curve"/>
      <point x="562" y="240" type="line"/>
      <point x="530" y="162"/>
      <point x="508" y="118"/>
      <point x="472" y="82" type="curve" smooth="yes"/>
      <point x="422" y="31"/>
      <point x="350" y="4"/>
      <point x="294" y="4" type="curve" smooth="yes"/>
      <point x="206" y="4"/>
      <point x="151" y="69"/>
      <point x="151" y="200" type="curve" smooth="yes"/>
      <point x="151" y="423"/>
      <point x="312" y="704"/>
      <point x="485" y="704" type="curve" smooth="yes"/>
      <point x="540" y="704"/>
      <point x="591" y="676"/>
      <point x="616" y="626" type="curve" smooth="yes"/>
      <point x="633" y="592"/>
      <point x="636" y="547"/>
      <point x="626" y="478" type="curve"/>
      <point x="648" y="478" type="line"/>
      <point x="671" y="585"/>
      <point x="692" y="656"/>
      <point x="712" y="708" type="curve"/>
    </contour>
    <contour>
      <point x="288" y="0" type="move" name="bottom"/>
    </contour>
    <contour>
      <point x="491" y="708" type="move" name="top"/>
    </contour>
  </outline>
</glyph>
<glyph name="D" format="1">
  <advance width="725"/>
  <unicode hex="0044"/>
  <outline>
    <contour>
      <point x="704" y="631"/>
      <point x="611" y="708"/>
      <point x="422" y="708" type="curve" smooth="yes"/>
      <point x="384" y="708"/>
      <point x="317" y="706"/>
      <point x="271" y="705" type="curve" smooth="yes"/>
      <point x="227" y="704"/>
      <point x="177" y="706"/>
      <point x="149" y="708" type="curve"/>
      <point x="146" y="688" type="line"/>
      <point x="220" y="686"/>
      <point x="221" y="668"/>
      <point x="204" y="602" type="curve" smooth="yes"/>
      <point x="73" y="106" type="line" smooth="yes"/>
      <point x="54" y="33"/>
      <point x="37" y="23"/>
      <point x="-27" y="20" type="curve"/>
      <point x="-30" y="0" type="line"/>
      <point x="-4" y="2"/>
      <point x="43" y="3"/>
      <point x="90" y="3" type="curve" smooth="yes"/>
      <point x="133" y="3"/>
      <point x="200" y="0"/>
      <point x="230" y="0" type="curve" smooth="yes"/>
      <point x="505" y="0"/>
      <point x="704" y="237"/>
      <point x="704" y="487" type="curve" smooth="yes"/>
    </contour>
    <contour>
      <point x="147" y="18"/>
      <point x="150" y="45"/>
      <point x="166" y="104" type="curve" smooth="yes"/>
      <point x="297" y="604" type="line" smooth="yes"/>
      <point x="315" y="673"/>
      <point x="333" y="690"/>
      <point x="394" y="690" type="curve" smooth="yes"/>
      <point x="546" y="690"/>
      <point x="608" y="631"/>
      <point x="608" y="512" type="curve" smooth="yes"/>
      <point x="608" y="252"/>
      <point x="475" y="18"/>
      <point x="218" y="18" type="curve" smooth="yes"/>
    </contour>
    <contour>
      <point x="363" y="354" type="move" name="center"/>
    </contour>
    <contour>
      <point x="66" y="345" type="move" name="centre"/>
    </contour>
    <contour>
      <point x="410" y="708" type="move" name="top"/>
    </contour>
  </outline>
</glyph>
<glyph name="E" format="1">
  <advance width="610"/>
  <unicode hex="0045"/>
  <outline>
    <contour>
      <point x="383" y="346" type="line"/>
      <point x="389" y="366" type="line"/>
      <point x="206" y="366" type="line"/>
      <point x="200" y="346" type="line"/>
    </contour>
    <contour>
      <point x="296" y="346" type="line"/>
      <point x="383" y="346"/>
      <point x="366" y="278"/>
      <point x="357" y="214" type="curve"/>
      <point x="380" y="214" type="line"/>
      <point x="395" y="290"/>
      <point x="403" y="323"/>
      <point x="412" y="356" type="curve" smooth="yes"/>
      <point x="421" y="389"/>
      <point x="428" y="422"/>
      <point x="453" y="498" type="curve"/>
      <point x="430" y="498" type="line"/>
      <point x="409" y="450"/>
      <point x="389" y="366"/>
      <point x="302" y="366" type="curve"/>
    </contour>
    <contour>
      <point x="590" y="528" type="line"/>
      <point x="592" y="543"/>
      <point x="597" y="566"/>
      <point x="604" y="590" type="curve" smooth="yes"/>
      <point x="610" y="613"/>
      <point x="625" y="661"/>
      <point x="642" y="708" type="curve"/>
      <point x="583" y="705"/>
      <point x="501" y="705"/>
      <point x="443" y="705" type="curve" smooth="yes"/>
      <point x="383" y="705"/>
      <point x="251" y="705"/>
      <point x="153" y="708" type="curve"/>
      <point x="148" y="688" type="line"/>
      <point x="215" y="685"/>
      <point x="226" y="675"/>
      <point x="206" y="602" type="curve" smooth="yes"/>
      <point x="73" y="106" type="line" smooth="yes"/>
      <point x="53" y="33"/>
      <point x="38" y="23"/>
      <point x="-30" y="20" type="curve"/>
      <point x="-35" y="0" type="line"/>
      <point x="62" y="3"/>
      <point x="194" y="3"/>
      <point x="254" y="3" type="curve" smooth="yes"/>
      <point x="321" y="3"/>
      <point x="415" y="3"/>
      <point x="483" y="0" type="curve"/>
      <point x="491" y="51"/>
      <point x="503" y="103"/>
      <point x="510" y="128" type="curve" smooth="yes"/>
      <point x="517" y="156"/>
      <point x="525" y="182"/>
      <point x="532" y="200" type="curve"/>
      <point x="509" y="200" type="line"/>
      <point x="460" y="68"/>
      <point x="423" y="23"/>
      <point x="298" y="23" type="curve" smooth="yes"/>
      <point x="225" y="23" type="line" smooth="yes"/>
      <point x="157" y="23"/>
      <point x="146" y="33"/>
      <point x="166" y="106" type="curve" smooth="yes"/>
      <point x="299" y="602" type="line" smooth="yes"/>
      <point x="319" y="675"/>
      <point x="334" y="685"/>
      <point x="402" y="685" type="curve" smooth="yes"/>
      <point x="475" y="685" type="line" smooth="yes"/>
      <point x="581" y="685"/>
      <point x="586" y="646"/>
      <point x="567" y="528" type="curve"/>
    </contour>
    <contour>
      <point x="265" y="0" type="move" name="bottom"/>
    </contour>
    <contour>
      <point x="469" y="0" type="move" name="ogonek"/>
    </contour>
    <contour>
      <point x="420" y="708" type="move" name="top"/>
    </contour>
  </outline>
</glyph>
<glyph name="F" format="1">
  <advance width="566"/>
  <unicode hex="0046"/>
  <outline>
    <contour>
      <point x="398" y="336" type="line"/>
      <point x="403" y="356" type="line"/>
      <point x="203" y="356" type="line"/>
      <point x="198" y="336" type="line"/>
    </contour>
    <contour>
      <point x="582" y="498" type="line"/>
      <point x="586" y="519"/>
      <point x="592" y="548"/>
      <point x="601" y="580" type="curve" smooth="yes"/>
      <point x="608" y="605"/>
      <point x="624" y="657"/>
      <point x="642" y="708" type="curve"/>
      <point x="583" y="705"/>
      <point x="501" y="705"/>
      <point x="443" y="705" type="curve" smooth="yes"/>
      <point x="383" y="705"/>
      <point x="251" y="705"/>
      <point x="153" y="708" type="curve"/>
      <point x="148" y="688" type="line"/>
      <point x="215" y="685"/>
      <point x="226" y="675"/>
      <point x="206" y="602" type="curve" smooth="yes"/>
      <point x="73" y="106" type="line" smooth="yes"/>
      <point x="53" y="33"/>
      <point x="38" y="23"/>
      <point x="-30" y="20" type="curve"/>
      <point x="-35" y="0" type="line"/>
      <point x="-7" y="2"/>
      <point x="40" y="3"/>
      <point x="92" y="3" type="curve" smooth="yes"/>
      <point x="146" y="3"/>
      <point x="204" y="2"/>
      <point x="239" y="0" type="curve"/>
      <point x="244" y="20" type="line"/>
      <point x="161" y="23"/>
      <point x="146" y="33"/>
      <point x="166" y="106" type="curve" smooth="yes"/>
      <point x="299" y="602" type="line" smooth="yes"/>
      <point x="319" y="675"/>
      <point x="334" y="685"/>
      <point x="402" y="685" type="curve" smooth="yes"/>
      <point x="455" y="685" type="line" smooth="yes"/>
      <point x="580" y="685"/>
      <point x="582" y="637"/>
      <point x="559" y="498" type="curve"/>
    </contour>
    <contour>
      <point x="301" y="336" type="line"/>
      <point x="388" y="336"/>
      <point x="370" y="268"/>
      <point x="361" y="204" type="curve"/>
      <point x="384" y="204" type="line"/>
      <point x="400" y="280"/>
      <point x="408" y="313"/>
      <point x="416" y="346" type="curve" smooth="yes"/>
      <point x="425" y="379"/>
      <point x="432" y="412"/>
      <point x="457" y="488" type="curve"/>
      <point x="434" y="488" type="line"/>
      <point x="414" y="440"/>
      <point x="393" y="356"/>
      <point x="306" y="356" type="curve"/>
    </contour>
  </outline>
</glyph>
<glyph name="G" format="1">
  <advance width="705"/>
  <unicode hex="0047"/>
  <outline>
    <contour>
      <point x="199" y="6"/>
      <point x="143" y="62"/>
      <point x="143" y="182" type="curve" smooth="yes"/>
      <point x="143" y="369"/>
      <point x="260" y="704"/>
      <point x="482" y="704" type="curve" smooth="yes"/>
      <point x="549" y="704"/>
      <point x="608" y="675"/>
      <point x="636" y="626" type="curve" smooth="yes"/>
      <point x="647" y="605"/>
      <point x="650" y="581"/>
      <point x="650" y="553" type="curve" smooth="yes"/>
      <point x="650" y="529"/>
      <point x="648" y="504"/>
      <point x="645" y="478" type="curve"/>
      <point x="667" y="478" type="line"/>
      <point x="690" y="585"/>
      <point x="711" y="656"/>
      <point x="731" y="708" type="curve"/>
      <point x="709" y="708" type="line"/>
      <point x="688" y="647"/>
      <point x="672" y="637"/>
      <point x="652" y="657" type="curve" smooth="yes"/>
      <point x="615" y="693"/>
      <point x="575" y="722"/>
      <point x="488" y="722" type="curve" smooth="yes"/>
      <point x="227" y="722"/>
      <point x="50" y="441"/>
      <point x="50" y="215" type="curve" smooth="yes"/>
      <point x="50" y="69"/>
      <point x="138" y="-14"/>
      <point x="302" y="-14" type="curve" smooth="yes"/>
      <point x="367" y="-14"/>
      <point x="420" y="7"/>
      <point x="472" y="40" type="curve" smooth="yes"/>
      <point x="496" y="55"/>
      <point x="502" y="57"/>
      <point x="510" y="57" type="curve" smooth="yes"/>
      <point x="527" y="57"/>
      <point x="527" y="23"/>
      <point x="522" y="0" type="curve"/>
      <point x="542" y="0" type="line"/>
      <point x="595" y="198" type="line" smooth="yes"/>
      <point x="615" y="272"/>
      <point x="624" y="281"/>
      <point x="669" y="284" type="curve"/>
      <point x="674" y="304" type="line"/>
      <point x="650" y="302"/>
      <point x="613" y="301"/>
      <point x="569" y="301" type="curve" smooth="yes"/>
      <point x="524" y="301"/>
      <point x="464" y="302"/>
      <point x="429" y="304" type="curve"/>
      <point x="424" y="284" type="line"/>
      <point x="507" y="281"/>
      <point x="520" y="269"/>
      <point x="499" y="188" type="curve" smooth="yes"/>
      <point x="476" y="100" type="line" smooth="yes"/>
      <point x="469" y="75"/>
      <point x="459" y="54"/>
      <point x="430" y="37" type="curve" smooth="yes"/>
      <point x="406" y="23"/>
      <point x="364" y="6"/>
      <point x="316" y="6" type="curve" smooth="yes"/>
    </contour>
    <contour>
      <point x="310" y="0" type="move" name="bottom"/>
    </contour>
    <contour>
      <point x="488" y="708" type="move" name="top"/>
    </contour>
  </outline>
</glyph>
<glyph name="H" format="1">
  <advance width="755"/>
  <unicode hex="0048"/>
  <outline>
    <contour>
      <point x="563" y="346" type="line"/>
      <point x="563" y="346"/>
      <point x="571" y="366"/>
      <point x="571" y="366" type="curve"/>
      <point x="218" y="366" type="line"/>
      <point x="211" y="346" type="line"/>
    </contour>
    <contour>
      <point x="487" y="106" type="line" smooth="yes"/>
      <point x="468" y="33"/>
      <point x="452" y="23"/>
      <point x="384" y="20" type="curve"/>
      <point x="380" y="0" type="line"/>
      <point x="411" y="2"/>
      <point x="461" y="3"/>
      <point x="507" y="3" type="curve" smooth="yes"/>
      <point x="559" y="3"/>
      <point x="607" y="2"/>
      <point x="635" y="0" type="curve"/>
      <point x="639" y="20" type="line"/>
      <point x="571" y="23"/>
      <point x="561" y="33"/>
      <point x="580" y="106" type="curve" smooth="yes"/>
      <point x="712" y="602" type="line" smooth="yes"/>
      <point x="731" y="675"/>
      <point x="746" y="685"/>
      <point x="815" y="688" type="curve"/>
      <point x="820" y="708" type="line"/>
      <point x="791" y="706"/>
      <point x="743" y="705"/>
      <point x="691" y="705" type="curve" smooth="yes"/>
      <point x="645" y="705"/>
      <point x="595" y="706"/>
      <point x="565" y="708" type="curve"/>
      <point x="560" y="688" type="line"/>
      <point x="627" y="685"/>
      <point x="639" y="675"/>
      <point x="619" y="602" type="curve" smooth="yes"/>
    </contour>
    <contour>
      <point x="298" y="602" type="line" smooth="yes"/>
      <point x="317" y="675"/>
      <point x="332" y="685"/>
      <point x="401" y="688" type="curve"/>
      <point x="406" y="708" type="line"/>
      <point x="374" y="706"/>
      <point x="324" y="705"/>
      <point x="278" y="705" type="curve" smooth="yes"/>
      <point x="226" y="705"/>
      <point x="178" y="706"/>
      <point x="151" y="708" type="curve"/>
      <point x="146" y="688" type="line"/>
      <point x="213" y="685"/>
      <point x="224" y="675"/>
      <point x="205" y="602" type="curve" smooth="yes"/>
      <point x="73" y="106" type="line" smooth="yes"/>
      <point x="54" y="33"/>
      <point x="38" y="23"/>
      <point x="-28" y="20" type="curve"/>
      <point x="-33" y="0" type="line"/>
      <point x="-4" y="2"/>
      <point x="42" y="3"/>
      <point x="94" y="3" type="curve" smooth="yes"/>
      <point x="140" y="3"/>
      <point x="190" y="2"/>
      <point x="221" y="0" type="curve"/>
      <point x="225" y="20" type="line"/>
      <point x="157" y="23"/>
      <point x="147" y="33"/>
      <point x="166" y="106" type="curve" smooth="yes"/>
    </contour>
    <contour>
      <point x="378" y="354" type="move" name="center"/>
    </contour>
    <contour>
      <point x="487" y="708" type="move" name="top"/>
    </contour>
  </outline>
</glyph>
<glyph name="J" format="1">
  <advance width="636"/>
  <unicode hex="004A"/>
  <outline>
    <contour>
      <point x="240" y="366" type="line"/>
      <point x="240" y="366"/>
      <point x="237" y="346"/>
      <point x="237" y="346" type="curve"/>
      <point x="558" y="346" type="line"/>
      <point x="558" y="346"/>
      <point x="561" y="366"/>
      <point x="561" y="366" type="curve"/>
    </contour>
    <contour>
      <point x="520" y="603"/>
      <point x="589" y="630"/>
      <point x="653" y="663" type="curve"/>
      <point x="512" y="562"/>
      <point x="393" y="461"/>
      <point x="342" y="262" type="curve" smooth="yes"/>
      <point x="312" y="145" type="line" smooth="yes"/>
      <point x="271" y="-13"/>
      <point x="247" y="-172"/>
      <point x="137" y="-172" type="curve" smooth="yes"/>
      <point x="123" y="-172"/>
      <point x="111" y="-170"/>
      <point x="102" y="-167" type="curve"/>
      <point x="124" y="-157"/>
      <point x="143" y="-138"/>
      <point x="142" y="-114" type="curve" smooth="yes"/>
      <point x="141" y="-92"/>
      <point x="124" y="-74"/>
      <point x="100" y="-74" type="curve" smooth="yes"/>
      <point x="67" y="-74"/>
      <point x="44" y="-104"/>
      <point x="45" y="-133" type="curve" smooth="yes"/>
      <point x="46" y="-170"/>
      <point x="88" y="-188"/>
      <point x="147" y="-188" type="curve" smooth="yes"/>
      <point x="273" y="-188"/>
      <point x="348" y="-71"/>
      <point x="383" y="65" type="curve" smooth="yes"/>
      <point x="445" y="307" type="line" smooth="yes"/>
      <point x="485" y="462"/>
      <point x="556" y="590"/>
      <point x="670" y="666" type="curve"/>
      <point x="741" y="693"/>
      <point x="753" y="716"/>
      <point x="737" y="730" type="curve" smooth="yes"/>
      <point x="717" y="747"/>
      <point x="689" y="720"/>
      <point x="661" y="677" type="curve"/>
      <point x="596" y="650"/>
      <point x="552" y="632"/>
      <point x="484" y="632" type="curve" smooth="yes"/>
      <point x="377" y="632"/>
      <point x="331" y="739"/>
      <point x="221" y="739" type="curve" smooth="yes"/>
      <point x="146" y="739"/>
      <point x="102" y="687"/>
      <point x="105" y="616" type="curve" smooth="yes"/>
      <point x="107" y="539"/>
      <point x="163" y="509"/>
      <point x="215" y="500" type="curve"/>
      <point x="215" y="500"/>
      <point x="218" y="520"/>
      <point x="218" y="520" type="curve"/>
      <point x="172" y="529"/>
      <point x="145" y="553"/>
      <point x="144" y="593" type="curve" smooth="yes"/>
      <point x="142" y="634"/>
      <point x="164" y="659"/>
      <point x="209" y="659" type="curve" smooth="yes"/>
      <point x="307" y="659"/>
      <point x="358" y="603"/>
      <point x="455" y="603" type="curve" smooth="yes"/>
    </contour>
    <contour>
      <point x="480" y="708" type="move" name="top"/>
    </contour>
  </outline>
</glyph>
<glyph name="K" format="1">
  <advance width="675"/>
  <unicode hex="004B"/>
  <outline>
    <contour>
      <point x="298" y="602" type="line" smooth="yes"/>
      <point x="317" y="675"/>
      <point x="332" y="685"/>
      <point x="401" y="688" type="curve"/>
      <point x="406" y="708" type="line"/>
      <point x="374" y="706"/>
      <point x="324" y="705"/>
      <point x="278" y="705" type="curve" smooth="yes"/>
      <point x="226" y="705"/>
      <point x="178" y="706"/>
      <point x="151" y="708" type="curve"/>
      <point x="146" y="688" type="line"/>
      <point x="213" y="685"/>
      <point x="224" y="675"/>
      <point x="205" y="602" type="curve" smooth="yes"/>
      <point x="73" y="106" type="line" smooth="yes"/>
      <point x="54" y="33"/>
      <point x="38" y="23"/>
      <point x="-28" y="20" type="curve"/>
      <point x="-33" y="0" type="line"/>
      <point x="-4" y="2"/>
      <point x="42" y="3"/>
      <point x="94" y="3" type="curve" smooth="yes"/>
      <point x="140" y="3"/>
      <point x="190" y="2"/>
      <point x="221" y="0" type="curve"/>
      <point x="225" y="20" type="line"/>
      <point x="157" y="23"/>
      <point x="147" y="33"/>
      <point x="166" y="106" type="curve" smooth="yes"/>
    </contour>
    <contour>
      <point x="470" y="41"/>
      <point x="468" y="62"/>
      <point x="469" y="92" type="curve" smooth="yes"/>
      <point x="473" y="205" type="line" smooth="yes"/>
      <point x="478" y="353"/>
      <point x="421" y="359"/>
      <point x="343" y="375" type="curve"/>
      <point x="341" y="365" type="line"/>
      <point x="374" y="340"/>
      <point x="391" y="318"/>
      <point x="385" y="215" type="curve" smooth="yes"/>
      <point x="378" y="102" type="line" smooth="yes"/>
      <point x="373" y="27"/>
      <point x="399" y="-14"/>
      <point x="462" y="-14" type="curve" smooth="yes"/>
      <point x="519" y="-14"/>
      <point x="559" y="19"/>
      <point x="584" y="93" type="curve" smooth="yes"/>
      <point x="610" y="170" type="line"/>
      <point x="590" y="170" type="line"/>
      <point x="573" y="119" type="line" smooth="yes"/>
      <point x="554" y="65"/>
      <point x="533" y="41"/>
      <point x="499" y="41" type="curve" smooth="yes"/>
    </contour>
    <contour>
      <point x="355" y="378" type="line"/>
      <point x="281" y="398"/>
      <point x="261" y="388"/>
      <point x="261" y="369" type="curve" smooth="yes"/>
      <point x="261" y="350"/>
      <point x="281" y="340"/>
      <point x="355" y="360" type="curve"/>
    </contour>
    <contour>
      <point x="613" y="695"/>
      <point x="622" y="700"/>
      <point x="639" y="701" type="curve" smooth="yes"/>
      <point x="640" y="701"/>
      <point x="641" y="701"/>
      <point x="642" y="701" type="curve"/>
      <point x="625" y="685"/>
      <point x="611" y="661"/>
      <point x="610" y="642" type="curve" smooth="yes"/>
      <point x="609" y="621"/>
      <point x="619" y="599"/>
      <point x="649" y="599" type="curve" smooth="yes"/>
      <point x="689" y="599"/>
      <point x="705" y="639"/>
      <point x="707" y="663" type="curve" smooth="yes"/>
      <point x="709" y="695"/>
      <point x="694" y="722"/>
      <point x="648" y="722" type="curve" smooth="yes"/>
      <point x="630" y="722"/>
      <point x="611" y="717"/>
      <point x="588" y="699" type="curve" smooth="yes"/>
      <point x="506" y="630"/>
      <point x="526" y="393"/>
      <point x="344" y="378" type="curve"/>
      <point x="342" y="368" type="line"/>
      <point x="539" y="365"/>
      <point x="527" y="618"/>
      <point x="603" y="687" type="curve" smooth="yes"/>
    </contour>
    <contour>
      <point x="262" y="0" type="move" name="bottom"/>
    </contour>
    <contour>
      <point x="450" y="708" type="move" name="top"/>
    </contour>
  </outline>
</glyph>
<glyph name="L" format="1">
  <advance width="586"/>
  <unicode hex="004C"/>
  <outline>
    <contour>
      <point x="512" y="210" type="line"/>
      <point x="461" y="71"/>
      <point x="423" y="23"/>
      <point x="298" y="23" type="curve" smooth="yes"/>
      <point x="225" y="23" type="line" smooth="yes"/>
      <point x="157" y="23"/>
      <point x="146" y="33"/>
      <point x="166" y="106" type="curve" smooth="yes"/>
      <point x="299" y="602" type="line" smooth="yes"/>
      <point x="319" y="675"/>
      <point x="334" y="685"/>
      <point x="403" y="688" type="curve"/>
      <point x="408" y="708" type="line"/>
      <point x="377" y="706"/>
      <point x="327" y="705"/>
      <point x="281" y="705" type="curve" smooth="yes"/>
      <point x="229" y="705"/>
      <point x="181" y="706"/>
      <point x="153" y="708" type="curve"/>
      <point x="148" y="688" type="line"/>
      <point x="215" y="685"/>
      <point x="226" y="675"/>
      <point x="206" y="602" type="curve" smooth="yes"/>
      <point x="73" y="106" type="line" smooth="yes"/>
      <point x="53" y="33"/>
      <point x="38" y="23"/>
      <point x="-30" y="20" type="curve"/>
      <point x="-35" y="0" type="line"/>
      <point x="62" y="3"/>
      <point x="194" y="3"/>
      <point x="254" y="3" type="curve" smooth="yes"/>
      <point x="321" y="3"/>
      <point x="415" y="3"/>
      <point x="483" y="0" type="curve"/>
      <point x="491" y="51"/>
      <point x="503" y="103"/>
      <point x="510" y="128" type="curve" smooth="yes"/>
      <point x="519" y="160"/>
      <point x="527" y="189"/>
      <point x="535" y="210" type="curve"/>
    </contour>
    <contour>
      <point x="258" y="0" type="move" name="bottom"/>
    </contour>
    <contour>
      <point x="406" y="708" type="move" name="right"/>
    </contour>
    <contour>
      <point x="281" y="708" type="move" name="top"/>
    </contour>
  </outline>
</glyph>
<glyph name="M" format="1">
  <advance width="868"/>
  <unicode hex="004D"/>
  <outline>
    <contour>
      <point x="384" y="115" type="line"/>
      <point x="329" y="708" type="line"/>
      <point x="306" y="706"/>
      <point x="271" y="705"/>
      <point x="241" y="705" type="curve" smooth="yes"/>
      <point x="206" y="705"/>
      <point x="173" y="706"/>
      <point x="152" y="708" type="curve"/>
      <point x="147" y="688" type="line"/>
      <point x="214" y="685"/>
      <point x="225" y="675"/>
      <point x="206" y="602" type="curve" smooth="yes"/>
      <point x="76" y="116" type="line" smooth="yes"/>
      <point x="57" y="43"/>
      <point x="40" y="23"/>
      <point x="-29" y="20" type="curve"/>
      <point x="-34" y="0" type="line"/>
      <point x="-11" y="2"/>
      <point x="26" y="3"/>
      <point x="60" y="3" type="curve" smooth="yes"/>
      <point x="94" y="3"/>
      <point x="138" y="2"/>
      <point x="161" y="0" type="curve"/>
      <point x="166" y="20" type="line"/>
      <point x="89" y="23"/>
      <point x="80" y="43"/>
      <point x="99" y="116" type="curve" smooth="yes"/>
      <point x="241" y="653" type="line"/>
      <point x="309" y="-5" type="line"/>
      <point x="331" y="-5" type="line"/>
      <point x="746" y="645" type="line"/>
      <point x="601" y="106" type="line" smooth="yes"/>
      <point x="582" y="33"/>
      <point x="567" y="23"/>
      <point x="498" y="20" type="curve"/>
      <point x="494" y="0" type="line"/>
      <point x="522" y="2"/>
      <point x="572" y="3"/>
      <point x="624" y="3" type="curve" smooth="yes"/>
      <point x="670" y="3"/>
      <point x="717" y="2"/>
      <point x="748" y="0" type="curve"/>
      <point x="752" y="20" type="line"/>
      <point x="685" y="23"/>
      <point x="674" y="33"/>
      <point x="693" y="106" type="curve" smooth="yes"/>
      <point x="825" y="602" type="line" smooth="yes"/>
      <point x="844" y="675"/>
      <point x="859" y="685"/>
      <point x="928" y="688" type="curve"/>
      <point x="933" y="708" type="line"/>
      <point x="901" y="706"/>
      <point x="854" y="705"/>
      <point x="808" y="705" type="curve" smooth="yes"/>
      <point x="760" y="705" type="line"/>
    </contour>
  </outline>
</glyph>
<glyph name="N" format="1">
  <advance width="770"/>
  <unicode hex="004E"/>
  <outline>
    <contour>
      <point x="521" y="-5" type="line"/>
      <point x="521" y="-5"/>
      <point x="539" y="146"/>
      <point x="539" y="146" type="curve"/>
      <point x="347" y="708" type="line"/>
      <point x="324" y="706"/>
      <point x="296" y="705"/>
      <point x="266" y="705" type="curve" smooth="yes"/>
      <point x="231" y="705"/>
      <point x="198" y="706"/>
      <point x="177" y="708" type="curve"/>
      <point x="172" y="688" type="line"/>
      <point x="250" y="685"/>
      <point x="258" y="675"/>
      <point x="243" y="602" type="curve"/>
      <point x="243" y="602"/>
      <point x="266" y="653"/>
      <point x="266" y="653" type="curve"/>
      <point x="499" y="-5" type="line"/>
    </contour>
    <contour>
      <point x="805" y="733"/>
      <point x="806" y="733"/>
      <point x="807" y="733" type="curve"/>
      <point x="790" y="717"/>
      <point x="775" y="693"/>
      <point x="775" y="670" type="curve" smooth="yes"/>
      <point x="775" y="653"/>
      <point x="783" y="631"/>
      <point x="813" y="631" type="curve" smooth="yes"/>
      <point x="852" y="631"/>
      <point x="872" y="670"/>
      <point x="872" y="703" type="curve" smooth="yes"/>
      <point x="872" y="730"/>
      <point x="858" y="754"/>
      <point x="812" y="754" type="curve" smooth="yes"/>
      <point x="763" y="754"/>
      <point x="729" y="726"/>
      <point x="704" y="690" type="curve" smooth="yes"/>
      <point x="627" y="578"/>
      <point x="556" y="248"/>
      <point x="507" y="23" type="curve"/>
      <point x="521" y="-5" type="line"/>
      <point x="599" y="364"/>
      <point x="661" y="591"/>
      <point x="722" y="682" type="curve" smooth="yes"/>
      <point x="742" y="712"/>
      <point x="767" y="732"/>
      <point x="804" y="733" type="curve" smooth="yes"/>
    </contour>
    <contour>
      <point x="-5" y="-53"/>
      <point x="-6" y="-53"/>
      <point x="-7" y="-53" type="curve"/>
      <point x="10" y="-37"/>
      <point x="25" y="-13"/>
      <point x="25" y="10" type="curve" smooth="yes"/>
      <point x="25" y="27"/>
      <point x="17" y="49"/>
      <point x="-13" y="49" type="curve" smooth="yes"/>
      <point x="-52" y="49"/>
      <point x="-72" y="11"/>
      <point x="-72" y="-22" type="curve" smooth="yes"/>
      <point x="-72" y="-50"/>
      <point x="-59" y="-74"/>
      <point x="-12" y="-74" type="curve" smooth="yes"/>
      <point x="41" y="-74"/>
      <point x="71" y="-43"/>
      <point x="95" y="-11" type="curve" smooth="yes"/>
      <point x="156" y="70"/>
      <point x="223" y="392"/>
      <point x="276" y="664" type="curve"/>
      <point x="259" y="685" type="line"/>
      <point x="196" y="352"/>
      <point x="137" y="90"/>
      <point x="79" y="-1" type="curve" smooth="yes"/>
      <point x="59" y="-33"/>
      <point x="32" y="-52"/>
      <point x="-4" y="-53" type="curve" smooth="yes"/>
    </contour>
    <contour>
      <point x="518" y="708" type="move" name="top"/>
    </contour>
    <contour>
      <point x="289" y="0" type="move" name="bottom"/>
    </contour>
  </outline>
</glyph>
<glyph name="P" format="1">
  <advance width="589"/>
  <unicode hex="0050"/>
  <outline>
    <contour>
      <point x="243" y="284" type="line" smooth="yes"/>
      <point x="467" y="284"/>
      <point x="620" y="399"/>
      <point x="620" y="556" type="curve" smooth="yes"/>
      <point x="620" y="647"/>
      <point x="555" y="707"/>
      <point x="421" y="707" type="curve" smooth="yes"/>
      <point x="371" y="707"/>
      <point x="323" y="705"/>
      <point x="275" y="705" type="curve" smooth="yes"/>
      <point x="231" y="705"/>
      <point x="179" y="706"/>
      <point x="152" y="708" type="curve"/>
      <point x="147" y="688" type="line"/>
      <point x="221" y="687"/>
      <point x="223" y="665"/>
      <point x="206" y="602" type="curve" smooth="yes"/>
      <point x="74" y="106" type="line" smooth="yes"/>
      <point x="55" y="33"/>
      <point x="39" y="23"/>
      <point x="-29" y="20" type="curve"/>
      <point x="-33" y="0" type="line"/>
      <point x="-5" y="2"/>
      <point x="45" y="3"/>
      <point x="97" y="3" type="curve" smooth="yes"/>
      <point x="143" y="3"/>
      <point x="190" y="2"/>
      <point x="221" y="0" type="curve"/>
      <point x="225" y="20" type="line"/>
      <point x="145" y="22"/>
      <point x="150" y="44"/>
      <point x="166" y="106" type="curve" smooth="yes"/>
      <point x="298" y="602" type="line" smooth="yes"/>
      <point x="316" y="670"/>
      <point x="333" y="688"/>
      <point x="392" y="688" type="curve" smooth="yes"/>
      <point x="482" y="688"/>
      <point x="519" y="650"/>
      <point x="519" y="572" type="curve" smooth="yes"/>
      <point x="519" y="423"/>
      <point x="451" y="304"/>
      <point x="253" y="304" type="curve" smooth="yes"/>
      <point x="208" y="304" type="line"/>
      <point x="208" y="304"/>
      <point x="203" y="284"/>
      <point x="203" y="284" type="curve"/>
    </contour>
    <contour>
      <point x="92" y="0" type="move" name="bottom"/>
    </contour>
    <contour>
      <point x="405" y="708" type="move" name="top"/>
    </contour>
  </outline>
</glyph>
<glyph name="Q" format="1">
  <advance width="781"/>
  <unicode hex="0051"/>
  <outline>
    <contour>
      <point x="426" y="243"/>
      <point x="514" y="330"/>
      <point x="514" y="429" type="curve" smooth="yes"/>
      <point x="514" y="488"/>
      <point x="483" y="527"/>
      <point x="435" y="527" type="curve" smooth="yes"/>
      <point x="395" y="527"/>
      <point x="366" y="501"/>
      <point x="366" y="466" type="curve" smooth="yes"/>
      <point x="366" y="439"/>
      <point x="383" y="419"/>
      <point x="413" y="419" type="curve" smooth="yes"/>
      <point x="442" y="419"/>
      <point x="473" y="436"/>
      <point x="487" y="464" type="curve"/>
      <point x="492" y="455"/>
      <point x="494" y="437"/>
      <point x="494" y="424" type="curve" smooth="yes"/>
      <point x="494" y="353"/>
      <point x="429" y="266"/>
      <point x="337" y="266" type="curve" smooth="yes"/>
      <point x="272" y="266"/>
      <point x="223" y="309"/>
      <point x="223" y="409" type="curve" smooth="yes"/>
      <point x="223" y="552"/>
      <point x="323" y="704"/>
      <point x="477" y="704" type="curve" smooth="yes"/>
      <point x="588" y="704"/>
      <point x="648" y="625"/>
      <point x="648" y="509" type="curve" smooth="yes"/>
      <point x="648" y="295"/>
      <point x="434" y="65"/>
      <point x="229" y="-24" type="curve" smooth="yes"/>
      <point x="174" y="-48"/>
      <point x="117" y="-65"/>
      <point x="70" y="-65" type="curve" smooth="yes"/>
      <point x="11" y="-65"/>
      <point x="-26" y="-48"/>
      <point x="-26" y="-6" type="curve" smooth="yes"/>
      <point x="-26" y="35"/>
      <point x="11" y="59"/>
      <point x="47" y="59" type="curve" smooth="yes"/>
      <point x="162" y="59"/>
      <point x="244" y="-188"/>
      <point x="441" y="-188" type="curve" smooth="yes"/>
      <point x="560" y="-188"/>
      <point x="697" y="-98"/>
      <point x="697" y="-7" type="curve" smooth="yes"/>
      <point x="697" y="29"/>
      <point x="676" y="50"/>
      <point x="647" y="50" type="curve" smooth="yes"/>
      <point x="613" y="50"/>
      <point x="588" y="21"/>
      <point x="588" y="-10" type="curve" smooth="yes"/>
      <point x="588" y="-37"/>
      <point x="606" y="-58"/>
      <point x="637" y="-58" type="curve" smooth="yes"/>
      <point x="647" y="-58"/>
      <point x="658" y="-56"/>
      <point x="668" y="-52" type="curve"/>
      <point x="636" y="-105"/>
      <point x="585" y="-120"/>
      <point x="524" y="-120" type="curve" smooth="yes"/>
      <point x="302" y="-120"/>
      <point x="241" y="81"/>
      <point x="77" y="81" type="curve" smooth="yes"/>
      <point x="7" y="81"/>
      <point x="-45" y="45"/>
      <point x="-45" y="-8" type="curve" smooth="yes"/>
      <point x="-45" y="-54"/>
      <point x="-7" y="-82"/>
      <point x="59" y="-82" type="curve" smooth="yes"/>
      <point x="270" y="-82"/>
      <point x="752" y="220"/>
      <point x="752" y="515" type="curve" smooth="yes"/>
      <point x="752" y="644"/>
      <point x="654" y="722"/>
      <point x="494" y="722" type="curve" smooth="yes"/>
      <point x="307" y="722"/>
      <point x="121" y="595"/>
      <point x="121" y="418" type="curve" smooth="yes"/>
      <point x="121" y="315"/>
      <point x="184" y="243"/>
      <point x="299" y="243" type="curve" smooth="yes"/>
    </contour>
  </outline>
</glyph>
<glyph name="R" format="1">
  <advance width="664"/>
  <unicode hex="0052"/>
  <outline>
    <contour>
      <point x="221" y="336" type="line"/>
      <point x="395" y="336"/>
      <point x="418" y="300"/>
      <point x="410" y="194" type="curve" smooth="yes"/>
      <point x="402" y="82" type="line" smooth="yes"/>
      <point x="398" y="33"/>
      <point x="426" y="-14"/>
      <point x="492" y="-14" type="curve" smooth="yes"/>
      <point x="555" y="-14"/>
      <point x="588" y="27"/>
      <point x="611" y="108" type="curve" smooth="yes"/>
      <point x="615" y="121" type="line"/>
      <point x="592" y="121" type="line"/>
      <point x="587" y="107" type="line" smooth="yes"/>
      <point x="568" y="54"/>
      <point x="552" y="24"/>
      <point x="528" y="23" type="curve" smooth="yes"/>
      <point x="497" y="22"/>
      <point x="493" y="65"/>
      <point x="496" y="105" type="curve" smooth="yes"/>
      <point x="504" y="207" type="line" smooth="yes"/>
      <point x="511" y="297"/>
      <point x="474" y="324"/>
      <point x="394" y="339" type="curve" smooth="yes"/>
      <point x="360" y="345"/>
      <point x="333" y="348"/>
      <point x="223" y="353" type="curve"/>
    </contour>
    <contour>
      <point x="253" y="336" type="line" smooth="yes"/>
      <point x="471" y="336"/>
      <point x="620" y="433"/>
      <point x="620" y="566" type="curve" smooth="yes"/>
      <point x="620" y="651"/>
      <point x="555" y="707"/>
      <point x="421" y="707" type="curve" smooth="yes"/>
      <point x="371" y="707"/>
      <point x="323" y="705"/>
      <point x="275" y="705" type="curve" smooth="yes"/>
      <point x="231" y="705"/>
      <point x="179" y="706"/>
      <point x="152" y="708" type="curve"/>
      <point x="147" y="688" type="line"/>
      <point x="220" y="687"/>
      <point x="223" y="665"/>
      <point x="206" y="602" type="curve" smooth="yes"/>
      <point x="74" y="106" type="line" smooth="yes"/>
      <point x="55" y="33"/>
      <point x="39" y="23"/>
      <point x="-29" y="20" type="curve"/>
      <point x="-33" y="0" type="line"/>
      <point x="-5" y="2"/>
      <point x="45" y="3"/>
      <point x="97" y="3" type="curve" smooth="yes"/>
      <point x="143" y="3"/>
      <point x="190" y="2"/>
      <point x="221" y="0" type="curve"/>
      <point x="225" y="20" type="line"/>
      <point x="148" y="21"/>
      <point x="149" y="44"/>
      <point x="166" y="106" type="curve" smooth="yes"/>
      <point x="298" y="602" type="line" smooth="yes"/>
      <point x="316" y="670"/>
      <point x="333" y="688"/>
      <point x="392" y="688" type="curve" smooth="yes"/>
      <point x="482" y="688"/>
      <point x="519" y="650"/>
      <point x="519" y="572" type="curve" smooth="yes"/>
      <point x="519" y="452"/>
      <point x="454" y="356"/>
      <point x="263" y="356" type="curve" smooth="yes"/>
      <point x="218" y="356" type="line"/>
      <point x="218" y="356"/>
      <point x="213" y="336"/>
      <point x="213" y="336" type="curve"/>
    </contour>
    <contour>
      <point x="293" y="0" type="move" name="bottom"/>
    </contour>
    <contour>
      <point x="404" y="708" type="move" name="top"/>
    </contour>
  </outline>
</glyph>
<glyph name="S" format="1">
  <advance width="554"/>
  <unicode hex="0053"/>
  <outline>
    <contour>
      <point x="556" y="715" type="line"/>
      <point x="543" y="678"/>
      <point x="534" y="662"/>
      <point x="523" y="662" type="curve" smooth="yes"/>
      <point x="516" y="662"/>
      <point x="506" y="668"/>
      <point x="490" y="680" type="curve" smooth="yes"/>
      <point x="452" y="709"/>
      <point x="416" y="722"/>
      <point x="360" y="722" type="curve" smooth="yes"/>
      <point x="251" y="722"/>
      <point x="140" y="656"/>
      <point x="140" y="527" type="curve" smooth="yes"/>
      <point x="140" y="342"/>
      <point x="371" y="299"/>
      <point x="371" y="131" type="curve" smooth="yes"/>
      <point x="371" y="44"/>
      <point x="311" y="6"/>
      <point x="224" y="6" type="curve" smooth="yes"/>
      <point x="114" y="6"/>
      <point x="65" y="61"/>
      <point x="61" y="152" type="curve" smooth="yes"/>
      <point x="60" y="180"/>
      <point x="65" y="205"/>
      <point x="70" y="233" type="curve"/>
      <point x="50" y="233" type="line"/>
      <point x="20" y="94"/>
      <point x="0" y="36"/>
      <point x="-18" y="-7" type="curve"/>
      <point x="2" y="-7" type="line"/>
      <point x="17" y="29"/>
      <point x="26" y="47"/>
      <point x="43" y="47" type="curve" smooth="yes"/>
      <point x="51" y="47"/>
      <point x="64" y="44"/>
      <point x="79" y="32" type="curve" smooth="yes"/>
      <point x="103" y="13"/>
      <point x="141" y="-14"/>
      <point x="221" y="-14" type="curve" smooth="yes"/>
      <point x="337" y="-14"/>
      <point x="474" y="44"/>
      <point x="474" y="182" type="curve" smooth="yes"/>
      <point x="474" y="348"/>
      <point x="221" y="425"/>
      <point x="221" y="576" type="curve" smooth="yes"/>
      <point x="221" y="663"/>
      <point x="281" y="703"/>
      <point x="361" y="703" type="curve" smooth="yes"/>
      <point x="462" y="703"/>
      <point x="503" y="641"/>
      <point x="503" y="568" type="curve" smooth="yes"/>
      <point x="503" y="550"/>
      <point x="501" y="530"/>
      <point x="497" y="511" type="curve"/>
      <point x="517" y="511" type="line"/>
      <point x="538" y="616"/>
      <point x="562" y="680"/>
      <point x="576" y="715" type="curve"/>
    </contour>
    <contour>
      <point x="215" y="0" type="move" name="bottom"/>
    </contour>
    <contour>
      <point x="384" y="708" type="move" name="top"/>
    </contour>
  </outline>
</glyph>
<glyph name="T" format="1">
  <advance width="659"/>
  <unicode hex="0054"/>
  <outline>
    <contour>
      <point x="734" y="817"/>
      <point x="719" y="789"/>
      <point x="719" y="762" type="curve" smooth="yes"/>
      <point x="719" y="736"/>
      <point x="734" y="715"/>
      <point x="748" y="702" type="curve"/>
      <point x="749" y="709" type="line"/>
      <point x="715" y="690"/>
      <point x="676" y="684"/>
      <point x="615" y="684" type="curve" smooth="yes"/>
      <point x="499" y="684"/>
      <point x="405" y="712"/>
      <point x="286" y="712" type="curve" smooth="yes"/>
      <point x="263" y="712"/>
      <point x="197" y="711"/>
      <point x="152" y="689" type="curve" smooth="yes"/>
      <point x="111" y="669"/>
      <point x="99" y="638"/>
      <point x="99" y="611" type="curve" smooth="yes"/>
      <point x="99" y="581"/>
      <point x="114" y="561"/>
      <point x="143" y="561" type="curve" smooth="yes"/>
      <point x="178" y="561"/>
      <point x="193" y="592"/>
      <point x="193" y="619" type="curve" smooth="yes"/>
      <point x="193" y="639"/>
      <point x="185" y="663"/>
      <point x="175" y="677" type="curve"/>
      <point x="196" y="691"/>
      <point x="245" y="694"/>
      <point x="287" y="694" type="curve" smooth="yes"/>
      <point x="389" y="694"/>
      <point x="495" y="664"/>
      <point x="608" y="664" type="curve" smooth="yes"/>
      <point x="680" y="664"/>
      <point x="732" y="676"/>
      <point x="766" y="697" type="curve" smooth="yes"/>
      <point x="792" y="713"/>
      <point x="813" y="738"/>
      <point x="813" y="769" type="curve" smooth="yes"/>
      <point x="813" y="795"/>
      <point x="799" y="817"/>
      <point x="768" y="817" type="curve" smooth="yes"/>
    </contour>
    <contour>
      <point x="265" y="116" type="line" smooth="yes"/>
      <point x="243" y="44"/>
      <point x="222" y="23"/>
      <point x="138" y="20" type="curve"/>
      <point x="134" y="0" type="line"/>
      <point x="166" y="2"/>
      <point x="223" y="3"/>
      <point x="280" y="3" type="curve" smooth="yes"/>
      <point x="337" y="3"/>
      <point x="394" y="2"/>
      <point x="429" y="0" type="curve"/>
      <point x="433" y="20" type="line"/>
      <point x="349" y="22"/>
      <point x="337" y="39"/>
      <point x="358" y="116" type="curve" smooth="yes"/>
      <point x="508" y="679" type="line"/>
      <point x="508" y="679"/>
      <point x="418" y="691"/>
      <point x="418" y="691" type="curve"/>
    </contour>
    <contour>
      <point x="281" y="0" type="move" name="bottom"/>
    </contour>
    <contour>
      <point x="330" y="354" type="move" name="center"/>
    </contour>
    <contour>
      <point x="467" y="708" type="move" name="top"/>
    </contour>
  </outline>
</glyph>
<glyph name="U" format="1">
  <advance width="682"/>
  <unicode hex="0055"/>
  <outline>
    <contour>
      <point x="549" y="280" type="line" smooth="yes"/>
      <point x="510" y="131"/>
      <point x="440" y="21"/>
      <point x="291" y="21" type="curve" smooth="yes"/>
      <point x="151" y="21"/>
      <point x="159" y="134"/>
      <point x="195" y="271" type="curve" smooth="yes"/>
      <point x="283" y="602" type="line" smooth="yes"/>
      <point x="302" y="675"/>
      <point x="317" y="685"/>
      <point x="386" y="688" type="curve"/>
      <point x="392" y="708" type="line"/>
      <point x="360" y="706"/>
      <point x="313" y="705"/>
      <point x="267" y="705" type="curve" smooth="yes"/>
      <point x="215" y="705"/>
      <point x="165" y="706"/>
      <point x="138" y="708" type="curve"/>
      <point x="132" y="688" type="line"/>
      <point x="199" y="685"/>
      <point x="210" y="675"/>
      <point x="191" y="602" type="curve" smooth="yes"/>
      <point x="108" y="288" type="line" smooth="yes"/>
      <point x="76" y="166"/>
      <point x="70" y="94"/>
      <point x="118" y="40" type="curve" smooth="yes"/>
      <point x="152" y="1"/>
      <point x="207" y="-14"/>
      <point x="272" y="-14" type="curve" smooth="yes"/>
      <point x="355" y="-14"/>
      <point x="429" y="23"/>
      <point x="477" y="79" type="curve" smooth="yes"/>
      <point x="520" y="130"/>
      <point x="551" y="198"/>
      <point x="575" y="291" type="curve" smooth="yes"/>
      <point x="653" y="592" type="line" smooth="yes"/>
      <point x="671" y="665"/>
      <point x="690" y="685"/>
      <point x="759" y="688" type="curve"/>
      <point x="764" y="708" type="line"/>
      <point x="741" y="706"/>
      <point x="704" y="705"/>
      <point x="670" y="705" type="curve" smooth="yes"/>
      <point x="636" y="705"/>
      <point x="592" y="706"/>
      <point x="569" y="708" type="curve"/>
      <point x="564" y="688" type="line"/>
      <point x="631" y="685"/>
      <point x="650" y="665"/>
      <point x="631" y="592" type="curve" smooth="yes"/>
    </contour>
    <contour>
      <point x="356" y="0" type="move" name="ogonek"/>
    </contour>
    <contour>
      <point x="282" y="0" type="move" name="bottom"/>
    </contour>
    <contour>
      <point x="473" y="708" type="move" name="top"/>
    </contour>
  </outline>
</glyph>
<glyph name="V" format="1">
  <advance width="632"/>
  <unicode hex="0056"/>
  <outline>
    <contour>
      <point x="297" y="115" type="line"/>
      <point x="302" y="113" type="line"/>
      <point x="244" y="604" type="line" smooth="yes"/>
      <point x="235" y="678"/>
      <point x="261" y="685"/>
      <point x="324" y="688" type="curve"/>
      <point x="329" y="708" type="line"/>
      <point x="300" y="706"/>
      <point x="261" y="705"/>
      <point x="209" y="705" type="curve" smooth="yes"/>
      <point x="171" y="705"/>
      <point x="127" y="706"/>
      <point x="101" y="708" type="curve"/>
      <point x="96" y="688" type="line"/>
      <point x="115" y="687"/>
      <point x="142" y="672"/>
      <point x="148" y="624" type="curve" smooth="yes"/>
      <point x="227" y="-5" type="line"/>
      <point x="232" y="-5"/>
      <point x="237" y="-5"/>
      <point x="242" y="-5" type="curve"/>
      <point x="636" y="601" type="line" smooth="yes"/>
      <point x="674" y="661"/>
      <point x="709" y="682"/>
      <point x="737" y="688" type="curve"/>
      <point x="742" y="708" type="line"/>
      <point x="721" y="706"/>
      <point x="700" y="705"/>
      <point x="666" y="705" type="curve" smooth="yes"/>
      <point x="631" y="705"/>
      <point x="589" y="706"/>
      <point x="552" y="708" type="curve"/>
      <point x="547" y="688" type="line"/>
      <point x="630" y="686"/>
      <point x="648" y="653"/>
      <point x="578" y="546" type="curve" smooth="yes"/>
    </contour>
  </outline>
</glyph>
<glyph name="W" format="1">
  <advance width="902"/>
  <unicode hex="0057"/>
  <outline>
    <contour>
      <point x="511" y="496" type="line"/>
      <point x="285" y="114" type="line"/>
      <point x="294" y="118" type="line"/>
      <point x="237" y="604" type="line" smooth="yes"/>
      <point x="229" y="671"/>
      <point x="248" y="685"/>
      <point x="293" y="688" type="curve"/>
      <point x="297" y="708" type="line"/>
      <point x="273" y="706"/>
      <point x="233" y="705"/>
      <point x="189" y="705" type="curve" smooth="yes"/>
      <point x="151" y="705"/>
      <point x="117" y="706"/>
      <point x="90" y="708" type="curve"/>
      <point x="86" y="688" type="line"/>
      <point x="107" y="687"/>
      <point x="134" y="676"/>
      <point x="141" y="624" type="curve" smooth="yes"/>
      <point x="220" y="-5" type="line"/>
      <point x="236" y="-5" type="line"/>
      <point x="520" y="472" type="line"/>
    </contour>
    <contour>
      <point x="642" y="138" type="line"/>
      <point x="649" y="140" type="line"/>
      <point x="576" y="604" type="line" smooth="yes"/>
      <point x="565" y="673"/>
      <point x="583" y="685"/>
      <point x="652" y="688" type="curve"/>
      <point x="656" y="708" type="line"/>
      <point x="628" y="706"/>
      <point x="580" y="705"/>
      <point x="528" y="705" type="curve" smooth="yes"/>
      <point x="494" y="705"/>
      <point x="463" y="706"/>
      <point x="439" y="708" type="curve"/>
      <point x="435" y="688" type="line"/>
      <point x="453" y="687"/>
      <point x="472" y="675"/>
      <point x="480" y="624" type="curve" smooth="yes"/>
      <point x="579" y="-5" type="line"/>
      <point x="595" y="-5" type="line"/>
      <point x="894" y="601" type="line" smooth="yes"/>
      <point x="925" y="665"/>
      <point x="961" y="682"/>
      <point x="989" y="688" type="curve"/>
      <point x="994" y="708" type="line"/>
      <point x="973" y="706"/>
      <point x="952" y="705"/>
      <point x="918" y="705" type="curve" smooth="yes"/>
      <point x="883" y="705"/>
      <point x="841" y="706"/>
      <point x="804" y="708" type="curve"/>
      <point x="799" y="688" type="line"/>
      <point x="882" y="686"/>
      <point x="900" y="661"/>
      <point x="843" y="546" type="curve" smooth="yes"/>
    </contour>
    <contour>
      <point x="572" y="708" type="move" name="top"/>
    </contour>
  </outline>
</glyph>
<glyph name="X" format="1">
  <advance width="699"/>
  <unicode hex="0058"/>
  <outline>
    <contour>
      <point x="388" y="566" type="line" smooth="yes"/>
      <point x="379" y="639"/>
      <point x="354" y="722"/>
      <point x="257" y="722" type="curve" smooth="yes"/>
      <point x="200" y="722"/>
      <point x="160" y="689"/>
      <point x="135" y="615" type="curve" smooth="yes"/>
      <point x="109" y="538" type="line"/>
      <point x="129" y="538" type="line"/>
      <point x="146" y="589" type="line" smooth="yes"/>
      <point x="165" y="643"/>
      <point x="186" y="667"/>
      <point x="226" y="667" type="curve" smooth="yes"/>
      <point x="279" y="667"/>
      <point x="298" y="615"/>
      <point x="305" y="553" type="curve" smooth="yes"/>
      <point x="353" y="142" type="line" smooth="yes"/>
      <point x="362" y="69"/>
      <point x="387" y="-14"/>
      <point x="484" y="-14" type="curve" smooth="yes"/>
      <point x="541" y="-14"/>
      <point x="581" y="19"/>
      <point x="606" y="93" type="curve" smooth="yes"/>
      <point x="632" y="170" type="line"/>
      <point x="612" y="170" type="line"/>
      <point x="595" y="119" type="line" smooth="yes"/>
      <point x="576" y="65"/>
      <point x="555" y="41"/>
      <point x="515" y="41" type="curve" smooth="yes"/>
      <point x="462" y="41"/>
      <point x="443" y="93"/>
      <point x="436" y="155" type="curve" smooth="yes"/>
    </contour>
    <contour>
      <point x="682" y="701"/>
      <point x="683" y="701"/>
      <point x="684" y="701" type="curve"/>
      <point x="666" y="685"/>
      <point x="654" y="661"/>
      <point x="652" y="642" type="curve" smooth="yes"/>
      <point x="650" y="621"/>
      <point x="660" y="599"/>
      <point x="690" y="599" type="curve" smooth="yes"/>
      <point x="729" y="599"/>
      <point x="746" y="636"/>
      <point x="749" y="663" type="curve" smooth="yes"/>
      <point x="752" y="694"/>
      <point x="738" y="722"/>
      <point x="690" y="722" type="curve" smooth="yes"/>
      <point x="659" y="722"/>
      <point x="628" y="710"/>
      <point x="598" y="687" type="curve" smooth="yes"/>
      <point x="525" y="627"/>
      <point x="431" y="484"/>
      <point x="382" y="354" type="curve"/>
      <point x="366" y="278" type="line"/>
      <point x="448" y="494"/>
      <point x="551" y="632"/>
      <point x="617" y="680" type="curve" smooth="yes"/>
      <point x="636" y="694"/>
      <point x="655" y="701"/>
      <point x="681" y="701" type="curve" smooth="yes"/>
    </contour>
    <contour>
      <point x="35" y="7"/>
      <point x="33" y="7"/>
      <point x="32" y="7" type="curve"/>
      <point x="50" y="23"/>
      <point x="62" y="47"/>
      <point x="64" y="66" type="curve" smooth="yes"/>
      <point x="66" y="87"/>
      <point x="56" y="109"/>
      <point x="26" y="109" type="curve" smooth="yes"/>
      <point x="-13" y="109"/>
      <point x="-30" y="72"/>
      <point x="-33" y="45" type="curve" smooth="yes"/>
      <point x="-36" y="14"/>
      <point x="-22" y="-14"/>
      <point x="26" y="-14" type="curve" smooth="yes"/>
      <point x="57" y="-14"/>
      <point x="88" y="-2"/>
      <point x="118" y="21" type="curve" smooth="yes"/>
      <point x="194" y="75"/>
      <point x="293" y="202"/>
      <point x="344" y="320" type="curve"/>
      <point x="360" y="396" type="line"/>
      <point x="275" y="195"/>
      <point x="168" y="73"/>
      <point x="99" y="28" type="curve" smooth="yes"/>
      <point x="80" y="15"/>
      <point x="61" y="8"/>
      <point x="36" y="7" type="curve" smooth="yes"/>
    </contour>
  </outline>
</glyph>
<glyph name="Y" format="1">
  <advance width="670"/>
  <unicode hex="0059"/>
  <outline>
    <contour>
      <point x="424" y="416" type="line"/>
      <point x="390" y="336" type="line"/>
      <point x="357" y="317" type="line"/>
      <point x="322" y="380" type="line"/>
      <point x="253" y="106" type="line" smooth="yes"/>
      <point x="235" y="33"/>
      <point x="218" y="23"/>
      <point x="150" y="20" type="curve"/>
      <point x="145" y="0" type="line"/>
      <point x="174" y="2"/>
      <point x="224" y="3"/>
      <point x="276" y="3" type="curve" smooth="yes"/>
      <point x="322" y="3"/>
      <point x="370" y="2"/>
      <point x="400" y="0" type="curve"/>
      <point x="405" y="20" type="line"/>
      <point x="337" y="23"/>
      <point x="328" y="33"/>
      <point x="346" y="106" type="curve" smooth="yes"/>
    </contour>
    <contour>
      <point x="689" y="701"/>
      <point x="690" y="701"/>
      <point x="691" y="701" type="curve"/>
      <point x="674" y="685"/>
      <point x="660" y="663"/>
      <point x="659" y="642" type="curve" smooth="yes"/>
      <point x="658" y="621"/>
      <point x="666" y="599"/>
      <point x="697" y="599" type="curve" smooth="yes"/>
      <point x="736" y="599"/>
      <point x="754" y="636"/>
      <point x="756" y="663" type="curve" smooth="yes"/>
      <point x="758" y="692"/>
      <point x="745" y="722"/>
      <point x="700" y="722" type="curve" smooth="yes"/>
      <point x="657" y="722"/>
      <point x="613" y="688"/>
      <point x="582" y="657" type="curve" smooth="yes"/>
      <point x="513" y="588"/>
      <point x="446" y="488"/>
      <point x="395" y="360" type="curve"/>
      <point x="371" y="580"/>
      <point x="338" y="722"/>
      <point x="228" y="722" type="curve" smooth="yes"/>
      <point x="171" y="722"/>
      <point x="150" y="693"/>
      <point x="130" y="635" type="curve" smooth="yes"/>
      <point x="97" y="538" type="line"/>
      <point x="97" y="538"/>
      <point x="119" y="538"/>
      <point x="119" y="538" type="curve"/>
      <point x="147" y="620" type="line" smooth="yes"/>
      <point x="158" y="654"/>
      <point x="172" y="667"/>
      <point x="195" y="667" type="curve" smooth="yes"/>
      <point x="277" y="667"/>
      <point x="305" y="417"/>
      <point x="319" y="265" type="curve"/>
      <point x="378" y="270" type="line"/>
      <point x="465" y="509"/>
      <point x="566" y="631"/>
      <point x="633" y="679" type="curve" smooth="yes"/>
      <point x="649" y="691"/>
      <point x="667" y="700"/>
      <point x="688" y="701" type="curve" smooth="yes"/>
    </contour>
    <contour>
      <point x="469" y="708" type="move" name="top"/>
    </contour>
  </outline>
</glyph>
<glyph name="Z" format="1">
  <advance width="652"/>
  <unicode hex="005A"/>
  <outline>
    <contour>
      <point x="511" y="346" type="line"/>
      <point x="511" y="346"/>
      <point x="519" y="366"/>
      <point x="519" y="366" type="curve"/>
      <point x="166" y="366" type="line"/>
      <point x="159" y="346" type="line"/>
    </contour>
    <contour>
      <point x="493" y="196"/>
      <point x="519" y="172"/>
      <point x="519" y="132" type="curve" smooth="yes"/>
      <point x="519" y="91"/>
      <point x="496" y="66"/>
      <point x="451" y="66" type="curve" smooth="yes"/>
      <point x="365" y="66"/>
      <point x="322" y="122"/>
      <point x="237" y="122" type="curve" smooth="yes"/>
      <point x="181" y="122"/>
      <point x="120" y="101"/>
      <point x="64" y="68" type="curve"/>
      <point x="644" y="638" type="line"/>
      <point x="715" y="665"/>
      <point x="729" y="699"/>
      <point x="713" y="713" type="curve" smooth="yes"/>
      <point x="693" y="730"/>
      <point x="655" y="703"/>
      <point x="625" y="660" type="curve"/>
      <point x="571" y="633"/>
      <point x="533" y="615"/>
      <point x="477" y="615" type="curve" smooth="yes"/>
      <point x="382" y="615"/>
      <point x="346" y="722"/>
      <point x="248" y="722" type="curve" smooth="yes"/>
      <point x="173" y="722"/>
      <point x="127" y="670"/>
      <point x="127" y="599" type="curve" smooth="yes"/>
      <point x="127" y="522"/>
      <point x="182" y="492"/>
      <point x="233" y="483" type="curve"/>
      <point x="233" y="483"/>
      <point x="237" y="503"/>
      <point x="237" y="503" type="curve"/>
      <point x="191" y="512"/>
      <point x="165" y="536"/>
      <point x="165" y="576" type="curve" smooth="yes"/>
      <point x="165" y="617"/>
      <point x="188" y="642"/>
      <point x="233" y="642" type="curve" smooth="yes"/>
      <point x="319" y="642"/>
      <point x="362" y="586"/>
      <point x="447" y="586" type="curve" smooth="yes"/>
      <point x="503" y="586"/>
      <point x="564" y="607"/>
      <point x="620" y="640" type="curve"/>
      <point x="40" y="70" type="line"/>
      <point x="-31" y="43"/>
      <point x="-45" y="9"/>
      <point x="-29" y="-5" type="curve" smooth="yes"/>
      <point x="-10" y="-22"/>
      <point x="29" y="5"/>
      <point x="59" y="48" type="curve"/>
      <point x="113" y="75"/>
      <point x="151" y="93"/>
      <point x="207" y="93" type="curve" smooth="yes"/>
      <point x="302" y="93"/>
      <point x="338" y="-14"/>
      <point x="436" y="-14" type="curve" smooth="yes"/>
      <point x="511" y="-14"/>
      <point x="557" y="38"/>
      <point x="557" y="109" type="curve" smooth="yes"/>
      <point x="557" y="186"/>
      <point x="502" y="216"/>
      <point x="451" y="225" type="curve"/>
      <point x="451" y="225"/>
      <point x="447" y="205"/>
      <point x="447" y="205" type="curve"/>
    </contour>
    <contour>
      <point x="235" y="0" type="move" name="bottom"/>
    </contour>
    <contour>
      <point x="444" y="708" type="move" name="top"/>
    </contour>
  </outline>
</glyph>
<glyph name="backslash" format="1">
  <advance width="492"/>
  <unicode hex="005C"/>
  <outline>
    <contour>
      <point x="163" y="722" type="line"/>
      <point x="132" y="722" type="line"/>
      <point x="358" y="-14" type="line"/>
      <point x="391" y="-14" type="line"/>
    </contour>
  </outline>
</glyph>
<glyph name="bracketright" format="1">
  <advance width="300"/>
  <unicode hex="005D"/>
  <outline>
    <contour>
      <point x="154" y="772" type="line"/>
      <point x="150" y="753" type="line"/>
      <point x="231" y="753" type="line"/>
      <point x="2" y="-162" type="line"/>
      <point x="-79" y="-162" type="line"/>
      <point x="-83" y="-181" type="line"/>
      <point x="87" y="-181" type="line"/>
      <point x="324" y="772" type="line"/>
    </contour>
  </outline>
</glyph>
<glyph name="a" format="1">
  <advance width="523"/>
  <unicode hex="0061"/>
  <outline>
    <contour>
      <point x="110" y="18"/>
      <point x="97" y="38"/>
      <point x="97" y="95" type="curve" smooth="yes"/>
      <point x="97" y="272"/>
      <point x="213" y="509"/>
      <point x="301" y="509" type="curve" smooth="yes"/>
      <point x="343" y="509"/>
      <point x="363" y="461"/>
      <point x="354" y="391" type="curve"/>
      <point x="365" y="397" type="line"/>
      <point x="380" y="480"/>
      <point x="351" y="528"/>
      <point x="304" y="528" type="curve" smooth="yes"/>
      <point x="153" y="528"/>
      <point x="9" y="267"/>
      <point x="9" y="107" type="curve" smooth="yes"/>
      <point x="9" y="36"/>
      <point x="40" y="-14"/>
      <point x="103" y="-14" type="curve" smooth="yes"/>
      <point x="183" y="-14"/>
      <point x="259" y="65"/>
      <point x="335" y="278" type="curve"/>
      <point x="352" y="386" type="line"/>
      <point x="310" y="196"/>
      <point x="195" y="18"/>
      <point x="132" y="18" type="curve" smooth="yes"/>
    </contour>
    <contour>
      <point x="286" y="127" type="line" smooth="yes"/>
      <point x="275" y="85"/>
      <point x="261" y="42"/>
      <point x="279" y="12" type="curve" smooth="yes"/>
      <point x="289" y="-4"/>
      <point x="309" y="-14"/>
      <point x="334" y="-14" type="curve" smooth="yes"/>
      <point x="373" y="-14"/>
      <point x="420" y="10"/>
      <point x="449" y="90" type="curve" smooth="yes"/>
      <point x="474" y="163" type="line"/>
      <point x="455" y="163" type="line"/>
      <point x="443" y="126" type="line" smooth="yes"/>
      <point x="418" y="49"/>
      <point x="392" y="24"/>
      <point x="366" y="24" type="curve" smooth="yes"/>
      <point x="332" y="24"/>
      <point x="346" y="68"/>
      <point x="351" y="86" type="curve" smooth="yes"/>
      <point x="476" y="528" type="line"/>
      <point x="449" y="519"/>
      <point x="416" y="515"/>
      <point x="384" y="514" type="curve"/>
    </contour>
    <contour>
      <point x="377" y="0" type="move" name="ogonek"/>
    </contour>
    <contour>
      <point x="334" y="514" type="move" name="top"/>
    </contour>
  </outline>
</glyph>
<glyph name="b" format="1">
  <advance width="504"/>
  <unicode hex="0062"/>
  <outline>
    <contour>
      <point x="362" y="496"/>
      <point x="380" y="468"/>
      <point x="380" y="409" type="curve" smooth="yes"/>
      <point x="380" y="259"/>
      <point x="285" y="9"/>
      <point x="172" y="9" type="curve" smooth="yes"/>
      <point x="138" y="9"/>
      <point x="114" y="26"/>
      <point x="96" y="76" type="curve"/>
      <point x="88" y="56" type="line"/>
      <point x="99" y="11"/>
      <point x="133" y="-14"/>
      <point x="173" y="-14" type="curve" smooth="yes"/>
      <point x="360" y="-14"/>
      <point x="466" y="236"/>
      <point x="466" y="387" type="curve" smooth="yes"/>
      <point x="466" y="482"/>
      <point x="425" y="528"/>
      <point x="362" y="528" type="curve" smooth="yes"/>
      <point x="274" y="528"/>
      <point x="199" y="427"/>
      <point x="113" y="166" type="curve"/>
      <point x="96" y="58" type="line"/>
      <point x="150" y="281"/>
      <point x="264" y="496"/>
      <point x="333" y="496" type="curve" smooth="yes"/>
    </contour>
    <contour>
      <point x="301" y="795" type="line"/>
      <point x="251" y="769"/>
      <point x="198" y="755"/>
      <point x="125" y="754" type="curve"/>
      <point x="120" y="733" type="line"/>
      <point x="185" y="733"/>
      <point x="194" y="712"/>
      <point x="183" y="667" type="curve" smooth="yes"/>
      <point x="8" y="49" type="line" smooth="yes"/>
      <point x="4" y="29"/>
      <point x="-2" y="9"/>
      <point x="-11" y="-9" type="curve"/>
      <point x="4" y="-16" type="line"/>
      <point x="36" y="10"/>
      <point x="68" y="36"/>
      <point x="100" y="62" type="curve"/>
    </contour>
  </outline>
</glyph>
<glyph name="d" format="1">
  <advance width="542"/>
  <unicode hex="0064"/>
  <outline>
    <contour>
      <point x="565" y="795" type="line"/>
      <point x="514" y="769"/>
      <point x="461" y="755"/>
      <point x="388" y="754" type="curve"/>
      <point x="382" y="733" type="line"/>
      <point x="447" y="733"/>
      <point x="458" y="712"/>
      <point x="446" y="667" type="curve" smooth="yes"/>
      <point x="302" y="126" type="line" smooth="yes"/>
      <point x="293" y="92"/>
      <point x="288" y="64"/>
      <point x="289" y="43" type="curve" smooth="yes"/>
      <point x="291" y="6"/>
      <point x="313" y="-14"/>
      <point x="352" y="-14" type="curve" smooth="yes"/>
      <point x="392" y="-14"/>
      <point x="443" y="8"/>
      <point x="468" y="89" type="curve" smooth="yes"/>
      <point x="491" y="162" type="line"/>
      <point x="472" y="162" type="line"/>
      <point x="460" y="125" type="line" smooth="yes"/>
      <point x="434" y="49"/>
      <point x="413" y="23"/>
      <point x="387" y="23" type="curve" smooth="yes"/>
      <point x="358" y="23"/>
      <point x="360" y="54"/>
      <point x="369" y="85" type="curve" smooth="yes"/>
    </contour>
    <contour>
      <point x="116" y="18"/>
      <point x="101" y="46"/>
      <point x="101" y="105" type="curve" smooth="yes"/>
      <point x="101" y="265"/>
      <point x="208" y="505"/>
      <point x="336" y="505" type="curve" smooth="yes"/>
      <point x="362" y="505"/>
      <point x="386" y="486"/>
      <point x="392" y="438" type="curve"/>
      <point x="400" y="458" type="line"/>
      <point x="397" y="504"/>
      <point x="365" y="528"/>
      <point x="335" y="528" type="curve" smooth="yes"/>
      <point x="150" y="528"/>
      <point x="12" y="278"/>
      <point x="12" y="118" type="curve" smooth="yes"/>
      <point x="12" y="28"/>
      <point x="53" y="-14"/>
      <point x="116" y="-14" type="curve" smooth="yes"/>
      <point x="201" y="-14"/>
      <point x="275" y="62"/>
      <point x="354" y="268" type="curve"/>
      <point x="369" y="376" type="line"/>
      <point x="325" y="191"/>
      <point x="211" y="18"/>
      <point x="145" y="18" type="curve" smooth="yes"/>
    </contour>
    <contour>
      <point x="271" y="257" type="move" name="center"/>
    </contour>
  </outline>
</glyph>
<glyph name="f" format="1">
  <advance width="321"/>
  <unicode hex="0066"/>
  <outline>
    <contour>
      <point x="362" y="494" type="line"/>
      <point x="368" y="514" type="line"/>
      <point x="73" y="514" type="line"/>
      <point x="67" y="494" type="line"/>
    </contour>
    <contour>
      <point x="415" y="767"/>
      <point x="435" y="755"/>
      <point x="435" y="743" type="curve"/>
      <point x="402" y="733"/>
      <point x="378" y="709"/>
      <point x="378" y="676" type="curve" smooth="yes"/>
      <point x="377" y="654"/>
      <point x="393" y="642"/>
      <point x="418" y="642" type="curve" smooth="yes"/>
      <point x="456" y="642"/>
      <point x="485" y="677"/>
      <point x="485" y="711" type="curve" smooth="yes"/>
      <point x="485" y="751"/>
      <point x="451" y="782"/>
      <point x="390" y="782" type="curve" smooth="yes"/>
      <point x="343" y="782"/>
      <point x="296" y="763"/>
      <point x="265" y="732" type="curve" smooth="yes"/>
      <point x="220" y="688"/>
      <point x="191" y="621"/>
      <point x="163" y="515" type="curve" smooth="yes"/>
      <point x="-25" y="-188" type="line"/>
      <point x="1" y="-179"/>
      <point x="33" y="-175"/>
      <point x="65" y="-174" type="curve"/>
      <point x="250" y="515" type="line" smooth="yes"/>
      <point x="276" y="614"/>
      <point x="295" y="707"/>
      <point x="331" y="741" type="curve" smooth="yes"/>
      <point x="345" y="754"/>
      <point x="364" y="767"/>
      <point x="389" y="767" type="curve" smooth="yes"/>
    </contour>
  </outline>
</glyph>
<glyph name="g" format="1">
  <advance width="449"/>
  <unicode hex="0067"/>
  <outline>
    <contour>
      <point x="62" y="154"/>
      <point x="36" y="117"/>
      <point x="36" y="75" type="curve" smooth="yes"/>
      <point x="36" y="46"/>
      <point x="57" y="26"/>
      <point x="90" y="18" type="curve" smooth="yes"/>
      <point x="224" y="-16" type="line" smooth="yes"/>
      <point x="264" y="-27"/>
      <point x="284" y="-30"/>
      <point x="284" y="-48" type="curve" smooth="yes"/>
      <point x="284" y="-122"/>
      <point x="174" y="-178"/>
      <point x="83" y="-178" type="curve" smooth="yes"/>
      <point x="29" y="-178"/>
      <point x="-12" y="-154"/>
      <point x="-12" y="-105" type="curve" smooth="yes"/>
      <point x="-12" y="-75"/>
      <point x="0" y="-28"/>
      <point x="97" y="22" type="curve"/>
      <point x="89" y="29" type="line"/>
      <point x="-56" y="-26"/>
      <point x="-96" y="-77"/>
      <point x="-96" y="-122" type="curve" smooth="yes"/>
      <point x="-96" y="-164"/>
      <point x="-49" y="-195"/>
      <point x="55" y="-195" type="curve" smooth="yes"/>
      <point x="257" y="-195"/>
      <point x="352" y="-82"/>
      <point x="352" y="-10" type="curve" smooth="yes"/>
      <point x="352" y="39"/>
      <point x="307" y="58"/>
      <point x="239" y="76" type="curve" smooth="yes"/>
      <point x="166" y="95" type="line" smooth="yes"/>
      <point x="127" y="105"/>
      <point x="106" y="115"/>
      <point x="106" y="129" type="curve" smooth="yes"/>
      <point x="106" y="156"/>
      <point x="167" y="182"/>
      <point x="227" y="216" type="curve"/>
      <point x="216" y="225" type="line"/>
    </contour>
    <contour>
      <point x="321" y="510"/>
      <point x="334" y="481"/>
      <point x="334" y="445" type="curve" smooth="yes"/>
      <point x="334" y="368"/>
      <point x="313" y="231"/>
      <point x="201" y="231" type="curve" smooth="yes"/>
      <point x="164" y="231"/>
      <point x="141" y="248"/>
      <point x="141" y="296" type="curve" smooth="yes"/>
      <point x="141" y="328"/>
      <point x="162" y="510"/>
      <point x="275" y="510" type="curve" smooth="yes"/>
    </contour>
    <contour>
      <point x="113" y="528"/>
      <point x="54" y="395"/>
      <point x="54" y="322" type="curve" smooth="yes"/>
      <point x="54" y="247"/>
      <point x="112" y="213"/>
      <point x="197" y="213" type="curve" smooth="yes"/>
      <point x="332" y="213"/>
      <point x="423" y="319"/>
      <point x="423" y="416" type="curve" smooth="yes"/>
      <point x="423" y="494"/>
      <point x="367" y="528"/>
      <point x="280" y="528" type="curve" smooth="yes"/>
    </contour>
    <contour>
      <point x="437" y="620"/>
      <point x="415" y="611"/>
      <point x="396" y="598" type="curve" smooth="yes"/>
      <point x="370" y="579"/>
      <point x="345" y="548"/>
      <point x="323" y="510" type="curve"/>
      <point x="341" y="505" type="line"/>
      <point x="359" y="540"/>
      <point x="384" y="572"/>
      <point x="403" y="584" type="curve" smooth="yes"/>
      <point x="411" y="589"/>
      <point x="427" y="598"/>
      <point x="433" y="592" type="curve"/>
      <point x="425" y="582"/>
      <point x="420" y="568"/>
      <point x="420" y="556" type="curve" smooth="yes"/>
      <point x="420" y="538"/>
      <point x="431" y="527"/>
      <point x="448" y="527" type="curve" smooth="yes"/>
      <point x="478" y="527"/>
      <point x="504" y="556"/>
      <point x="504" y="585" type="curve" smooth="yes"/>
      <point x="504" y="610"/>
      <point x="487" y="620"/>
      <point x="461" y="620" type="curve" smooth="yes"/>
    </contour>
    <contour>
      <point x="286" y="514" type="move" name="top"/>
    </contour>
  </outline>
</glyph>
<glyph name="h" format="1">
  <advance width="536"/>
  <unicode hex="0068"/>
  <outline>
    <contour>
      <point x="311" y="795" type="line"/>
      <point x="261" y="769"/>
      <point x="204" y="755"/>
      <point x="131" y="754" type="curve"/>
      <point x="125" y="733" type="line"/>
      <point x="190" y="733"/>
      <point x="202" y="712"/>
      <point x="189" y="667" type="curve" smooth="yes"/>
      <point x="-9" y="0" type="line"/>
      <point x="-9" y="0"/>
      <point x="78" y="0"/>
      <point x="78" y="0" type="curve"/>
    </contour>
    <contour>
      <point x="83" y="20" type="line"/>
      <point x="159" y="299"/>
      <point x="274" y="496"/>
      <point x="359" y="496" type="curve" smooth="yes"/>
      <point x="406" y="496"/>
      <point x="391" y="442"/>
      <point x="381" y="412" type="curve" smooth="yes"/>
      <point x="286" y="126" type="line" smooth="yes"/>
      <point x="259" y="45"/>
      <point x="259" y="-14"/>
      <point x="340" y="-14" type="curve" smooth="yes"/>
      <point x="381" y="-14"/>
      <point x="432" y="5"/>
      <point x="461" y="89" type="curve" smooth="yes"/>
      <point x="486" y="162" type="line"/>
      <point x="467" y="162" type="line"/>
      <point x="454" y="125" type="line" smooth="yes"/>
      <point x="426" y="45"/>
      <point x="402" y="23"/>
      <point x="377" y="23" type="curve" smooth="yes"/>
      <point x="347" y="23"/>
      <point x="350" y="50"/>
      <point x="361" y="85" type="curve" smooth="yes"/>
      <point x="458" y="377" type="line" smooth="yes"/>
      <point x="482" y="449"/>
      <point x="486" y="528"/>
      <point x="392" y="528" type="curve" smooth="yes"/>
      <point x="287" y="528"/>
      <point x="206" y="429"/>
      <point x="106" y="148" type="curve"/>
    </contour>
    <contour>
      <point x="74" y="568" type="move" name="bar-left"/>
    </contour>
    <contour>
      <point x="268" y="257" type="move" name="center"/>
    </contour>
    <contour>
      <point x="243" y="754" type="move" name="top"/>
    </contour>
  </outline>
</glyph>
<glyph name="i" format="1">
  <advance width="302"/>
  <unicode hex="0069"/>
  <outline>
    <contour>
      <point x="182" y="661"/>
      <point x="204" y="632"/>
      <point x="238" y="632" type="curve" smooth="yes"/>
      <point x="273" y="632"/>
      <point x="305" y="661"/>
      <point x="312" y="696" type="curve" smooth="yes"/>
      <point x="318" y="731"/>
      <point x="297" y="760"/>
      <point x="262" y="760" type="curve" smooth="yes"/>
      <point x="228" y="760"/>
      <point x="195" y="731"/>
      <point x="189" y="696" type="curve" smooth="yes"/>
    </contour>
    <contour>
      <point x="51" y="126" type="line" smooth="yes"/>
      <point x="25" y="54"/>
      <point x="17" y="-14"/>
      <point x="103" y="-14" type="curve" smooth="yes"/>
      <point x="149" y="-14"/>
      <point x="198" y="11"/>
      <point x="226" y="89" type="curve" smooth="yes"/>
      <point x="252" y="162" type="line"/>
      <point x="233" y="162" type="line"/>
      <point x="219" y="125" type="line" smooth="yes"/>
      <point x="190" y="48"/>
      <point x="168" y="23"/>
      <point x="141" y="23" type="curve" smooth="yes"/>
      <point x="115" y="23"/>
      <point x="111" y="46"/>
      <point x="125" y="85" type="curve" smooth="yes"/>
      <point x="232" y="388" type="line" smooth="yes"/>
      <point x="254" y="450"/>
      <point x="267" y="528"/>
      <point x="182" y="528" type="curve" smooth="yes"/>
      <point x="141" y="528"/>
      <point x="88" y="509"/>
      <point x="58" y="425" type="curve" smooth="yes"/>
      <point x="32" y="352" type="line"/>
      <point x="51" y="352" type="line"/>
      <point x="65" y="389" type="line" smooth="yes"/>
      <point x="91" y="458"/>
      <point x="113" y="491"/>
      <point x="144" y="491" type="curve" smooth="yes"/>
      <point x="166" y="491"/>
      <point x="172" y="470"/>
      <point x="158" y="429" type="curve" smooth="yes"/>
    </contour>
    <contour>
      <point x="151" y="0" type="move" name="ogonek"/>
    </contour>
    <contour>
      <point x="228" y="514" type="move" name="top"/>
    </contour>
  </outline>
</glyph>
<glyph name="k" format="1">
  <advance width="515"/>
  <unicode hex="006B"/>
  <outline>
    <contour>
      <point x="311" y="795" type="line"/>
      <point x="261" y="769"/>
      <point x="204" y="755"/>
      <point x="131" y="754" type="curve"/>
      <point x="125" y="733" type="line"/>
      <point x="190" y="733"/>
      <point x="202" y="712"/>
      <point x="189" y="667" type="curve" smooth="yes"/>
      <point x="-9" y="0" type="line"/>
      <point x="-9" y="0"/>
      <point x="78" y="0"/>
      <point x="78" y="0" type="curve"/>
    </contour>
    <contour>
      <point x="356" y="164" type="line" smooth="yes"/>
      <point x="379" y="279"/>
      <point x="256" y="299"/>
      <point x="154" y="290" type="curve"/>
      <point x="154" y="286" type="line"/>
      <point x="266" y="278"/>
      <point x="291" y="244"/>
      <point x="275" y="167" type="curve" smooth="yes"/>
      <point x="257" y="81" type="line" smooth="yes"/>
      <point x="242" y="14"/>
      <point x="275" y="-14"/>
      <point x="318" y="-14" type="curve" smooth="yes"/>
      <point x="366" y="-14"/>
      <point x="411" y="9"/>
      <point x="437" y="89" type="curve" smooth="yes"/>
      <point x="461" y="162" type="line"/>
      <point x="442" y="162" type="line"/>
      <point x="430" y="125" type="line" smooth="yes"/>
      <point x="404" y="49"/>
      <point x="382" y="23"/>
      <point x="356" y="23" type="curve" smooth="yes"/>
      <point x="335" y="23"/>
      <point x="330" y="34"/>
      <point x="336" y="64" type="curve" smooth="yes"/>
    </contour>
    <contour>
      <point x="425" y="507"/>
      <point x="425" y="507"/>
      <point x="426" y="507" type="curve"/>
      <point x="409" y="491"/>
      <point x="395" y="467"/>
      <point x="394" y="448" type="curve" smooth="yes"/>
      <point x="393" y="427"/>
      <point x="403" y="405"/>
      <point x="433" y="405" type="curve" smooth="yes"/>
      <point x="473" y="405"/>
      <point x="489" y="445"/>
      <point x="491" y="469" type="curve" smooth="yes"/>
      <point x="493" y="501"/>
      <point x="478" y="528"/>
      <point x="432" y="528" type="curve" smooth="yes"/>
      <point x="414" y="528"/>
      <point x="396" y="523"/>
      <point x="372" y="505" type="curve" smooth="yes"/>
      <point x="301" y="452"/>
      <point x="321" y="306"/>
      <point x="158" y="297" type="curve"/>
      <point x="156" y="286" type="line"/>
      <point x="166" y="287" type="line"/>
      <point x="332" y="284"/>
      <point x="323" y="442"/>
      <point x="387" y="493" type="curve" smooth="yes"/>
      <point x="398" y="501"/>
      <point x="408" y="507"/>
      <point x="424" y="507" type="curve" smooth="yes"/>
    </contour>
    <contour>
      <point x="170" y="0" type="move" name="bottom"/>
    </contour>
    <contour>
      <point x="248" y="754" type="move" name="top"/>
    </contour>
  </outline>
</glyph>
<glyph name="l" format="1">
  <advance width="277"/>
  <unicode hex="006C"/>
  <outline>
    <contour>
      <point x="311" y="795" type="line"/>
      <point x="259" y="769"/>
      <point x="206" y="755"/>
      <point x="133" y="754" type="curve"/>
      <point x="126" y="733" type="line"/>
      <point x="191" y="733"/>
      <point x="202" y="712"/>
      <point x="189" y="667" type="curve" smooth="yes"/>
      <point x="26" y="126" type="line" smooth="yes"/>
      <point x="7" y="62"/>
      <point x="-6" y="-14"/>
      <point x="81" y="-14" type="curve" smooth="yes"/>
      <point x="132" y="-14"/>
      <point x="175" y="13"/>
      <point x="201" y="89" type="curve" smooth="yes"/>
      <point x="226" y="162" type="line"/>
      <point x="207" y="162" type="line"/>
      <point x="194" y="125" type="line" smooth="yes"/>
      <point x="167" y="49"/>
      <point x="145" y="23"/>
      <point x="119" y="23" type="curve" smooth="yes"/>
      <point x="94" y="23"/>
      <point x="91" y="46"/>
      <point x="102" y="85" type="curve" smooth="yes"/>
    </contour>
    <contour>
      <point x="87" y="0" type="move" name="bottom"/>
    </contour>
    <contour>
      <point x="268" y="514" type="move" name="right"/>
    </contour>
    <contour>
      <point x="240" y="754" type="move" name="top"/>
    </contour>
    <contour>
      <point x="257" y="514" type="move" name="topright"/>
    </contour>
  </outline>
</glyph>
<glyph name="m" format="1">
  <advance width="809"/>
  <unicode hex="006D"/>
  <outline>
    <contour>
      <point x="219" y="388" type="line"/>
      <point x="236" y="446"/>
      <point x="255" y="528"/>
      <point x="176" y="528" type="curve" smooth="yes"/>
      <point x="135" y="528"/>
      <point x="84" y="509"/>
      <point x="55" y="425" type="curve" smooth="yes"/>
      <point x="30" y="352" type="line"/>
      <point x="49" y="352" type="line" smooth="yes"/>
      <point x="62" y="389" type="line" smooth="yes"/>
      <point x="88" y="463"/>
      <point x="111" y="491"/>
      <point x="140" y="491" type="curve" smooth="yes"/>
      <point x="172" y="491"/>
      <point x="159" y="446"/>
      <point x="154" y="429" type="curve" smooth="yes"/>
      <point x="34" y="0" type="line"/>
      <point x="34" y="0"/>
      <point x="121" y="0"/>
      <point x="121" y="0" type="curve"/>
    </contour>
    <contour>
      <point x="279" y="0" type="line"/>
      <point x="369" y="0" type="line"/>
      <point x="471" y="377" type="line" smooth="yes"/>
      <point x="488" y="440"/>
      <point x="504" y="528"/>
      <point x="419" y="528" type="curve" smooth="yes"/>
      <point x="326" y="528"/>
      <point x="257" y="447"/>
      <point x="166" y="208" type="curve"/>
      <point x="133" y="48" type="line"/>
      <point x="200" y="297"/>
      <point x="310" y="496"/>
      <point x="386" y="496" type="curve" smooth="yes"/>
      <point x="423" y="496"/>
      <point x="417" y="453"/>
      <point x="404" y="412" type="curve" smooth="yes"/>
    </contour>
    <contour>
      <point x="559" y="126" type="line" smooth="yes"/>
      <point x="543" y="77"/>
      <point x="535" y="38"/>
      <point x="551" y="13" type="curve" smooth="yes"/>
      <point x="561" y="-3"/>
      <point x="580" y="-14"/>
      <point x="613" y="-14" type="curve" smooth="yes"/>
      <point x="654" y="-14"/>
      <point x="705" y="5"/>
      <point x="734" y="89" type="curve" smooth="yes"/>
      <point x="759" y="162" type="line"/>
      <point x="740" y="162" type="line"/>
      <point x="727" y="125" type="line" smooth="yes"/>
      <point x="699" y="45"/>
      <point x="675" y="23"/>
      <point x="650" y="23" type="curve" smooth="yes"/>
      <point x="623" y="23"/>
      <point x="621" y="44"/>
      <point x="634" y="85" type="curve" smooth="yes"/>
      <point x="731" y="377" type="line" smooth="yes"/>
      <point x="753" y="444"/>
      <point x="759" y="528"/>
      <point x="675" y="528" type="curve" smooth="yes"/>
      <point x="568" y="528"/>
      <point x="501" y="425"/>
      <point x="398" y="148" type="curve"/>
      <point x="375" y="20" type="line"/>
      <point x="461" y="296"/>
      <point x="563" y="496"/>
      <point x="642" y="496" type="curve" smooth="yes"/>
      <point x="671" y="496"/>
      <point x="667" y="453"/>
      <point x="654" y="412" type="curve" smooth="yes"/>
    </contour>
  </outline>
</glyph>
<glyph name="n" format="1">
  <advance width="580"/>
  <unicode hex="006E"/>
  <outline>
    <contour>
      <point x="220" y="388" type="line" smooth="yes"/>
      <point x="236" y="451"/>
      <point x="255" y="528"/>
      <point x="175" y="528" type="curve" smooth="yes"/>
      <point x="132" y="528"/>
      <point x="85" y="509"/>
      <point x="56" y="425" type="curve" smooth="yes"/>
      <point x="31" y="352" type="line"/>
      <point x="50" y="352" type="line"/>
      <point x="63" y="389" type="line" smooth="yes"/>
      <point x="91" y="467"/>
      <point x="111" y="491"/>
      <point x="140" y="491" type="curve" smooth="yes"/>
      <point x="172" y="491"/>
      <point x="162" y="453"/>
      <point x="155" y="429" type="curve" smooth="yes"/>
      <point x="35" y="0" type="line"/>
      <point x="35" y="0"/>
      <point x="122" y="0"/>
      <point x="122" y="0" type="curve"/>
    </contour>
    <contour>
      <point x="139" y="68" type="line"/>
      <point x="209" y="311"/>
      <point x="324" y="496"/>
      <point x="403" y="496" type="curve" smooth="yes"/>
      <point x="450" y="496"/>
      <point x="434" y="439"/>
      <point x="425" y="412" type="curve" smooth="yes"/>
      <point x="330" y="126" type="line" smooth="yes"/>
      <point x="314" y="79"/>
      <point x="306" y="39"/>
      <point x="321" y="15" type="curve" smooth="yes"/>
      <point x="332" y="-3"/>
      <point x="352" y="-14"/>
      <point x="384" y="-14" type="curve" smooth="yes"/>
      <point x="425" y="-14"/>
      <point x="476" y="5"/>
      <point x="505" y="89" type="curve" smooth="yes"/>
      <point x="530" y="162" type="line"/>
      <point x="511" y="162" type="line"/>
      <point x="498" y="125" type="line" smooth="yes"/>
      <point x="470" y="45"/>
      <point x="446" y="23"/>
      <point x="421" y="23" type="curve" smooth="yes"/>
      <point x="392" y="23"/>
      <point x="393" y="49"/>
      <point x="405" y="85" type="curve" smooth="yes"/>
      <point x="502" y="377" type="line" smooth="yes"/>
      <point x="526" y="450"/>
      <point x="530" y="528"/>
      <point x="436" y="528" type="curve" smooth="yes"/>
      <point x="339" y="528"/>
      <point x="262" y="447"/>
      <point x="168" y="208" type="curve"/>
    </contour>
    <contour>
      <point x="211" y="0" type="move" name="bottom"/>
    </contour>
    <contour>
      <point x="346" y="514" type="move" name="top"/>
    </contour>
  </outline>
</glyph>
<glyph name="o" format="1">
  <advance width="488"/>
  <unicode hex="006F"/>
  <outline>
    <contour>
      <point x="342" y="508"/>
      <point x="361" y="482"/>
      <point x="361" y="421" type="curve" smooth="yes"/>
      <point x="361" y="242"/>
      <point x="272" y="6"/>
      <point x="164" y="6" type="curve" smooth="yes"/>
      <point x="126" y="6"/>
      <point x="107" y="33"/>
      <point x="107" y="93" type="curve" smooth="yes"/>
      <point x="107" y="271"/>
      <point x="197" y="508"/>
      <point x="304" y="508" type="curve" smooth="yes"/>
    </contour>
    <contour>
      <point x="21" y="37"/>
      <point x="75" y="-14"/>
      <point x="158" y="-14" type="curve" smooth="yes"/>
      <point x="345" y="-14"/>
      <point x="447" y="224"/>
      <point x="447" y="371" type="curve" smooth="yes"/>
      <point x="447" y="477"/>
      <point x="393" y="528"/>
      <point x="310" y="528" type="curve" smooth="yes"/>
      <point x="123" y="528"/>
      <point x="21" y="290"/>
      <point x="21" y="143" type="curve" smooth="yes"/>
    </contour>
    <contour>
      <point x="155" y="0" type="move" name="bottom"/>
    </contour>
    <contour>
      <point x="329" y="514" type="move" name="top"/>
    </contour>
  </outline>
</glyph>
<glyph name="q" format="1">
  <advance width="507"/>
  <unicode hex="0071"/>
  <outline>
    <contour>
      <point x="475" y="465" type="line" smooth="yes"/>
      <point x="480" y="485"/>
      <point x="487" y="505"/>
      <point x="496" y="523" type="curve"/>
      <point x="480" y="530" type="line"/>
      <point x="448" y="504"/>
      <point x="416" y="478"/>
      <point x="384" y="452" type="curve"/>
      <point x="240" y="-98" type="line" smooth="yes"/>
      <point x="227" y="-146"/>
      <point x="202" y="-160"/>
      <point x="142" y="-160" type="curve"/>
      <point x="136" y="-181" type="line"/>
      <point x="157" y="-180"/>
      <point x="205" y="-177"/>
      <point x="247" y="-177" type="curve" smooth="yes"/>
      <point x="301" y="-177"/>
      <point x="354" y="-180"/>
      <point x="381" y="-181" type="curve"/>
      <point x="387" y="-160" type="line"/>
      <point x="341" y="-160"/>
      <point x="311" y="-143"/>
      <point x="326" y="-88" type="curve" smooth="yes"/>
    </contour>
    <contour>
      <point x="122" y="18"/>
      <point x="104" y="46"/>
      <point x="104" y="105" type="curve" smooth="yes"/>
      <point x="104" y="255"/>
      <point x="199" y="505"/>
      <point x="312" y="505" type="curve" smooth="yes"/>
      <point x="346" y="505"/>
      <point x="370" y="488"/>
      <point x="388" y="438" type="curve"/>
      <point x="396" y="458" type="line"/>
      <point x="385" y="503"/>
      <point x="351" y="528"/>
      <point x="311" y="528" type="curve" smooth="yes"/>
      <point x="124" y="528"/>
      <point x="18" y="278"/>
      <point x="18" y="127" type="curve" smooth="yes"/>
      <point x="18" y="32"/>
      <point x="59" y="-14"/>
      <point x="122" y="-14" type="curve" smooth="yes"/>
      <point x="195" y="-14"/>
      <point x="261" y="45"/>
      <point x="331" y="216" type="curve"/>
      <point x="351" y="324" type="line"/>
      <point x="311" y="164"/>
      <point x="211" y="18"/>
      <point x="151" y="18" type="curve" smooth="yes"/>
    </contour>
  </outline>
</glyph>
<glyph name="r" format="1">
  <advance width="426"/>
  <unicode hex="0072"/>
  <outline>
    <contour>
      <point x="219" y="388" type="line" smooth="yes"/>
      <point x="234" y="449"/>
      <point x="255" y="528"/>
      <point x="176" y="528" type="curve" smooth="yes"/>
      <point x="135" y="528"/>
      <point x="84" y="509"/>
      <point x="55" y="425" type="curve" smooth="yes"/>
      <point x="30" y="352" type="line"/>
      <point x="49" y="352" type="line"/>
      <point x="62" y="389" type="line" smooth="yes"/>
      <point x="88" y="463"/>
      <point x="111" y="491"/>
      <point x="140" y="491" type="curve" smooth="yes"/>
      <point x="162" y="491"/>
      <point x="167" y="474"/>
      <point x="154" y="429" type="curve" smooth="yes"/>
      <point x="34" y="0" type="line"/>
      <point x="34" y="0"/>
      <point x="121" y="0"/>
      <point x="121" y="0" type="curve"/>
    </contour>
    <contour>
      <point x="383" y="503"/>
      <point x="386" y="502"/>
      <point x="389" y="499" type="curve"/>
      <point x="363" y="488"/>
      <point x="344" y="467"/>
      <point x="344" y="435" type="curve" smooth="yes"/>
      <point x="344" y="412"/>
      <point x="361" y="399"/>
      <point x="384" y="399" type="curve" smooth="yes"/>
      <point x="421" y="399"/>
      <point x="454" y="431"/>
      <point x="454" y="471" type="curve" smooth="yes"/>
      <point x="454" y="504"/>
      <point x="432" y="528"/>
      <point x="395" y="528" type="curve" smooth="yes"/>
      <point x="306" y="528"/>
      <point x="244" y="436"/>
      <point x="157" y="176" type="curve"/>
      <point x="132" y="48" type="line"/>
      <point x="207" y="313"/>
      <point x="302" y="503"/>
      <point x="378" y="503" type="curve" smooth="yes"/>
    </contour>
    <contour>
      <point x="77" y="0" type="move" name="bottom"/>
    </contour>
    <contour>
      <point x="294" y="514" type="move" name="top"/>
    </contour>
  </outline>
</glyph>
<glyph name="t" format="1">
  <advance width="336"/>
  <unicode hex="0074"/>
  <outline>
    <contour>
      <point x="66" y="514" type="line"/>
      <point x="61" y="494" type="line"/>
      <point x="372" y="494" type="line"/>
      <point x="375" y="514" type="line"/>
    </contour>
    <contour>
      <point x="290" y="680" type="line"/>
      <point x="264" y="671"/>
      <point x="232" y="667"/>
      <point x="200" y="666" type="curve"/>
      <point x="45" y="126" type="line" smooth="yes"/>
      <point x="21" y="43"/>
      <point x="43" y="-14"/>
      <point x="125" y="-14" type="curve" smooth="yes"/>
      <point x="186" y="-14"/>
      <point x="233" y="12"/>
      <point x="262" y="99" type="curve" smooth="yes"/>
      <point x="283" y="162" type="line"/>
      <point x="264" y="162" type="line"/>
      <point x="250" y="123" type="line" smooth="yes"/>
      <point x="220" y="40"/>
      <point x="190" y="23"/>
      <point x="161" y="23" type="curve" smooth="yes"/>
      <point x="131" y="23"/>
      <point x="109" y="41"/>
      <point x="121" y="85" type="curve" smooth="yes"/>
    </contour>
    <contour>
      <point x="94" y="0" type="move" name="bottom"/>
    </contour>
    <contour>
      <point x="168" y="257" type="move" name="center"/>
    </contour>
    <contour>
      <point x="337" y="514" type="move" name="right"/>
    </contour>
    <contour>
      <point x="192" y="514" type="move" name="top"/>
    </contour>
  </outline>
</glyph>
<glyph name="u" format="1">
  <advance width="567"/>
  <unicode hex="0075"/>
  <outline>
    <contour>
      <point x="417" y="474" type="line"/>
      <point x="347" y="207"/>
      <point x="235" y="18"/>
      <point x="156" y="18" type="curve" smooth="yes"/>
      <point x="123" y="18"/>
      <point x="115" y="44"/>
      <point x="134" y="102" type="curve" smooth="yes"/>
      <point x="229" y="388" type="line" smooth="yes"/>
      <point x="252" y="458"/>
      <point x="262" y="528"/>
      <point x="175" y="528" type="curve" smooth="yes"/>
      <point x="134" y="528"/>
      <point x="83" y="509"/>
      <point x="54" y="425" type="curve" smooth="yes"/>
      <point x="29" y="352" type="line"/>
      <point x="48" y="352" type="line"/>
      <point x="61" y="389" type="line" smooth="yes"/>
      <point x="89" y="469"/>
      <point x="113" y="491"/>
      <point x="138" y="491" type="curve" smooth="yes"/>
      <point x="164" y="491"/>
      <point x="167" y="469"/>
      <point x="154" y="429" type="curve" smooth="yes"/>
      <point x="57" y="137" type="line" smooth="yes"/>
      <point x="28" y="51"/>
      <point x="39" y="-14"/>
      <point x="127" y="-14" type="curve" smooth="yes"/>
      <point x="224" y="-14"/>
      <point x="301" y="79"/>
      <point x="397" y="346" type="curve"/>
    </contour>
    <contour>
      <point x="518" y="528" type="line"/>
      <point x="493" y="519"/>
      <point x="460" y="515"/>
      <point x="427" y="514" type="curve"/>
      <point x="329" y="126" type="line" smooth="yes"/>
      <point x="314" y="67"/>
      <point x="310" y="35"/>
      <point x="321" y="13" type="curve" smooth="yes"/>
      <point x="330" y="-5"/>
      <point x="351" y="-14"/>
      <point x="372" y="-14" type="curve" smooth="yes"/>
      <point x="413" y="-14"/>
      <point x="464" y="5"/>
      <point x="493" y="89" type="curve" smooth="yes"/>
      <point x="518" y="162" type="line"/>
      <point x="499" y="162" type="line"/>
      <point x="486" y="125" type="line" smooth="yes"/>
      <point x="460" y="51"/>
      <point x="437" y="23"/>
      <point x="408" y="23" type="curve" smooth="yes"/>
      <point x="381" y="23"/>
      <point x="384" y="49"/>
      <point x="394" y="85" type="curve" smooth="yes"/>
    </contour>
    <contour>
      <point x="420" y="0" type="move" name="ogonek"/>
    </contour>
    <contour>
      <point x="232" y="0" type="move" name="bottom"/>
    </contour>
    <contour>
      <point x="319" y="514" type="move" name="top"/>
    </contour>
  </outline>
</glyph>
<glyph name="v" format="1">
  <advance width="533"/>
  <unicode hex="0076"/>
  <outline>
    <contour>
      <point x="468" y="256"/>
      <point x="370" y="19"/>
      <point x="212" y="19" type="curve" smooth="yes"/>
      <point x="182" y="19"/>
      <point x="164" y="50"/>
      <point x="169" y="127" type="curve" smooth="yes"/>
      <point x="181" y="268"/>
      <point x="243" y="398"/>
      <point x="349" y="529" type="curve"/>
      <point x="328" y="539" type="line"/>
      <point x="318" y="520" type="line"/>
      <point x="295" y="499"/>
      <point x="266" y="489"/>
      <point x="234" y="489" type="curve" smooth="yes"/>
      <point x="195" y="489"/>
      <point x="181" y="528"/>
      <point x="143" y="528" type="curve" smooth="yes"/>
      <point x="108" y="528"/>
      <point x="71" y="506"/>
      <point x="49" y="426" type="curve" smooth="yes"/>
      <point x="27" y="353" type="line"/>
      <point x="46" y="353" type="line"/>
      <point x="57" y="390" type="line" smooth="yes"/>
      <point x="73" y="437"/>
      <point x="85" y="452"/>
      <point x="106" y="452" type="curve" smooth="yes"/>
      <point x="128" y="452"/>
      <point x="144" y="427"/>
      <point x="169" y="427" type="curve" smooth="yes"/>
      <point x="205" y="427"/>
      <point x="257" y="474"/>
      <point x="301" y="490" type="curve"/>
      <point x="170" y="365"/>
      <point x="77" y="222"/>
      <point x="69" y="110" type="curve" smooth="yes"/>
      <point x="65" y="49"/>
      <point x="93" y="-14"/>
      <point x="183" y="-14" type="curve" smooth="yes"/>
      <point x="369" y="-14"/>
      <point x="476" y="192"/>
      <point x="499" y="388" type="curve" smooth="yes"/>
      <point x="508" y="470"/>
      <point x="491" y="529"/>
      <point x="445" y="529" type="curve" smooth="yes"/>
      <point x="427" y="529"/>
      <point x="403" y="518"/>
      <point x="401" y="487" type="curve" smooth="yes"/>
      <point x="397" y="434"/>
      <point x="436" y="398"/>
      <point x="474" y="379" type="curve"/>
    </contour>
  </outline>
</glyph>
<glyph name="w" format="1">
  <advance width="685"/>
  <unicode hex="0077"/>
  <outline>
    <contour>
      <point x="293" y="88" type="line"/>
      <point x="252" y="41"/>
      <point x="206" y="16"/>
      <point x="166" y="16" type="curve" smooth="yes"/>
      <point x="132" y="16"/>
      <point x="111" y="39"/>
      <point x="111" y="106" type="curve" smooth="yes"/>
      <point x="111" y="267"/>
      <point x="245" y="413"/>
      <point x="383" y="529" type="curve"/>
      <point x="362" y="539" type="line"/>
      <point x="348" y="520" type="line"/>
      <point x="324" y="499"/>
      <point x="300" y="489"/>
      <point x="268" y="489" type="curve" smooth="yes"/>
      <point x="229" y="489"/>
      <point x="214" y="528"/>
      <point x="176" y="528" type="curve" smooth="yes"/>
      <point x="141" y="528"/>
      <point x="109" y="505"/>
      <point x="83" y="426" type="curve" smooth="yes"/>
      <point x="60" y="353" type="line"/>
      <point x="79" y="353" type="line"/>
      <point x="91" y="390" type="line" smooth="yes"/>
      <point x="106" y="437"/>
      <point x="119" y="452"/>
      <point x="140" y="452" type="curve" smooth="yes"/>
      <point x="163" y="452"/>
      <point x="178" y="427"/>
      <point x="203" y="427" type="curve" smooth="yes"/>
      <point x="239" y="427"/>
      <point x="291" y="474"/>
      <point x="335" y="490" type="curve"/>
      <point x="319" y="487" type="line"/>
      <point x="182" y="387"/>
      <point x="13" y="230"/>
      <point x="13" y="100" type="curve" smooth="yes"/>
      <point x="13" y="41"/>
      <point x="45" y="-14"/>
      <point x="137" y="-14" type="curve" smooth="yes"/>
      <point x="198" y="-14"/>
      <point x="253" y="21"/>
      <point x="297" y="69" type="curve"/>
    </contour>
    <contour>
      <point x="339" y="15"/>
      <point x="316" y="91"/>
      <point x="316" y="163" type="curve" smooth="yes"/>
      <point x="316" y="250"/>
      <point x="368" y="337"/>
      <point x="401" y="337" type="curve" smooth="yes"/>
      <point x="416" y="337"/>
      <point x="420" y="317"/>
      <point x="420" y="290" type="curve" smooth="yes"/>
      <point x="420" y="219"/>
      <point x="379" y="143"/>
      <point x="317" y="94" type="curve"/>
      <point x="322" y="76" type="line"/>
      <point x="404" y="138"/>
      <point x="443" y="217"/>
      <point x="443" y="289" type="curve" smooth="yes"/>
      <point x="443" y="319"/>
      <point x="437" y="359"/>
      <point x="408" y="359" type="curve" smooth="yes"/>
      <point x="353" y="359"/>
      <point x="262" y="241"/>
      <point x="262" y="123" type="curve" smooth="yes"/>
      <point x="262" y="17"/>
      <point x="317" y="-14"/>
      <point x="381" y="-14" type="curve" smooth="yes"/>
      <point x="591" y="-14"/>
      <point x="652" y="260"/>
      <point x="619" y="410" type="curve" smooth="yes"/>
      <point x="607" y="477"/>
      <point x="584" y="528"/>
      <point x="545" y="528" type="curve" smooth="yes"/>
      <point x="526" y="528"/>
      <point x="503" y="515"/>
      <point x="503" y="480" type="curve" smooth="yes"/>
      <point x="503" y="425"/>
      <point x="560" y="398"/>
      <point x="598" y="391" type="curve"/>
      <point x="627" y="282"/>
      <point x="572" y="15"/>
      <point x="408" y="15" type="curve" smooth="yes"/>
    </contour>
    <contour>
      <point x="392" y="514" type="move" name="top"/>
    </contour>
  </outline>
</glyph>
<glyph name="x" format="1">
  <advance width="526"/>
  <unicode hex="0078"/>
  <outline>
    <contour>
      <point x="282" y="436" type="line" smooth="yes"/>
      <point x="274" y="506"/>
      <point x="246" y="528"/>
      <point x="199" y="528" type="curve" smooth="yes"/>
      <point x="156" y="528"/>
      <point x="114" y="506"/>
      <point x="85" y="426" type="curve" smooth="yes"/>
      <point x="60" y="353" type="line"/>
      <point x="79" y="353" type="line"/>
      <point x="92" y="390" type="line" smooth="yes"/>
      <point x="119" y="466"/>
      <point x="139" y="482"/>
      <point x="159" y="482" type="curve" smooth="yes"/>
      <point x="176" y="482"/>
      <point x="188" y="471"/>
      <point x="193" y="436" type="curve" smooth="yes"/>
      <point x="233" y="78" type="line" smooth="yes"/>
      <point x="241" y="8"/>
      <point x="275" y="-14"/>
      <point x="316" y="-14" type="curve" smooth="yes"/>
      <point x="359" y="-14"/>
      <point x="401" y="8"/>
      <point x="430" y="88" type="curve" smooth="yes"/>
      <point x="455" y="161" type="line"/>
      <point x="436" y="161" type="line"/>
      <point x="423" y="124" type="line" smooth="yes"/>
      <point x="396" y="48"/>
      <point x="376" y="32"/>
      <point x="356" y="32" type="curve" smooth="yes"/>
      <point x="339" y="32"/>
      <point x="327" y="43"/>
      <point x="322" y="78" type="curve" smooth="yes"/>
    </contour>
    <contour>
      <point x="418" y="457"/>
      <point x="439" y="443"/>
      <point x="469" y="443" type="curve" smooth="yes"/>
      <point x="501" y="443"/>
      <point x="522" y="466"/>
      <point x="522" y="491" type="curve" smooth="yes"/>
      <point x="522" y="514"/>
      <point x="503" y="528"/>
      <point x="478" y="528" type="curve" smooth="yes"/>
      <point x="445" y="528"/>
      <point x="416" y="511"/>
      <point x="378" y="467" type="curve" smooth="yes"/>
      <point x="313" y="394"/>
      <point x="284" y="314"/>
      <point x="266" y="260" type="curve"/>
      <point x="266" y="260"/>
      <point x="286" y="259"/>
      <point x="286" y="259" type="curve"/>
      <point x="307" y="320"/>
      <point x="344" y="410"/>
      <point x="406" y="467" type="curve"/>
    </contour>
    <contour>
      <point x="68" y="57"/>
      <point x="48" y="71"/>
      <point x="18" y="71" type="curve" smooth="yes"/>
      <point x="-12" y="71"/>
      <point x="-34" y="48"/>
      <point x="-34" y="23" type="curve" smooth="yes"/>
      <point x="-34" y="0"/>
      <point x="-19" y="-14"/>
      <point x="11" y="-14" type="curve" smooth="yes"/>
      <point x="42" y="-14"/>
      <point x="72" y="6"/>
      <point x="112" y="48" type="curve" smooth="yes"/>
      <point x="182" y="123"/>
      <point x="216" y="197"/>
      <point x="236" y="251" type="curve"/>
      <point x="236" y="251"/>
      <point x="219" y="255"/>
      <point x="219" y="255" type="curve"/>
      <point x="193" y="189"/>
      <point x="143" y="104"/>
      <point x="81" y="47" type="curve"/>
    </contour>
    <contour>
      <point x="178" y="0" type="move" name="bottom"/>
    </contour>
    <contour>
      <point x="347" y="514" type="move" name="top"/>
    </contour>
  </outline>
</glyph>
<glyph name="y" format="1">
  <advance width="481"/>
  <unicode hex="0079"/>
  <outline>
    <contour>
      <point x="229" y="436" type="line" smooth="yes"/>
      <point x="219" y="507"/>
      <point x="198" y="528"/>
      <point x="157" y="528" type="curve" smooth="yes"/>
      <point x="114" y="528"/>
      <point x="70" y="507"/>
      <point x="42" y="426" type="curve" smooth="yes"/>
      <point x="17" y="353" type="line"/>
      <point x="36" y="353" type="line"/>
      <point x="49" y="390" type="line" smooth="yes"/>
      <point x="76" y="466"/>
      <point x="93" y="482"/>
      <point x="108" y="482" type="curve" smooth="yes"/>
      <point x="125" y="482"/>
      <point x="133" y="468"/>
      <point x="140" y="427" type="curve" smooth="yes"/>
      <point x="216" y="-33" type="line"/>
      <point x="283" y="40" type="line"/>
    </contour>
    <contour>
      <point x="39" y="-121"/>
      <point x="12" y="-102"/>
      <point x="-19" y="-102" type="curve" smooth="yes"/>
      <point x="-47" y="-102"/>
      <point x="-73" y="-118"/>
      <point x="-73" y="-147" type="curve" smooth="yes"/>
      <point x="-73" y="-174"/>
      <point x="-50" y="-188"/>
      <point x="-23" y="-188" type="curve" smooth="yes"/>
      <point x="-5" y="-188"/>
      <point x="24" y="-182"/>
      <point x="64" y="-163" type="curve" smooth="yes"/>
      <point x="160" y="-117"/>
      <point x="229" y="-37"/>
      <point x="261" y="3" type="curve" smooth="yes"/>
      <point x="356" y="122"/>
      <point x="458" y="312"/>
      <point x="458" y="447" type="curve" smooth="yes"/>
      <point x="458" y="500"/>
      <point x="442" y="528"/>
      <point x="406" y="528" type="curve" smooth="yes"/>
      <point x="378" y="528"/>
      <point x="357" y="511"/>
      <point x="355" y="481" type="curve" smooth="yes"/>
      <point x="352" y="435"/>
      <point x="399" y="402"/>
      <point x="431" y="385" type="curve"/>
      <point x="406" y="258"/>
      <point x="335" y="128"/>
      <point x="256" y="28" type="curve" smooth="yes"/>
      <point x="186" y="-61"/>
      <point x="121" y="-111"/>
      <point x="64" y="-141" type="curve"/>
    </contour>
    <contour>
      <point x="287" y="514" type="move" name="top"/>
    </contour>
  </outline>
</glyph>
<glyph name="bar" format="1">
  <advance width="318"/>
  <unicode hex="007C"/>
  <outline>
    <contour>
      <point x="189" y="858" type="line"/>
      <point x="149" y="858" type="line"/>
      <point x="149" y="-195" type="line"/>
      <point x="189" y="-195" type="line"/>
    </contour>
  </outline>
</glyph>
<glyph name="braceright" format="1">
  <advance width="306"/>
  <unicode hex="007D"/>
  <outline>
    <contour>
      <point x="143" y="763" type="line"/>
      <point x="180" y="762"/>
      <point x="200" y="754"/>
      <point x="200" y="713" type="curve" smooth="yes"/>
      <point x="201" y="682"/>
      <point x="191" y="632"/>
      <point x="171" y="551" type="curve" smooth="yes"/>
      <point x="147" y="455"/>
      <point x="129" y="335"/>
      <point x="250" y="299" type="curve"/>
      <point x="170" y="277"/>
      <point x="89" y="226"/>
      <point x="45" y="47" type="curve" smooth="yes"/>
      <point x="-3" y="-150"/>
      <point x="-22" y="-168"/>
      <point x="-87" y="-169" type="curve"/>
      <point x="-92" y="-188" type="line"/>
      <point x="33" y="-188"/>
      <point x="88" y="-137"/>
      <point x="135" y="47" type="curve" smooth="yes"/>
      <point x="182" y="234"/>
      <point x="209" y="285"/>
      <point x="272" y="290" type="curve" smooth="yes"/>
      <point x="277" y="290" type="line"/>
      <point x="280" y="308" type="line"/>
      <point x="275" y="308" type="line" smooth="yes"/>
      <point x="244" y="310"/>
      <point x="229" y="326"/>
      <point x="228" y="367" type="curve" smooth="yes"/>
      <point x="228" y="404"/>
      <point x="239" y="462"/>
      <point x="261" y="551" type="curve" smooth="yes"/>
      <point x="293" y="679"/>
      <point x="308" y="782"/>
      <point x="148" y="782" type="curve"/>
    </contour>
  </outline>
</glyph>
<glyph name="exclamdown" format="1">
  <advance width="249"/>
  <unicode hex="00A1"/>
  <outline>
    <contour>
      <point x="124" y="319" type="line"/>
      <point x="75" y="138"/>
      <point x="-6" y="-36"/>
      <point x="-32" y="-126" type="curve" smooth="yes"/>
      <point x="-43" y="-159"/>
      <point x="-30" y="-188"/>
      <point x="10" y="-188" type="curve" smooth="yes"/>
      <point x="31" y="-188"/>
      <point x="49" y="-175"/>
      <point x="55" y="-149" type="curve" smooth="yes"/>
      <point x="80" y="-50"/>
      <point x="97" y="136"/>
      <point x="142" y="316" type="curve"/>
    </contour>
    <component base="period" xOffset="107" yOffset="414"/>
  </outline>
</glyph>
<glyph name="cent" format="1">
  <advance width="433"/>
  <unicode hex="00A2"/>
  <outline>
    <contour>
      <point x="333" y="708" type="line"/>
      <point x="94" y="-181" type="line"/>
      <point x="116" y="-181" type="line"/>
      <point x="355" y="708" type="line"/>
    </contour>
    <component base="c" xOffset="-3"/>
  </outline>
</glyph>
<glyph name="sterling" format="1">
  <advance width="624"/>
  <unicode hex="00A3"/>
  <outline>
    <contour>
      <point x="65" y="317" type="line"/>
      <point x="59" y="297" type="line"/>
      <point x="384" y="297" type="line"/>
      <point x="390" y="317" type="line"/>
    </contour>
    <contour>
      <point x="92" y="417" type="line"/>
      <point x="86" y="397" type="line"/>
      <point x="411" y="397" type="line"/>
      <point x="417" y="417" type="line"/>
    </contour>
    <contour>
      <point x="522" y="721"/>
      <point x="550" y="710"/>
      <point x="550" y="697" type="curve"/>
      <point x="522" y="689"/>
      <point x="502" y="666"/>
      <point x="502" y="639" type="curve" smooth="yes"/>
      <point x="502" y="618"/>
      <point x="518" y="605"/>
      <point x="538" y="605" type="curve" smooth="yes"/>
      <point x="574" y="605"/>
      <point x="600" y="635"/>
      <point x="600" y="668" type="curve" smooth="yes"/>
      <point x="600" y="703"/>
      <point x="568" y="736"/>
      <point x="496" y="736" type="curve" smooth="yes"/>
      <point x="326" y="736"/>
      <point x="238" y="603"/>
      <point x="194" y="439" type="curve" smooth="yes"/>
      <point x="146" y="258" type="line" smooth="yes"/>
      <point x="120" y="162"/>
      <point x="98" y="114"/>
      <point x="75" y="69" type="curve"/>
      <point x="12" y="50"/>
      <point x="-24" y="15"/>
      <point x="-24" y="-4" type="curve" smooth="yes"/>
      <point x="-24" y="-12"/>
      <point x="-20" y="-14"/>
      <point x="-11" y="-14" type="curve" smooth="yes"/>
      <point x="15" y="-14"/>
      <point x="51" y="13"/>
      <point x="85" y="60" type="curve"/>
      <point x="117" y="74"/>
      <point x="145" y="80"/>
      <point x="172" y="80" type="curve" smooth="yes"/>
      <point x="267" y="80"/>
      <point x="305" y="-14"/>
      <point x="398" y="-14" type="curve" smooth="yes"/>
      <point x="475" y="-14"/>
      <point x="541" y="55"/>
      <point x="541" y="121" type="curve" smooth="yes"/>
      <point x="541" y="181"/>
      <point x="493" y="214"/>
      <point x="440" y="223" type="curve"/>
      <point x="434" y="206" type="line"/>
      <point x="474" y="198"/>
      <point x="499" y="176"/>
      <point x="499" y="137" type="curve" smooth="yes"/>
      <point x="499" y="92"/>
      <point x="457" y="63"/>
      <point x="413" y="63" type="curve" smooth="yes"/>
      <point x="337" y="63"/>
      <point x="289" y="108"/>
      <point x="220" y="108" type="curve" smooth="yes"/>
      <point x="175" y="108"/>
      <point x="133" y="94"/>
      <point x="94" y="76" type="curve"/>
      <point x="171" y="153"/>
      <point x="228" y="215"/>
      <point x="255" y="317" type="curve" smooth="yes"/>
      <point x="294" y="465" type="line" smooth="yes"/>
      <point x="329" y="594"/>
      <point x="366" y="721"/>
      <point x="494" y="721" type="curve" smooth="yes"/>
    </contour>
  </outline>
</glyph>
<glyph name="currency" format="1">
  <advance width="569"/>
  <unicode hex="00A4"/>
  <outline>
    <contour>
      <point x="138" y="383"/>
      <point x="205" y="453"/>
      <point x="287" y="453" type="curve" smooth="yes"/>
      <point x="368" y="453"/>
      <point x="435" y="382"/>
      <point x="435" y="300" type="curve" smooth="yes"/>
      <point x="435" y="217"/>
      <point x="368" y="148"/>
      <point x="287" y="148" type="curve" smooth="yes"/>
      <point x="206" y="148"/>
      <point x="138" y="217"/>
      <point x="138" y="300" type="curve" smooth="yes"/>
    </contour>
    <contour>
      <point x="125" y="109" type="line"/>
      <point x="168" y="152" type="line"/>
      <point x="200" y="126"/>
      <point x="242" y="111"/>
      <point x="287" y="111" type="curve" smooth="yes"/>
      <point x="332" y="111"/>
      <point x="373" y="127"/>
      <point x="406" y="153" type="curve"/>
      <point x="450" y="109" type="line"/>
      <point x="478" y="138" type="line"/>
      <point x="434" y="181" type="line"/>
      <point x="460" y="213"/>
      <point x="476" y="254"/>
      <point x="476" y="300" type="curve" smooth="yes"/>
      <point x="476" y="345"/>
      <point x="460" y="386"/>
      <point x="434" y="419" type="curve"/>
      <point x="479" y="464" type="line"/>
      <point x="451" y="492" type="line"/>
      <point x="406" y="447" type="line"/>
      <point x="373" y="474"/>
      <point x="332" y="490"/>
      <point x="287" y="490" type="curve" smooth="yes"/>
      <point x="242" y="490"/>
      <point x="200" y="474"/>
      <point x="168" y="448" type="curve"/>
      <point x="124" y="492" type="line"/>
      <point x="96" y="464" type="line"/>
      <point x="140" y="420" type="line"/>
      <point x="113" y="387"/>
      <point x="97" y="345"/>
      <point x="97" y="300" type="curve" smooth="yes"/>
      <point x="97" y="254"/>
      <point x="113" y="213"/>
      <point x="139" y="181" type="curve"/>
      <point x="96" y="138" type="line"/>
    </contour>
  </outline>
</glyph>
<glyph name="brokenbar" format="1">
  <advance width="322"/>
  <unicode hex="00A6"/>
  <outline>
    <contour>
      <point x="191" y="-195" type="line"/>
      <point x="191" y="326" type="line"/>
      <point x="151" y="326" type="line"/>
      <point x="151" y="-195" type="line"/>
    </contour>
    <contour>
      <point x="151" y="858" type="line"/>
      <point x="151" y="384" type="line"/>
      <point x="191" y="384" type="line"/>
      <point x="191" y="858" type="line"/>
    </contour>
  </outline>
</glyph>
<glyph name="dieresis" format="1">
  <advance width="390"/>
  <unicode hex="00A8"/>
  <outline>
    <contour>
      <point x="30" y="649"/>
      <point x="50" y="627"/>
      <point x="80" y="627" type="curve" smooth="yes"/>
      <point x="116" y="627"/>
      <point x="147" y="660"/>
      <point x="147" y="693" type="curve" smooth="yes"/>
      <point x="147" y="721"/>
      <point x="125" y="743"/>
      <point x="97" y="743" type="curve" smooth="yes"/>
      <point x="61" y="743"/>
      <point x="30" y="709"/>
      <point x="30" y="678" type="curve" smooth="yes"/>
    </contour>
    <contour>
      <point x="242" y="649"/>
      <point x="262" y="627"/>
      <point x="292" y="627" type="curve" smooth="yes"/>
      <point x="328" y="627"/>
      <point x="359" y="660"/>
      <point x="359" y="693" type="curve" smooth="yes"/>
      <point x="359" y="721"/>
      <point x="337" y="743"/>
      <point x="309" y="743" type="curve" smooth="yes"/>
      <point x="273" y="743"/>
      <point x="242" y="709"/>
      <point x="242" y="678" type="curve" smooth="yes"/>
    </contour>
    <contour>
      <point x="155" y="514" type="move" name="_top"/>
    </contour>
  </outline>
</glyph>
<glyph name="copyright" format="1">
  <advance width="924"/>
  <unicode hex="00A9"/>
  <outline>
    <contour>
      <point x="88" y="164"/>
      <point x="266" y="-14"/>
      <point x="486" y="-14" type="curve" smooth="yes"/>
      <point x="706" y="-14"/>
      <point x="884" y="164"/>
      <point x="884" y="384" type="curve" smooth="yes"/>
      <point x="884" y="604"/>
      <point x="706" y="782"/>
      <point x="486" y="782" type="curve" smooth="yes"/>
      <point x="266" y="782"/>
      <point x="88" y="604"/>
      <point x="88" y="384" type="curve" smooth="yes"/>
    </contour>
    <contour>
      <point x="128" y="586"/>
      <point x="288" y="750"/>
      <point x="486" y="750" type="curve" smooth="yes"/>
      <point x="684" y="750"/>
      <point x="844" y="586"/>
      <point x="844" y="384" type="curve" smooth="yes"/>
      <point x="844" y="182"/>
      <point x="684" y="18"/>
      <point x="486" y="18" type="curve" smooth="yes"/>
      <point x="288" y="18"/>
      <point x="128" y="182"/>
      <point x="128" y="384" type="curve" smooth="yes"/>
    </contour>
    <contour>
      <point x="433" y="156"/>
      <point x="366" y="218"/>
      <point x="366" y="390" type="curve" smooth="yes"/>
      <point x="366" y="583"/>
      <point x="443" y="638"/>
      <point x="509" y="638" type="curve" smooth="yes"/>
      <point x="547" y="638"/>
      <point x="586" y="620"/>
      <point x="599" y="596" type="curve"/>
      <point x="574" y="591"/>
      <point x="557" y="573"/>
      <point x="557" y="545" type="curve" smooth="yes"/>
      <point x="557" y="511"/>
      <point x="582" y="491"/>
      <point x="612" y="491" type="curve" smooth="yes"/>
      <point x="642" y="491"/>
      <point x="665" y="511"/>
      <point x="665" y="547" type="curve" smooth="yes"/>
      <point x="665" y="614"/>
      <point x="586" y="656"/>
      <point x="503" y="656" type="curve" smooth="yes"/>
      <point x="364" y="656"/>
      <point x="269" y="542"/>
      <point x="269" y="378" type="curve" smooth="yes"/>
      <point x="269" y="213"/>
      <point x="366" y="113"/>
      <point x="491" y="113" type="curve" smooth="yes"/>
      <point x="597" y="113"/>
      <point x="654" y="187"/>
      <point x="674" y="252" type="curve"/>
      <point x="655" y="259" type="line"/>
      <point x="620" y="183"/>
      <point x="562" y="156"/>
      <point x="509" y="156" type="curve" smooth="yes"/>
    </contour>
  </outline>
</glyph>
<glyph name="ordfeminine" format="1">
  <advance width="454"/>
  <unicode hex="00AA"/>
  <outline>
    <contour>
      <point x="457" y="722" type="line"/>
      <point x="437" y="716"/>
      <point x="412" y="713"/>
      <point x="387" y="713" type="curve"/>
      <point x="313" y="454" type="line" smooth="yes"/>
      <point x="293" y="384"/>
      <point x="305" y="360"/>
      <point x="347" y="360" type="curve" smooth="yes"/>
      <point x="388" y="360"/>
      <point x="417" y="375"/>
      <point x="437" y="429" type="curve" smooth="yes"/>
      <point x="455" y="478" type="line"/>
      <point x="436" y="478" type="line"/>
      <point x="427" y="453" type="line" smooth="yes"/>
      <point x="410" y="404"/>
      <point x="395" y="389"/>
      <point x="374" y="389" type="curve" smooth="yes"/>
      <point x="357" y="389"/>
      <point x="354" y="402"/>
      <point x="363" y="430" type="curve" smooth="yes"/>
    </contour>
    <contour>
      <point x="178" y="385"/>
      <point x="170" y="403"/>
      <point x="170" y="432" type="curve" smooth="yes"/>
      <point x="170" y="568"/>
      <point x="279" y="698"/>
      <point x="347" y="698" type="curve" smooth="yes"/>
      <point x="362" y="698"/>
      <point x="373" y="685"/>
      <point x="372" y="651" type="curve"/>
      <point x="379" y="667" type="line"/>
      <point x="385" y="709"/>
      <point x="362" y="722"/>
      <point x="342" y="722" type="curve" smooth="yes"/>
      <point x="232" y="722"/>
      <point x="97" y="558"/>
      <point x="97" y="440" type="curve" smooth="yes"/>
      <point x="97" y="393"/>
      <point x="126" y="360"/>
      <point x="175" y="360" type="curve" smooth="yes"/>
      <point x="235" y="360"/>
      <point x="292" y="410"/>
      <point x="348" y="548" type="curve"/>
      <point x="363" y="627" type="line"/>
      <point x="332" y="505"/>
      <point x="243" y="385"/>
      <point x="195" y="385" type="curve" smooth="yes"/>
    </contour>
  </outline>
</glyph>
<glyph name="degree" format="1">
  <advance width="335"/>
  <unicode hex="00B0"/>
  <outline>
    <contour>
      <point x="197" y="820"/>
      <point x="140" y="774"/>
      <point x="140" y="700" type="curve" smooth="yes"/>
      <point x="140" y="625"/>
      <point x="197" y="579"/>
      <point x="261" y="579" type="curve" smooth="yes"/>
      <point x="326" y="579"/>
      <point x="383" y="625"/>
      <point x="383" y="700" type="curve" smooth="yes"/>
      <point x="383" y="774"/>
      <point x="326" y="820"/>
      <point x="261" y="820" type="curve" smooth="yes"/>
    </contour>
    <contour>
      <point x="216" y="596"/>
      <point x="165" y="629"/>
      <point x="165" y="699" type="curve" smooth="yes"/>
      <point x="165" y="767"/>
      <point x="216" y="803"/>
      <point x="261" y="803" type="curve" smooth="yes"/>
      <point x="306" y="803"/>
      <point x="358" y="767"/>
      <point x="358" y="699" type="curve" smooth="yes"/>
      <point x="358" y="629"/>
      <point x="306" y="596"/>
      <point x="261" y="596" type="curve" smooth="yes"/>
    </contour>
  </outline>
</glyph>
<glyph name="twosuperior" format="1">
  <advance width="341"/>
  <unicode hex="00B2"/>
  <outline>
    <contour>
      <point x="224" y="754"/>
      <point x="170" y="717"/>
      <point x="139" y="679" type="curve"/>
      <point x="153" y="668" type="line"/>
      <point x="187" y="707"/>
      <point x="225" y="720"/>
      <point x="260" y="720" type="curve" smooth="yes"/>
      <point x="294" y="720"/>
      <point x="314" y="708"/>
      <point x="314" y="677" type="curve" smooth="yes"/>
      <point x="314" y="585"/>
      <point x="145" y="496"/>
      <point x="85" y="455" type="curve"/>
      <point x="81" y="437" type="line"/>
      <point x="107" y="447"/>
      <point x="124" y="453"/>
      <point x="159" y="451" type="curve" smooth="yes"/>
      <point x="209" y="448"/>
      <point x="237" y="433"/>
      <point x="278" y="433" type="curve" smooth="yes"/>
      <point x="336" y="433"/>
      <point x="368" y="464"/>
      <point x="368" y="501" type="curve" smooth="yes"/>
      <point x="368" y="513"/>
      <point x="364" y="524"/>
      <point x="358" y="533" type="curve"/>
      <point x="341" y="526" type="line"/>
      <point x="344" y="520"/>
      <point x="345" y="513"/>
      <point x="345" y="507" type="curve" smooth="yes"/>
      <point x="345" y="485"/>
      <point x="325" y="472"/>
      <point x="298" y="472" type="curve" smooth="yes"/>
      <point x="265" y="472"/>
      <point x="205" y="490"/>
      <point x="172" y="490" type="curve"/>
      <point x="234" y="540"/>
      <point x="373" y="612"/>
      <point x="373" y="697" type="curve" smooth="yes"/>
      <point x="373" y="738"/>
      <point x="340" y="754"/>
      <point x="294" y="754" type="curve" smooth="yes"/>
    </contour>
  </outline>
</glyph>
<glyph name="threesuperior" format="1">
  <advance width="326"/>
  <unicode hex="00B3"/>
  <outline>
    <contour>
      <point x="230" y="754"/>
      <point x="172" y="712"/>
      <point x="144" y="679" type="curve"/>
      <point x="158" y="667" type="line"/>
      <point x="201" y="710"/>
      <point x="239" y="723"/>
      <point x="274" y="723" type="curve" smooth="yes"/>
      <point x="303" y="723"/>
      <point x="321" y="711"/>
      <point x="321" y="686" type="curve" smooth="yes"/>
      <point x="321" y="644"/>
      <point x="283" y="612"/>
      <point x="228" y="592" type="curve"/>
      <point x="202" y="593"/>
      <point x="184" y="588"/>
      <point x="184" y="575" type="curve" smooth="yes"/>
      <point x="184" y="565"/>
      <point x="194" y="562"/>
      <point x="202" y="562" type="curve" smooth="yes"/>
      <point x="209" y="562"/>
      <point x="219" y="564"/>
      <point x="234" y="572" type="curve"/>
      <point x="269" y="571"/>
      <point x="289" y="556"/>
      <point x="289" y="520" type="curve" smooth="yes"/>
      <point x="289" y="428"/>
      <point x="158" y="373"/>
      <point x="43" y="364" type="curve"/>
      <point x="43" y="346" type="line"/>
      <point x="168" y="355"/>
      <point x="349" y="412"/>
      <point x="349" y="512" type="curve" smooth="yes"/>
      <point x="349" y="565"/>
      <point x="296" y="584"/>
      <point x="240" y="586" type="curve"/>
      <point x="296" y="599"/>
      <point x="379" y="643"/>
      <point x="379" y="700" type="curve" smooth="yes"/>
      <point x="379" y="737"/>
      <point x="345" y="754"/>
      <point x="299" y="754" type="curve" smooth="yes"/>
    </contour>
  </outline>
</glyph>
<glyph name="paragraph" format="1">
  <advance width="640"/>
  <unicode hex="00B6"/>
  <outline>
    <contour>
      <point x="264" y="337"/>
      <point x="141" y="347"/>
      <point x="142" y="351" type="curve" smooth="yes"/>
      <point x="143" y="354"/>
      <point x="272" y="366"/>
      <point x="426" y="366" type="curve"/>
      <point x="470" y="523"/>
      <point x="529" y="656"/>
      <point x="535" y="656" type="curve"/>
      <point x="533" y="652"/>
      <point x="372" y="48"/>
      <point x="372" y="48" type="curve" smooth="yes"/>
      <point x="366" y="48"/>
      <point x="376" y="174"/>
      <point x="418" y="337" type="curve"/>
    </contour>
    <contour>
      <point x="327" y="-104"/>
      <point x="295" y="-172"/>
      <point x="223" y="-172" type="curve" smooth="yes"/>
      <point x="209" y="-172"/>
      <point x="197" y="-170"/>
      <point x="188" y="-167" type="curve"/>
      <point x="208" y="-149"/>
      <point x="223" y="-127"/>
      <point x="223" y="-103" type="curve" smooth="yes"/>
      <point x="223" y="-85"/>
      <point x="211" y="-72"/>
      <point x="190" y="-72" type="curve" smooth="yes"/>
      <point x="158" y="-72"/>
      <point x="131" y="-104"/>
      <point x="131" y="-133" type="curve" smooth="yes"/>
      <point x="132" y="-170"/>
      <point x="174" y="-188"/>
      <point x="233" y="-188" type="curve" smooth="yes"/>
      <point x="359" y="-188"/>
      <point x="435" y="-69"/>
      <point x="478" y="93" type="curve" smooth="yes"/>
      <point x="617" y="621" type="line" smooth="yes"/>
      <point x="629" y="665"/>
      <point x="647" y="686"/>
      <point x="712" y="689" type="curve"/>
      <point x="717" y="708" type="line"/>
      <point x="697" y="706"/>
      <point x="677" y="706"/>
      <point x="657" y="706" type="curve" smooth="yes"/>
      <point x="610" y="706"/>
      <point x="562" y="709"/>
      <point x="507" y="709" type="curve" smooth="yes"/>
      <point x="243" y="709"/>
      <point x="36" y="494"/>
      <point x="36" y="229" type="curve" smooth="yes"/>
      <point x="36" y="85"/>
      <point x="123" y="-13"/>
      <point x="354" y="-13" type="curve"/>
    </contour>
  </outline>
</glyph>
<glyph name="cedilla" format="1">
  <advance width="228"/>
  <unicode hex="00B8"/>
  <outline>
    <contour>
      <point x="125" y="0" type="line"/>
      <point x="79" y="-96" type="line"/>
      <point x="90" y="-91"/>
      <point x="103" y="-89"/>
      <point x="110" y="-89" type="curve" smooth="yes"/>
      <point x="129" y="-89"/>
      <point x="138" y="-97"/>
      <point x="138" y="-113" type="curve" smooth="yes"/>
      <point x="138" y="-153"/>
      <point x="87" y="-164"/>
      <point x="66" y="-164" type="curve" smooth="yes"/>
      <point x="33" y="-164"/>
      <point x="15" y="-155"/>
      <point x="6" y="-151" type="curve"/>
      <point x="-1" y="-166" type="line"/>
      <point x="12" y="-177"/>
      <point x="42" y="-188"/>
      <point x="79" y="-188" type="curve" smooth="yes"/>
      <point x="131" y="-188"/>
      <point x="202" y="-163"/>
      <point x="202" y="-105" type="curve" smooth="yes"/>
      <point x="202" y="-80"/>
      <point x="186" y="-65"/>
      <point x="159" y="-65" type="curve" smooth="yes"/>
      <point x="145" y="-65"/>
      <point x="129" y="-68"/>
      <point x="118" y="-72" type="curve"/>
      <point x="152" y="0" type="line"/>
    </contour>
    <contour>
      <point x="138" y="0" type="move" name="_bottom"/>
    </contour>
  </outline>
</glyph>
<glyph name="onesuperior" format="1">
  <advance width="253"/>
  <unicode hex="00B9"/>
  <outline>
    <contour>
      <point x="297" y="753" type="line"/>
      <point x="256" y="720"/>
      <point x="212" y="682"/>
      <point x="116" y="653" type="curve"/>
      <point x="111" y="634" type="line"/>
      <point x="170" y="650"/>
      <point x="203" y="668"/>
      <point x="237" y="688" type="curve"/>
      <point x="156" y="437" type="line"/>
      <point x="215" y="437" type="line"/>
      <point x="316" y="753" type="line"/>
    </contour>
  </outline>
</glyph>
<glyph name="ordmasculine" format="1">
  <advance width="411"/>
  <unicode hex="00BA"/>
  <outline>
    <contour>
      <point x="346" y="704"/>
      <point x="362" y="686"/>
      <point x="362" y="646" type="curve" smooth="yes"/>
      <point x="362" y="526"/>
      <point x="301" y="379"/>
      <point x="227" y="379" type="curve" smooth="yes"/>
      <point x="195" y="379"/>
      <point x="179" y="397"/>
      <point x="179" y="437" type="curve" smooth="yes"/>
      <point x="179" y="556"/>
      <point x="240" y="704"/>
      <point x="314" y="704" type="curve" smooth="yes"/>
    </contour>
    <contour>
      <point x="107" y="395"/>
      <point x="152" y="361"/>
      <point x="222" y="361" type="curve" smooth="yes"/>
      <point x="360" y="361"/>
      <point x="434" y="519"/>
      <point x="434" y="617" type="curve" smooth="yes"/>
      <point x="434" y="688"/>
      <point x="389" y="722"/>
      <point x="319" y="722" type="curve" smooth="yes"/>
      <point x="181" y="722"/>
      <point x="107" y="563"/>
      <point x="107" y="465" type="curve" smooth="yes"/>
    </contour>
  </outline>
</glyph>
<glyph name="guillemotright" format="1">
  <advance width="516"/>
  <unicode hex="00BB"/>
  <outline>
    <contour>
      <point x="258" y="528" type="line"/>
      <point x="277" y="450"/>
      <point x="341" y="318"/>
      <point x="399" y="270" type="curve"/>
      <point x="324" y="215"/>
      <point x="221" y="73"/>
      <point x="180" y="-14" type="curve"/>
      <point x="198" y="-14" type="line"/>
      <point x="281" y="100"/>
      <point x="368" y="194"/>
      <point x="474" y="269" type="curve"/>
      <point x="474" y="270" type="line"/>
      <point x="390" y="335"/>
      <point x="328" y="426"/>
      <point x="276" y="528" type="curve"/>
    </contour>
    <contour>
      <point x="93" y="528" type="line"/>
      <point x="112" y="450"/>
      <point x="176" y="318"/>
      <point x="234" y="270" type="curve"/>
      <point x="159" y="215"/>
      <point x="56" y="73"/>
      <point x="15" y="-14" type="curve"/>
      <point x="33" y="-14" type="line"/>
      <point x="116" y="100"/>
      <point x="203" y="194"/>
      <point x="309" y="269" type="curve"/>
      <point x="309" y="270" type="line"/>
      <point x="225" y="335"/>
      <point x="163" y="426"/>
      <point x="111" y="528" type="curve"/>
    </contour>
  </outline>
</glyph>
<glyph name="questiondown" format="1">
  <advance width="446"/>
  <unicode hex="00BF"/>
  <outline>
    <contour>
      <point x="66" y="-171"/>
      <point x="36" y="-140"/>
      <point x="36" y="-103" type="curve" smooth="yes"/>
      <point x="36" y="-55"/>
      <point x="73" y="-25"/>
      <point x="161" y="33" type="curve" smooth="yes"/>
      <point x="255" y="100"/>
      <point x="327" y="144"/>
      <point x="327" y="220" type="curve" smooth="yes"/>
      <point x="327" y="283"/>
      <point x="280" y="316"/>
      <point x="212" y="316" type="curve" smooth="yes"/>
      <point x="135" y="316"/>
      <point x="34" y="277"/>
      <point x="34" y="214" type="curve" smooth="yes"/>
      <point x="34" y="187"/>
      <point x="50" y="179"/>
      <point x="68" y="179" type="curve" smooth="yes"/>
      <point x="95" y="179"/>
      <point x="113" y="200"/>
      <point x="113" y="220" type="curve" smooth="yes"/>
      <point x="114" y="238"/>
      <point x="99" y="254"/>
      <point x="87" y="255" type="curve"/>
      <point x="104" y="283"/>
      <point x="152" y="299"/>
      <point x="192" y="299" type="curve" smooth="yes"/>
      <point x="233" y="299"/>
      <point x="260" y="267"/>
      <point x="260" y="231" type="curve" smooth="yes"/>
      <point x="260" y="176"/>
      <point x="213" y="152"/>
      <point x="123" y="88" type="curve" smooth="yes"/>
      <point x="1" y="7"/>
      <point x="-42" y="-29"/>
      <point x="-42" y="-90" type="curve" smooth="yes"/>
      <point x="-42" y="-154"/>
      <point x="18" y="-188"/>
      <point x="104" y="-188" type="curve" smooth="yes"/>
      <point x="209" y="-188"/>
      <point x="314" y="-142"/>
      <point x="314" y="-75" type="curve" smooth="yes"/>
      <point x="314" y="-50"/>
      <point x="301" y="-33"/>
      <point x="274" y="-33" type="curve" smooth="yes"/>
      <point x="246" y="-33"/>
      <point x="223" y="-51"/>
      <point x="221" y="-78" type="curve" smooth="yes"/>
      <point x="219" y="-101"/>
      <point x="234" y="-119"/>
      <point x="246" y="-122" type="curve"/>
      <point x="233" y="-156"/>
      <point x="168" y="-171"/>
      <point x="123" y="-171" type="curve" smooth="yes"/>
    </contour>
    <component base="period" xOffset="201" yOffset="414"/>
  </outline>
</glyph>
<glyph name="AE" format="1">
  <advance width="897"/>
  <unicode hex="00C6"/>
  <outline>
    <contour>
      <point x="615" y="773" type="line"/>
      <point x="6" y="84" type="line" smooth="yes"/>
      <point x="-31" y="42"/>
      <point x="-61" y="21"/>
      <point x="-80" y="20" type="curve"/>
      <point x="-80" y="0" type="line"/>
      <point x="-64" y="2"/>
      <point x="-37" y="3"/>
      <point x="-13" y="3" type="curve" smooth="yes"/>
      <point x="20" y="3"/>
      <point x="55" y="2"/>
      <point x="73" y="0" type="curve"/>
      <point x="73" y="20" type="line"/>
      <point x="-7" y="26"/>
      <point x="1" y="50"/>
      <point x="40" y="94" type="curve" smooth="yes"/>
      <point x="641" y="773" type="line"/>
    </contour>
    <contour>
      <point x="699" y="346" type="line"/>
      <point x="703" y="366" type="line"/>
      <point x="271" y="366" type="line"/>
      <point x="252" y="346" type="line"/>
    </contour>
    <contour>
      <point x="628" y="346" type="line"/>
      <point x="703" y="341"/>
      <point x="675" y="280"/>
      <point x="675" y="234" type="curve"/>
      <point x="697" y="234" type="line"/>
      <point x="709" y="300"/>
      <point x="715" y="327"/>
      <point x="723" y="356" type="curve" smooth="yes"/>
      <point x="734" y="398"/>
      <point x="740" y="426"/>
      <point x="757" y="478" type="curve"/>
      <point x="735" y="478" type="line"/>
      <point x="713" y="420"/>
      <point x="692" y="366"/>
      <point x="632" y="366" type="curve"/>
    </contour>
    <contour>
      <point x="587" y="602" type="line" smooth="yes"/>
      <point x="606" y="675"/>
      <point x="621" y="685"/>
      <point x="687" y="685" type="curve" smooth="yes"/>
      <point x="780" y="685" type="line" smooth="yes"/>
      <point x="860" y="685"/>
      <point x="882" y="646"/>
      <point x="861" y="528" type="curve"/>
      <point x="883" y="528" type="line"/>
      <point x="885" y="543"/>
      <point x="889" y="566"/>
      <point x="896" y="590" type="curve" smooth="yes"/>
      <point x="903" y="613"/>
      <point x="917" y="661"/>
      <point x="934" y="708" type="curve"/>
      <point x="871" y="705"/>
      <point x="788" y="705"/>
      <point x="727" y="705" type="curve" smooth="yes"/>
      <point x="667" y="705"/>
      <point x="537" y="705"/>
      <point x="440" y="708" type="curve"/>
      <point x="435" y="688" type="line"/>
      <point x="502" y="685"/>
      <point x="513" y="675"/>
      <point x="494" y="602" type="curve" smooth="yes"/>
      <point x="362" y="106" type="line" smooth="yes"/>
      <point x="343" y="33"/>
      <point x="327" y="23"/>
      <point x="259" y="20" type="curve"/>
      <point x="255" y="0" type="line"/>
      <point x="353" y="3"/>
      <point x="483" y="3"/>
      <point x="543" y="3" type="curve" smooth="yes"/>
      <point x="610" y="3"/>
      <point x="701" y="3"/>
      <point x="769" y="0" type="curve"/>
      <point x="776" y="51"/>
      <point x="788" y="103"/>
      <point x="795" y="128" type="curve" smooth="yes"/>
      <point x="802" y="156"/>
      <point x="809" y="182"/>
      <point x="816" y="200" type="curve"/>
      <point x="794" y="200" type="line"/>
      <point x="749" y="68"/>
      <point x="711" y="23"/>
      <point x="615" y="23" type="curve" smooth="yes"/>
      <point x="512" y="23" type="line" smooth="yes"/>
      <point x="446" y="23"/>
      <point x="436" y="33"/>
      <point x="455" y="106" type="curve" smooth="yes"/>
    </contour>
    <contour>
      <point x="586" y="708" type="move" name="top"/>
    </contour>
  </outline>
</glyph>
<glyph name="multiply" format="1">
  <advance width="513"/>
  <unicode hex="00D7"/>
  <outline>
    <contour>
      <point x="42" y="160" type="line"/>
      <point x="266" y="334" type="line"/>
      <point x="390" y="161" type="line"/>
      <point x="415" y="179" type="line"/>
      <point x="290" y="352" type="line"/>
      <point x="517" y="528" type="line"/>
      <point x="501" y="550" type="line"/>
      <point x="274" y="373" type="line"/>
      <point x="151" y="548" type="line"/>
      <point x="125" y="530" type="line"/>
      <point x="250" y="355" type="line"/>
      <point x="27" y="182" type="line"/>
    </contour>
  </outline>
</glyph>
<glyph name="Oslash" format="1">
  <advance width="729"/>
  <unicode hex="00D8"/>
  <outline>
    <contour>
      <point x="647" y="612" type="line"/>
      <point x="787" y="760" type="line"/>
      <point x="772" y="773" type="line"/>
      <point x="637" y="632" type="line"/>
    </contour>
    <contour>
      <point x="125" y="95" type="line"/>
      <point x="-20" y="-59" type="line"/>
      <point x="-3" y="-73" type="line"/>
      <point x="138" y="77" type="line"/>
    </contour>
    <contour>
      <point x="146" y="77" type="line"/>
      <point x="640" y="612" type="line"/>
      <point x="630" y="632" type="line"/>
      <point x="133" y="95" type="line"/>
    </contour>
    <component base="O"/>
    <contour>
      <point x="365" y="708" type="move" name="top"/>
    </contour>
  </outline>
</glyph>
<glyph name="Thorn" format="1">
  <advance width="605"/>
  <unicode hex="00DE"/>
  <outline>
    <contour>
      <point x="251" y="550" type="line"/>
      <point x="296" y="553"/>
      <point x="308" y="556"/>
      <point x="367" y="556" type="curve" smooth="yes"/>
      <point x="457" y="556"/>
      <point x="494" y="518"/>
      <point x="494" y="440" type="curve" smooth="yes"/>
      <point x="494" y="291"/>
      <point x="426" y="172"/>
      <point x="228" y="172" type="curve" smooth="yes"/>
      <point x="183" y="172" type="line"/>
      <point x="183" y="172"/>
      <point x="178" y="152"/>
      <point x="178" y="152" type="curve"/>
      <point x="218" y="152" type="line" smooth="yes"/>
      <point x="442" y="152"/>
      <point x="595" y="267"/>
      <point x="595" y="424" type="curve" smooth="yes"/>
      <point x="595" y="515"/>
      <point x="530" y="575"/>
      <point x="396" y="575" type="curve" smooth="yes"/>
      <point x="346" y="575"/>
      <point x="298" y="573"/>
      <point x="250" y="573" type="curve"/>
    </contour>
    <component base="I"/>
  </outline>
</glyph>
<glyph name="germandbls" format="1">
  <advance width="547"/>
  <unicode hex="00DF"/>
  <outline>
    <contour>
      <point x="409" y="767"/>
      <point x="440" y="734"/>
      <point x="440" y="661" type="curve" smooth="yes"/>
      <point x="440" y="600"/>
      <point x="415" y="548"/>
      <point x="376" y="507" type="curve" smooth="yes"/>
      <point x="330" y="458"/>
      <point x="275" y="435"/>
      <point x="275" y="369" type="curve" smooth="yes"/>
      <point x="275" y="313"/>
      <point x="314" y="274"/>
      <point x="340" y="241" type="curve" smooth="yes"/>
      <point x="378" y="193"/>
      <point x="392" y="147"/>
      <point x="392" y="110" type="curve" smooth="yes"/>
      <point x="392" y="44"/>
      <point x="347" y="6"/>
      <point x="287" y="6" type="curve" smooth="yes"/>
      <point x="267" y="6"/>
      <point x="256" y="10"/>
      <point x="245" y="14" type="curve"/>
      <point x="248" y="26"/>
      <point x="251" y="37"/>
      <point x="251" y="52" type="curve" smooth="yes"/>
      <point x="251" y="75"/>
      <point x="244" y="120"/>
      <point x="208" y="120" type="curve" smooth="yes"/>
      <point x="186" y="120"/>
      <point x="169" y="102"/>
      <point x="169" y="72" type="curve" smooth="yes"/>
      <point x="169" y="12"/>
      <point x="234" y="-14"/>
      <point x="297" y="-14" type="curve" smooth="yes"/>
      <point x="395" y="-14"/>
      <point x="476" y="49"/>
      <point x="476" y="145" type="curve" smooth="yes"/>
      <point x="476" y="198"/>
      <point x="451" y="244"/>
      <point x="417" y="290" type="curve" smooth="yes"/>
      <point x="386" y="332"/>
      <point x="351" y="366"/>
      <point x="351" y="420" type="curve" smooth="yes"/>
      <point x="351" y="452"/>
      <point x="363" y="475"/>
      <point x="385" y="495" type="curve" smooth="yes"/>
      <point x="443" y="550"/>
      <point x="517" y="606"/>
      <point x="517" y="681" type="curve" smooth="yes"/>
      <point x="517" y="733"/>
      <point x="481" y="782"/>
      <point x="381" y="782" type="curve" smooth="yes"/>
      <point x="235" y="782"/>
      <point x="180" y="685"/>
      <point x="133" y="507" type="curve" smooth="yes"/>
      <point x="-49" y="-188" type="line"/>
      <point x="-23" y="-179"/>
      <point x="9" y="-175"/>
      <point x="41" y="-174" type="curve"/>
      <point x="242" y="589" type="line" smooth="yes"/>
      <point x="276" y="718"/>
      <point x="309" y="767"/>
      <point x="366" y="767" type="curve" smooth="yes"/>
    </contour>
  </outline>
</glyph>
<glyph name="ae" format="1">
  <advance width="659"/>
  <unicode hex="00E6"/>
  <outline>
    <contour>
      <point x="312" y="210" type="line"/>
      <point x="421" y="242"/>
      <point x="645" y="322"/>
      <point x="645" y="452" type="curve" smooth="yes"/>
      <point x="645" y="503"/>
      <point x="604" y="528"/>
      <point x="551" y="528" type="curve" smooth="yes"/>
      <point x="373" y="528"/>
      <point x="241" y="272"/>
      <point x="241" y="127" type="curve" smooth="yes"/>
      <point x="241" y="34"/>
      <point x="292" y="-14"/>
      <point x="373" y="-14" type="curve" smooth="yes"/>
      <point x="458" y="-14"/>
      <point x="535" y="53"/>
      <point x="574" y="120" type="curve"/>
      <point x="554" y="128" type="line"/>
      <point x="503" y="53"/>
      <point x="452" y="28"/>
      <point x="404" y="28" type="curve" smooth="yes"/>
      <point x="362" y="28"/>
      <point x="335" y="56"/>
      <point x="335" y="124" type="curve" smooth="yes"/>
      <point x="335" y="308"/>
      <point x="454" y="509"/>
      <point x="529" y="509" type="curve" smooth="yes"/>
      <point x="552" y="509"/>
      <point x="565" y="492"/>
      <point x="565" y="464" type="curve" smooth="yes"/>
      <point x="565" y="398"/>
      <point x="535" y="342"/>
      <point x="487" y="304" type="curve" smooth="yes"/>
      <point x="451" y="276"/>
      <point x="388" y="252"/>
      <point x="313" y="227" type="curve"/>
    </contour>
    <contour>
      <point x="104" y="18"/>
      <point x="91" y="45"/>
      <point x="91" y="85" type="curve" smooth="yes"/>
      <point x="91" y="295"/>
      <point x="259" y="497"/>
      <point x="365" y="497" type="curve" smooth="yes"/>
      <point x="376" y="497"/>
      <point x="407" y="493"/>
      <point x="422" y="451" type="curve"/>
      <point x="434" y="460" type="line"/>
      <point x="420" y="505"/>
      <point x="386" y="518"/>
      <point x="358" y="518" type="curve" smooth="yes"/>
      <point x="193" y="518"/>
      <point x="3" y="272"/>
      <point x="3" y="97" type="curve" smooth="yes"/>
      <point x="3" y="32"/>
      <point x="34" y="-14"/>
      <point x="103" y="-14" type="curve" smooth="yes"/>
      <point x="184" y="-14"/>
      <point x="247" y="46"/>
      <point x="287" y="157" type="curve"/>
      <point x="278" y="170" type="line"/>
      <point x="236" y="56"/>
      <point x="175" y="18"/>
      <point x="135" y="18" type="curve" smooth="yes"/>
    </contour>
    <contour>
      <point x="400" y="514" type="move" name="top"/>
    </contour>
  </outline>
</glyph>
<glyph name="eth" format="1">
  <advance width="487"/>
  <unicode hex="00F0"/>
  <outline>
    <contour>
      <point x="333" y="670" type="line"/>
      <point x="497" y="742" type="line"/>
      <point x="491" y="760" type="line"/>
      <point x="319" y="684" type="line"/>
    </contour>
    <contour>
      <point x="319" y="683" type="line"/>
      <point x="108" y="590" type="line"/>
      <point x="114" y="572" type="line"/>
      <point x="333" y="669" type="line"/>
    </contour>
    <contour>
      <point x="361" y="242"/>
      <point x="272" y="6"/>
      <point x="164" y="6" type="curve" smooth="yes"/>
      <point x="126" y="6"/>
      <point x="107" y="33"/>
      <point x="107" y="93" type="curve" smooth="yes"/>
      <point x="107" y="271"/>
      <point x="197" y="508"/>
      <point x="301" y="508" type="curve" smooth="yes"/>
      <point x="336" y="508"/>
      <point x="354" y="499"/>
      <point x="368" y="482" type="curve"/>
      <point x="375" y="494" type="line"/>
      <point x="361" y="508"/>
      <point x="343" y="528"/>
      <point x="301" y="528" type="curve" smooth="yes"/>
      <point x="123" y="528"/>
      <point x="21" y="290"/>
      <point x="21" y="143" type="curve" smooth="yes"/>
      <point x="21" y="37"/>
      <point x="75" y="-14"/>
      <point x="158" y="-14" type="curve" smooth="yes"/>
      <point x="345" y="-14"/>
      <point x="447" y="224"/>
      <point x="447" y="394" type="curve" smooth="yes"/>
      <point x="447" y="602"/>
      <point x="337" y="722"/>
      <point x="177" y="782" type="curve"/>
      <point x="165" y="765" type="line"/>
      <point x="270" y="711"/>
      <point x="361" y="622"/>
      <point x="361" y="421" type="curve" smooth="yes"/>
    </contour>
  </outline>
</glyph>
<glyph name="divide" format="1">
  <advance width="657"/>
  <unicode hex="00F7"/>
  <outline>
    <contour>
      <point x="325" y="468"/>
      <point x="343" y="444"/>
      <point x="373" y="444" type="curve" smooth="yes"/>
      <point x="404" y="444"/>
      <point x="436" y="468"/>
      <point x="445" y="499" type="curve" smooth="yes"/>
      <point x="454" y="529"/>
      <point x="436" y="554"/>
      <point x="405" y="554" type="curve" smooth="yes"/>
      <point x="375" y="554"/>
      <point x="343" y="529"/>
      <point x="334" y="499" type="curve" smooth="yes"/>
    </contour>
    <contour>
      <point x="242" y="180"/>
      <point x="260" y="155"/>
      <point x="290" y="155" type="curve" smooth="yes"/>
      <point x="321" y="155"/>
      <point x="353" y="180"/>
      <point x="362" y="211" type="curve" smooth="yes"/>
      <point x="371" y="241"/>
      <point x="353" y="266"/>
      <point x="322" y="266" type="curve" smooth="yes"/>
      <point x="292" y="266"/>
      <point x="260" y="241"/>
      <point x="251" y="211" type="curve" smooth="yes"/>
    </contour>
    <component base="minus" xOffset="-2"/>
  </outline>
</glyph>
<glyph name="oslash" format="1">
  <advance width="488"/>
  <unicode hex="00F8"/>
  <outline>
    <contour>
      <point x="405" y="446" type="line"/>
      <point x="510" y="574" type="line"/>
      <point x="497" y="586" type="line"/>
      <point x="395" y="463" type="line"/>
    </contour>
    <contour>
      <point x="385" y="463" type="line"/>
      <point x="90" y="81" type="line"/>
      <point x="101" y="63" type="line"/>
      <point x="395" y="446" type="line"/>
    </contour>
    <contour>
      <point x="80" y="81" type="line"/>
      <point x="-36" y="-60" type="line"/>
      <point x="-22" y="-73" type="line"/>
      <point x="91" y="63" type="line"/>
    </contour>
    <component base="o"/>
    <contour>
      <point x="244" y="514" type="move" name="top"/>
    </contour>
  </outline>
</glyph>
<glyph name="thorn" format="1">
  <advance width="551"/>
  <unicode hex="00FE"/>
  <outline>
    <contour>
      <point x="409" y="496"/>
      <point x="427" y="468"/>
      <point x="427" y="409" type="curve" smooth="yes"/>
      <point x="427" y="259"/>
      <point x="332" y="9"/>
      <point x="219" y="9" type="curve" smooth="yes"/>
      <point x="185" y="9"/>
      <point x="161" y="26"/>
      <point x="143" y="76" type="curve"/>
      <point x="135" y="56" type="line"/>
      <point x="146" y="11"/>
      <point x="180" y="-14"/>
      <point x="220" y="-14" type="curve" smooth="yes"/>
      <point x="407" y="-14"/>
      <point x="513" y="236"/>
      <point x="513" y="387" type="curve" smooth="yes"/>
      <point x="513" y="482"/>
      <point x="472" y="528"/>
      <point x="409" y="528" type="curve" smooth="yes"/>
      <point x="336" y="528"/>
      <point x="273" y="469"/>
      <point x="203" y="298" type="curve"/>
      <point x="180" y="190" type="line"/>
      <point x="220" y="350"/>
      <point x="320" y="496"/>
      <point x="380" y="496" type="curve" smooth="yes"/>
    </contour>
    <contour>
      <point x="15" y="-98" type="line" smooth="yes"/>
      <point x="2" y="-145"/>
      <point x="-15" y="-160"/>
      <point x="-63" y="-160" type="curve"/>
      <point x="-69" y="-181" type="line"/>
      <point x="-48" y="-180"/>
      <point x="0" y="-177"/>
      <point x="42" y="-177" type="curve" smooth="yes"/>
      <point x="96" y="-177"/>
      <point x="149" y="-180"/>
      <point x="176" y="-181" type="curve"/>
      <point x="182" y="-160" type="line"/>
      <point x="122" y="-160"/>
      <point x="85" y="-144"/>
      <point x="101" y="-88" type="curve" smooth="yes"/>
      <point x="354" y="795" type="line"/>
      <point x="327" y="786"/>
      <point x="295" y="782"/>
      <point x="263" y="781" type="curve"/>
    </contour>
    <contour>
      <point x="33" y="344" type="line"/>
      <point x="115" y="422"/>
      <point x="185" y="501"/>
      <point x="230" y="637" type="curve"/>
      <point x="227" y="653" type="line"/>
      <point x="161" y="495"/>
      <point x="99" y="432"/>
      <point x="22" y="357" type="curve"/>
    </contour>
  </outline>
</glyph>
<glyph name="Hbar" format="1">
  <advance width="757"/>
  <unicode hex="0126"/>
  <outline>
    <contour>
      <point x="116" y="533" type="line"/>
      <point x="111" y="513" type="line"/>
      <point x="784" y="513" type="line"/>
      <point x="789" y="533" type="line"/>
    </contour>
    <component base="H" xOffset="2"/>
  </outline>
</glyph>
<glyph name="dotlessi" format="1">
  <advance width="302"/>
  <unicode hex="0131"/>
  <outline>
    <contour>
      <point x="51" y="126" type="line" smooth="yes"/>
      <point x="25" y="54"/>
      <point x="17" y="-14"/>
      <point x="103" y="-14" type="curve" smooth="yes"/>
      <point x="149" y="-14"/>
      <point x="198" y="11"/>
      <point x="226" y="89" type="curve" smooth="yes"/>
      <point x="252" y="162" type="line"/>
      <point x="233" y="162" type="line"/>
      <point x="219" y="125" type="line" smooth="yes"/>
      <point x="190" y="48"/>
      <point x="168" y="23"/>
      <point x="141" y="23" type="curve" smooth="yes"/>
      <point x="115" y="23"/>
      <point x="111" y="46"/>
      <point x="125" y="85" type="curve" smooth="yes"/>
      <point x="232" y="388" type="line" smooth="yes"/>
      <point x="254" y="450"/>
      <point x="267" y="528"/>
      <point x="182" y="528" type="curve" smooth="yes"/>
      <point x="141" y="528"/>
      <point x="88" y="509"/>
      <point x="58" y="425" type="curve" smooth="yes"/>
      <point x="32" y="352" type="line"/>
      <point x="51" y="352" type="line"/>
      <point x="65" y="389" type="line" smooth="yes"/>
      <point x="91" y="458"/>
      <point x="113" y="491"/>
      <point x="144" y="491" type="curve" smooth="yes"/>
      <point x="166" y="491"/>
      <point x="172" y="470"/>
      <point x="158" y="429" type="curve" smooth="yes"/>
    </contour>
    <contour>
      <point x="155" y="0" type="move" name="bottom"/>
    </contour>
    <contour>
      <point x="272" y="10" type="move" name="ogonek"/>
    </contour>
    <contour>
      <point x="203" y="514" type="move" name="top"/>
    </contour>
  </outline>
</glyph>
<glyph name="IJ" format="1">
  <advance width="822"/>
  <unicode hex="0132"/>
  <outline>
    <contour>
      <point x="461" y="366" type="line"/>
      <point x="461" y="366"/>
      <point x="457" y="346"/>
      <point x="457" y="346" type="curve"/>
      <point x="778" y="346" type="line"/>
      <point x="778" y="346"/>
      <point x="782" y="366"/>
      <point x="782" y="366" type="curve"/>
    </contour>
    <contour>
      <point x="241" y="517"/>
      <point x="150" y="533"/>
      <point x="150" y="596" type="curve" smooth="yes"/>
      <point x="150" y="638"/>
      <point x="188" y="659"/>
      <point x="243" y="659" type="curve" smooth="yes"/>
      <point x="393" y="659"/>
      <point x="472" y="603"/>
      <point x="621" y="603" type="curve" smooth="yes"/>
      <point x="686" y="603"/>
      <point x="754" y="630"/>
      <point x="817" y="663" type="curve"/>
      <point x="699" y="562"/>
      <point x="609" y="494"/>
      <point x="566" y="295" type="curve" smooth="yes"/>
      <point x="534" y="145" type="line" smooth="yes"/>
      <point x="499" y="-15"/>
      <point x="480" y="-172"/>
      <point x="370" y="-172" type="curve" smooth="yes"/>
      <point x="356" y="-172"/>
      <point x="344" y="-170"/>
      <point x="335" y="-167" type="curve"/>
      <point x="356" y="-157"/>
      <point x="375" y="-138"/>
      <point x="373" y="-114" type="curve" smooth="yes"/>
      <point x="371" y="-92"/>
      <point x="353" y="-74"/>
      <point x="329" y="-74" type="curve" smooth="yes"/>
      <point x="296" y="-74"/>
      <point x="274" y="-104"/>
      <point x="276" y="-133" type="curve" smooth="yes"/>
      <point x="279" y="-170"/>
      <point x="321" y="-188"/>
      <point x="380" y="-188" type="curve" smooth="yes"/>
      <point x="506" y="-188"/>
      <point x="578" y="-69"/>
      <point x="607" y="65" type="curve" smooth="yes"/>
      <point x="668" y="340" type="line" smooth="yes"/>
      <point x="702" y="495"/>
      <point x="742" y="590"/>
      <point x="833" y="666" type="curve"/>
      <point x="903" y="693"/>
      <point x="915" y="716"/>
      <point x="898" y="730" type="curve" smooth="yes"/>
      <point x="878" y="747"/>
      <point x="851" y="720"/>
      <point x="824" y="677" type="curve"/>
      <point x="760" y="650"/>
      <point x="717" y="632"/>
      <point x="649" y="632" type="curve" smooth="yes"/>
      <point x="490" y="632"/>
      <point x="414" y="739"/>
      <point x="252" y="739" type="curve" smooth="yes"/>
      <point x="169" y="739"/>
      <point x="108" y="684"/>
      <point x="108" y="612" type="curve" smooth="yes"/>
      <point x="108" y="518"/>
      <point x="217" y="497"/>
      <point x="290" y="497" type="curve" smooth="yes"/>
      <point x="335" y="497"/>
      <point x="395" y="512"/>
      <point x="439" y="541" type="curve"/>
      <point x="431" y="556" type="line"/>
      <point x="392" y="531"/>
      <point x="344" y="517"/>
      <point x="301" y="517" type="curve" smooth="yes"/>
    </contour>
    <contour>
      <point x="145" y="106" type="line" smooth="yes"/>
      <point x="124" y="34"/>
      <point x="110" y="23"/>
      <point x="44" y="20" type="curve"/>
      <point x="39" y="0" type="line"/>
      <point x="68" y="2"/>
      <point x="114" y="3"/>
      <point x="166" y="3" type="curve" smooth="yes"/>
      <point x="212" y="3"/>
      <point x="262" y="2"/>
      <point x="293" y="0" type="curve"/>
      <point x="297" y="20" type="line"/>
      <point x="224" y="21"/>
      <point x="219" y="40"/>
      <point x="238" y="106" type="curve" smooth="yes"/>
      <point x="356" y="512" type="line"/>
      <point x="263" y="512" type="line"/>
    </contour>
  </outline>
</glyph>
<glyph name="ij" format="1">
  <advance width="608"/>
  <unicode hex="0133"/>
  <outline>
    <contour>
      <point x="232" y="35"/>
      <point x="199" y="23"/>
      <point x="168" y="23" type="curve" smooth="yes"/>
      <point x="128" y="23"/>
      <point x="112" y="49"/>
      <point x="125" y="85" type="curve" smooth="yes"/>
      <point x="232" y="388" type="line" smooth="yes"/>
      <point x="257" y="459"/>
      <point x="263" y="528"/>
      <point x="182" y="528" type="curve" smooth="yes"/>
      <point x="141" y="528"/>
      <point x="88" y="509"/>
      <point x="58" y="425" type="curve" smooth="yes"/>
      <point x="32" y="352" type="line"/>
      <point x="51" y="352" type="line"/>
      <point x="65" y="389" type="line" smooth="yes"/>
      <point x="91" y="458"/>
      <point x="113" y="491"/>
      <point x="144" y="491" type="curve" smooth="yes"/>
      <point x="168" y="491"/>
      <point x="174" y="474"/>
      <point x="158" y="429" type="curve" smooth="yes"/>
      <point x="51" y="126" type="line" smooth="yes"/>
      <point x="24" y="48"/>
      <point x="47" y="-14"/>
      <point x="131" y="-14" type="curve" smooth="yes"/>
      <point x="180" y="-14"/>
      <point x="238" y="2"/>
      <point x="270" y="73" type="curve" smooth="yes"/>
      <point x="318" y="179"/>
      <point x="318" y="313"/>
      <point x="353" y="403" type="curve" smooth="yes"/>
      <point x="382" y="476"/>
      <point x="414" y="491"/>
      <point x="452" y="491" type="curve" smooth="yes"/>
      <point x="485" y="491"/>
      <point x="499" y="470"/>
      <point x="487" y="429" type="curve" smooth="yes"/>
      <point x="348" y="-65" type="line" smooth="yes"/>
      <point x="327" y="-140"/>
      <point x="299" y="-167"/>
      <point x="249" y="-173" type="curve"/>
      <point x="264" y="-158"/>
      <point x="277" y="-138"/>
      <point x="277" y="-119" type="curve" smooth="yes"/>
      <point x="277" y="-101"/>
      <point x="265" y="-88"/>
      <point x="244" y="-88" type="curve" smooth="yes"/>
      <point x="212" y="-88"/>
      <point x="185" y="-120"/>
      <point x="185" y="-149" type="curve" smooth="yes"/>
      <point x="185" y="-173"/>
      <point x="201" y="-188"/>
      <point x="232" y="-188" type="curve" smooth="yes"/>
      <point x="246" y="-188"/>
      <point x="271" y="-185"/>
      <point x="291" y="-178" type="curve" smooth="yes"/>
      <point x="381" y="-145"/>
      <point x="444" y="-35"/>
      <point x="486" y="115" type="curve" smooth="yes"/>
      <point x="563" y="388" type="line" smooth="yes"/>
      <point x="584" y="463"/>
      <point x="578" y="528"/>
      <point x="491" y="528" type="curve" smooth="yes"/>
      <point x="434" y="528"/>
      <point x="376" y="506"/>
      <point x="342" y="429" type="curve" smooth="yes"/>
      <point x="297" y="327"/>
      <point x="299" y="190"/>
      <point x="256" y="91" type="curve" smooth="yes"/>
    </contour>
    <component base="dotaccent" xOffset="151" yOffset="-5"/>
    <component base="dotaccent" xOffset="481" yOffset="-5"/>
  </outline>
</glyph>
